<svg xmlns="http://www.w3.org/2000/svg" width="251.125" height="10.938" viewBox="0 0 251.125 10.938">
  <metadata><?xpacket begin="﻿" id="W5M0MpCehiHzreSzNTczkc9d"?>
<x:xmpmeta xmlns:x="adobe:ns:meta/" x:xmptk="Adobe XMP Core 5.6-c142 79.160924, 2017/07/13-01:06:39        ">
   <rdf:RDF xmlns:rdf="http://www.w3.org/1999/02/22-rdf-syntax-ns#">
      <rdf:Description rdf:about=""/>
   </rdf:RDF>
</x:xmpmeta>
                                                                                                    
                                                                                                    
                                                                                                    
                                                                                                    
                                                                                                    
                                                                                                    
                                                                                                    
                                                                                                    
                                                                                                    
                                                                                                    
                                                                                                    
                                                                                                    
                                                                                                    
                                                                                                    
                                                                                                    
                                                                                                    
                                                                                                    
                                                                                                    
                                                                                                    
                                                                                                    
                           
<?xpacket end="w"?></metadata>
<defs>
    <style>
      .cls-1 {
        fill: #737373;
        fill-rule: evenodd;
      }
    </style>
  </defs>
  <path id="Акция_действует_до_31_декабря_2014_года" data-name="Акция действует до 31 декабря 2014 года" class="cls-1" d="M105.357,892.147c-0.156-.8-0.324-1.667-0.468-2.579h-4.078c-0.48.852-.948,1.7-1.4,2.579H98.556c1.547-2.8,3.167-5.565,4.93-8.36h1.475c0.348,2.819.851,6.045,1.367,8.36h-0.971Zm-1.488-7.688c-0.923,1.487-1.8,2.938-2.638,4.39h3.55c-0.216-1.416-.408-2.927-0.564-4.39h-0.348Zm8.52,7.688c-1.043-2.783-1.595-3.047-2.195-3.3a33.875,33.875,0,0,0,3.287-2.759h-1.008c-1.523,1.367-2.842,2.471-3.466,2.915l0.624-2.915h-0.78l-1.283,6.057h0.779l0.624-2.963c0.792,0.132,1.619.576,2.459,2.963h0.959Zm6.132-.72h1.1l-0.683,2.255h-0.588l0.336-1.535h-5.145l1.283-6.057h0.78l-1.14,5.337h3.274l1.14-5.337h0.779Zm6.288,0.72h0.78l1.283-6.057h-0.779c-1.415,1.751-2.867,3.442-4.33,4.929l1.056-4.929h-0.78l-1.283,6.057h0.779a59.975,59.975,0,0,0,4.282-4.762Zm8.9-6.057-1.283,6.057h-0.78l0.54-2.555h-1.127c-0.948,0-1.547.336-3,2.555h-0.887c1.559-2.267,2.087-2.639,2.71-2.735-1.307,0-1.607-.707-1.427-1.559a2.071,2.071,0,0,1,2.267-1.763h2.986Zm-1.379,2.831,0.444-2.111H130.57a1.108,1.108,0,0,0-1.271,1.031,0.767,0.767,0,0,0,.875,1.08h2.159Zm6.158,2.506a25.376,25.376,0,0,0,2.111-5.337h3.682l-1.139,5.337h1.1l-0.684,2.255h-0.587l0.336-1.535h-5.17l-0.335,1.535h-0.576l0.264-2.255h1Zm2.7-4.617a31.765,31.765,0,0,1-1.883,4.617h3.058l0.984-4.617H141.19Zm8.075-.888c-1.8,0-2.89.792-3.394,3.166-0.528,2.483.312,3.227,2.147,3.227a8.758,8.758,0,0,0,2.051-.336l-0.024-.72a6.727,6.727,0,0,1-1.811.324c-1.4,0-1.931-.42-1.523-2.387h4.329C151.58,886.618,150.98,885.922,149.265,885.922Zm-0.156.732c1.116,0,1.44.324,1.188,1.835h-3.43C147.274,887.062,147.838,886.654,149.109,886.654Zm7.116,5.493h0.78l1.283-6.057h-0.78c-1.415,1.751-2.866,3.442-4.329,4.929l1.055-4.929h-0.779l-1.284,6.057h0.78a59.963,59.963,0,0,0,4.281-4.762Zm-2.015-8.36a1.093,1.093,0,0,0,1.259,1.512,1.736,1.736,0,0,0,1.919-1.512h-0.623a0.956,0.956,0,0,1-1.14.828c-0.635,0-.911-0.156-0.767-0.828H154.21Zm9.287,7.472a4.178,4.178,0,0,1-1.535.312c-1.416,0-1.967-.492-1.548-2.459,0.444-2.062,1.176-2.446,2.591-2.446a3.177,3.177,0,0,1,1.415.288l0.408-.732a5.274,5.274,0,0,0-1.667-.3c-1.871,0-3.082.7-3.6,3.166s0.36,3.227,2.243,3.227a5.421,5.421,0,0,0,1.787-.336Zm4.9-4.449h2.375l0.156-.72H165.4l-0.156.72h2.375l-1.128,5.337h0.78Zm5.844,4.617h-2.4l0.468-2.2h2.363c0.683,0,.875.444,0.719,1.176A1.048,1.048,0,0,1,174.237,891.427Zm0.516-2.878h-2.3l0.372-1.739h2.3c0.695,0,.839.216,0.707,0.827A1,1,0,0,1,174.753,888.549Zm0.455,0.324a1.421,1.421,0,0,0,1.476-1.344c0.168-.755.048-1.439-1.284-1.439h-3.2l-1.283,6.057h3.31a1.936,1.936,0,0,0,2.027-1.715C176.42,889.616,176.276,888.909,175.208,888.873Zm4.106,3.562a36.147,36.147,0,0,0-.876-6.345h0.876a39.392,39.392,0,0,1,.732,5.361,61.426,61.426,0,0,0,3.046-5.361h0.851c-1.043,2.027-2.266,4.042-3.538,6.057-0.479.755-1.115,1.679-1.583,2.3h-0.911C178.342,893.874,178.882,893.094,179.314,892.435ZM188,885.922c-1.8,0-2.89.792-3.394,3.166-0.527,2.483.312,3.227,2.147,3.227a8.758,8.758,0,0,0,2.051-.336l-0.024-.72a6.727,6.727,0,0,1-1.811.324c-1.4,0-1.931-.42-1.523-2.387h4.33C190.315,886.618,189.716,885.922,188,885.922Zm-0.155.732c1.115,0,1.439.324,1.187,1.835H185.6C186.01,887.062,186.573,886.654,187.845,886.654Zm6.552,0.156h2.374l0.156-.72H191.4l-0.156.72h2.375l-1.127,5.337h0.779Zm6.517,4.617a25.376,25.376,0,0,0,2.111-5.337h3.682l-1.139,5.337h1.1l-0.684,2.255H205.4l0.335-1.535h-5.169l-0.336,1.535h-0.575l0.264-2.255h0.995Zm2.7-4.617a31.765,31.765,0,0,1-1.883,4.617h3.058l0.983-4.617h-2.158Zm6.744,5.505c-1.883,0-2.591-.744-2.063-3.227s1.547-3.166,3.418-3.166,2.6,0.7,2.087,3.166S212.252,892.315,210.357,892.315Zm1.2-5.649c-1.415,0-1.967.384-2.411,2.446-0.419,1.967-.047,2.459,1.368,2.459s1.991-.492,2.41-2.459C213.367,887.05,212.983,886.666,211.556,886.666Zm11.844,0.983a2.24,2.24,0,0,0,2.206-2.027c0.288-1.343-.348-2.038-2.614-2.038a12.787,12.787,0,0,0-2.579.323l0.06,0.72a8.941,8.941,0,0,1,2.363-.312c1.7,0,2.075.408,1.859,1.415-0.24,1.116-.948,1.583-2.411,1.583h-0.959l-0.144.708h0.959c1.619,0,2.1.48,1.823,1.8-0.276,1.271-.863,1.763-2.734,1.763a7.842,7.842,0,0,1-2.279-.288l-0.348.672a10.415,10.415,0,0,0,2.483.348c2.243,0,3.394-.612,3.79-2.471C225.127,888.705,224.971,887.721,223.4,887.649Zm6.588,4.5,1.835-8.659-3.334,1.463,0.156,0.647,2.051-.9-1.571,7.448h0.863Zm8.15-.72a25.43,25.43,0,0,0,2.111-5.337h3.682l-1.14,5.337h1.1l-0.684,2.255h-0.588l0.336-1.535H237.79l-0.336,1.535h-0.576l0.264-2.255h1Zm2.7-4.617a31.653,31.653,0,0,1-1.883,4.617h3.059L243,886.81h-2.159Zm8.076-.888c-1.8,0-2.891.792-3.394,3.166-0.528,2.483.311,3.227,2.146,3.227a8.75,8.75,0,0,0,2.051-.336l-0.024-.72a6.72,6.72,0,0,1-1.811.324c-1.4,0-1.931-.42-1.523-2.387h4.33C251.226,886.618,250.627,885.922,248.912,885.922Zm-0.156.732c1.115,0,1.439.324,1.187,1.835h-3.43C246.921,887.062,247.484,886.654,248.756,886.654Zm7.883,5.493c-1.043-2.783-1.595-3.047-2.2-3.3a33.92,33.92,0,0,0,3.286-2.759h-1.007c-1.523,1.367-2.842,2.471-3.466,2.915l0.624-2.915H253.1l-1.283,6.057H252.6l0.624-2.963c0.791,0.132,1.619.576,2.459,2.963h0.959Zm3.7,0.168a3.03,3.03,0,0,0,2-.66,1.432,1.432,0,0,0,.408.744l0.708-.5a1.235,1.235,0,0,1-.36-0.876,2.383,2.383,0,0,1,.06-0.479l0.887-4.138a6,6,0,0,0-2.351-.48c-1.87,0-2.89.7-3.406,3.178a7.03,7.03,0,0,0-.168,1.368C258.117,891.859,258.861,892.315,260.336,892.315Zm1.2-5.649a4.734,4.734,0,0,1,1.619.252l-0.8,3.8c-0.12.551-.959,0.851-1.859,0.851-1.043,0-1.511-.276-1.511-1.211a6.411,6.411,0,0,1,.168-1.248C259.581,887.062,260.12,886.666,261.536,886.666Zm9.91-3.13a7.256,7.256,0,0,1-2.243.491c-1.955.18-2.926,0.864-3.754,4.762-0.563,2.638.1,3.526,1.763,3.526,1.871,0,2.891-.7,3.394-3.047s-0.2-3.106-1.871-3.106a2.616,2.616,0,0,0-2.1.852c0.515-1.488.851-2.1,2.41-2.243a7.385,7.385,0,0,0,2.243-.48Zm-5.253,5.708c0.384-1.787.851-2.338,2.351-2.338,1.223,0,1.6.491,1.2,2.338-0.408,1.943-.96,2.327-2.375,2.327C266.277,891.571,265.845,890.876,266.193,889.244Zm8.123,3.071a2.155,2.155,0,0,1-1.571-.5l-0.552,2.639h-0.779l1.7-8.048a7.688,7.688,0,0,1,2.554-.48c1.871,0,2.591.7,2.075,3.166S276.2,892.315,274.316,892.315Zm1.2-5.649a5.727,5.727,0,0,0-1.727.252l-0.8,3.79c-0.12.563,0.588,0.863,1.487,0.863,1.415,0,1.979-.492,2.4-2.459C277.314,887.05,276.931,886.666,275.515,886.666Zm9.551-.576-1.283,6.057H283l0.54-2.555h-1.128c-0.947,0-1.547.336-3,2.555H278.53c1.559-2.267,2.086-2.639,2.71-2.735-1.307,0-1.607-.707-1.427-1.559a2.07,2.07,0,0,1,2.267-1.763h2.986Zm-1.379,2.831,0.444-2.111h-2.207a1.109,1.109,0,0,0-1.272,1.031,0.768,0.768,0,0,0,.876,1.08h2.159Zm11.471,2.506-0.144.72h-5.661l0.132-.672c5.337-3.622,5.721-4.078,6.021-5.529,0.264-1.235-.3-1.583-1.775-1.583a6.912,6.912,0,0,0-2.147.324l-0.048-.78a10.965,10.965,0,0,1,2.375-.323c2.039,0,2.866.635,2.506,2.338-0.347,1.643-1.139,2.555-5.8,5.5h4.545Zm4.85,0.888c2.014,0,3.178-1.044,3.909-4.462,0.72-3.382-.06-4.269-2.062-4.269s-3.143.887-3.862,4.269C297.261,891.271,298.017,892.315,300.008,892.315Zm1.691-8.036c1.523,0,1.991.5,1.343,3.574-0.624,2.915-1.367,3.718-2.891,3.718-1.487,0-1.906-.8-1.283-3.718C299.516,884.783,300.211,884.279,301.7,884.279Zm6.78,7.868,1.835-8.659-3.334,1.463,0.156,0.647,2.051-.9-1.571,7.448h0.863Zm8.568-3.154h-3.071a52.518,52.518,0,0,1,4.066-4.666Zm1.966-5.206h-1.379a63.683,63.683,0,0,0-4.929,5.733l-0.036.18H316.9l-0.516,2.447h0.851l0.516-2.447h1.187l0.144-.707H317.9Zm6.2,2.3-1.283,6.057H324.7l1.128-5.337h3.07l0.156-.72h-3.85Zm6.311,6.225c-1.883,0-2.59-.744-2.063-3.227s1.548-3.166,3.419-3.166,2.6,0.7,2.086,3.166S333.414,892.315,331.519,892.315Zm1.2-5.649c-1.416,0-1.967.384-2.411,2.446-0.42,1.967-.048,2.459,1.367,2.459s1.991-.492,2.411-2.459C334.53,887.05,334.146,886.666,332.719,886.666Zm3.829,4.761a25.322,25.322,0,0,0,2.111-5.337h3.682l-1.139,5.337h1.1l-0.683,2.255h-0.588l0.336-1.535H336.2l-0.336,1.535h-0.576l0.264-2.255h1Zm2.7-4.617a31.653,31.653,0,0,1-1.883,4.617h3.058l0.984-4.617h-2.159Zm6.732,5.505a3.03,3.03,0,0,0,2-.66,1.432,1.432,0,0,0,.408.744l0.707-.5a1.238,1.238,0,0,1-.359-0.876,2.383,2.383,0,0,1,.06-0.479l0.887-4.138a6,6,0,0,0-2.351-.48c-1.871,0-2.89.7-3.406,3.178a7.03,7.03,0,0,0-.168,1.368C343.76,891.859,344.5,892.315,345.979,892.315Zm1.2-5.649a4.736,4.736,0,0,1,1.62.252l-0.8,3.8c-0.12.551-.959,0.851-1.859,0.851-1.043,0-1.511-.276-1.511-1.211a6.411,6.411,0,0,1,.168-1.248C345.224,887.062,345.763,886.666,347.178,886.666Z" transform="translate(-98.563 -883.5)"/>
</svg>
