<svg xmlns="http://www.w3.org/2000/svg" width="86" height="21.281" viewBox="0 0 86 21.281">
  <metadata><?xpacket begin="﻿" id="W5M0MpCehiHzreSzNTczkc9d"?>
<x:xmpmeta xmlns:x="adobe:ns:meta/" x:xmptk="Adobe XMP Core 5.6-c142 79.160924, 2017/07/13-01:06:39        ">
   <rdf:RDF xmlns:rdf="http://www.w3.org/1999/02/22-rdf-syntax-ns#">
      <rdf:Description rdf:about=""/>
   </rdf:RDF>
</x:xmpmeta>
                                                                                                    
                                                                                                    
                                                                                                    
                                                                                                    
                                                                                                    
                                                                                                    
                                                                                                    
                                                                                                    
                                                                                                    
                                                                                                    
                                                                                                    
                                                                                                    
                                                                                                    
                                                                                                    
                                                                                                    
                                                                                                    
                                                                                                    
                                                                                                    
                                                                                                    
                                                                                                    
                           
<?xpacket end="w"?></metadata>
<defs>
    <style>
      .cls-1 {
        fill-rule: evenodd;
      }
    </style>
  </defs>
  <path id="АКЦИЯ" class="cls-1" d="M205.852,488.273H209.5c-1.95-4.649-4.5-11.822-6.273-17.42h-5.174c-2.125,5.2-4.674,12.222-6.3,17.42h3.45c0.4-1.324.849-2.8,1.349-4.349h7.623C204.752,485.524,205.352,487.024,205.852,488.273ZM200.8,473.652c0.675,2.249,1.525,4.874,2.425,7.448h-5.8c0.9-2.624,1.825-5.2,2.7-7.448H200.8Zm24.473,14.621c-2.974-7.773-4.724-8.9-6.8-9.6a52.368,52.368,0,0,0,6.373-7.823h-4a60.051,60.051,0,0,1-6.823,8.4v-8.4h-3.3v17.42h3.3V480c3.074,0.275,4.824,1.625,7.323,8.273h3.924Zm4.852-17.42h-3.3v17.42h13.7v3.849H243.4l0.55-6.823h-3.124V470.853h-3.249V485.3h-7.449V470.853Zm30.447,0H256.6c-2.349,4.348-5,8.8-7.7,13.146V470.853h-3.249v17.42h4.324c2.549-3.974,5.074-8.348,7.373-12.6v12.6h3.224v-17.42Zm13.876,8.048h-4.923c-1.275,0-2.025-.85-2.025-2.55,0-1.824.725-2.7,1.95-2.7h5V478.9ZM268.4,480.65c-2.05.325-3.174,1.275-5.424,7.623h3.8c1.75-5.773,2.9-6.648,4.9-6.648h2.774v6.648h3.3v-17.42h-9.073c-3.674,0-4.849,2.274-4.849,5.073C263.829,478.426,264.929,480.525,268.4,480.65Z" transform="translate(-191.75 -470.844)"/>
</svg>
