<svg xmlns="http://www.w3.org/2000/svg" width="795.937" height="13.313" viewBox="0 0 795.937 13.313">
  <metadata><?xpacket begin="﻿" id="W5M0MpCehiHzreSzNTczkc9d"?>
<x:xmpmeta xmlns:x="adobe:ns:meta/" x:xmptk="Adobe XMP Core 5.6-c142 79.160924, 2017/07/13-01:06:39        ">
   <rdf:RDF xmlns:rdf="http://www.w3.org/1999/02/22-rdf-syntax-ns#">
      <rdf:Description rdf:about=""/>
   </rdf:RDF>
</x:xmpmeta>
                                                                                                    
                                                                                                    
                                                                                                    
                                                                                                    
                                                                                                    
                                                                                                    
                                                                                                    
                                                                                                    
                                                                                                    
                                                                                                    
                                                                                                    
                                                                                                    
                                                                                                    
                                                                                                    
                                                                                                    
                                                                                                    
                                                                                                    
                                                                                                    
                                                                                                    
                                                                                                    
                           
<?xpacket end="w"?></metadata>
<defs>
    <style>
      .cls-1 {
        fill-rule: evenodd;
      }
    </style>
  </defs>
  <path id="О_нас_Нанять_маркетолога_Создание_сайтов_" data-name="О нас          Нанять маркетолога          Создание сайтов     " class="cls-1" d="M206.285,217.1c-2.873,0-4.316.988-4.316,4.668,0,3.744,1.43,4.8,4.316,4.8s4.3-1.053,4.3-4.8C210.588,218.091,209.158,217.1,206.285,217.1Zm0,7.918c-1.989,0-2.483-.494-2.483-3.224s0.494-3.146,2.483-3.146,2.483,0.4,2.483,3.146S208.274,225.021,206.285,225.021Zm11.322-2.652h3.875v4.017h1.69v-9.062h-1.69v3.459h-3.875v-3.459h-1.716v9.062h1.716v-4.017Zm13.923,4.017h1.9c-1.015-2.418-2.341-6.149-3.264-9.062h-2.691c-1.1,2.7-2.431,6.358-3.276,9.062h1.794c0.208-.689.442-1.456,0.7-2.262h3.965C230.958,224.956,231.27,225.736,231.53,226.386Zm-2.626-7.6c0.351,1.17.793,2.535,1.261,3.874h-3.016c0.468-1.365.949-2.7,1.4-3.874H228.9Zm4.966,2.99c0,3.692,1.378,4.8,4.251,4.8a10.947,10.947,0,0,0,2.6-.325l-0.377-1.534a6.724,6.724,0,0,1-1.924.286c-1.976,0-2.717-.429-2.717-3.211s0.741-3.12,2.717-3.12a6.724,6.724,0,0,1,1.924.286l0.377-1.509a10.935,10.935,0,0,0-2.6-.338C235.248,217.1,233.87,218.065,233.87,221.771Zm44.446,0.6h3.874v4.017h1.69v-9.062h-1.69v3.459h-3.874v-3.459H276.6v9.062h1.716v-4.017Zm13.923,4.017h1.9c-1.014-2.418-2.34-6.149-3.263-9.062h-2.691c-1.105,2.7-2.431,6.358-3.276,9.062H286.7c0.208-.689.442-1.456,0.7-2.262h3.965C291.667,224.956,291.979,225.736,292.239,226.386Zm-2.626-7.6c0.351,1.17.793,2.535,1.261,3.874h-3.016c0.468-1.365.949-2.7,1.4-3.874h0.351Zm7.137,3.588h3.874v4.017h1.69v-9.062h-1.69v3.459H296.75v-3.459h-1.716v9.062h1.716v-4.017Zm13.026-.858h-2.561a1.086,1.086,0,0,1-1.053-1.326c0-.949.377-1.4,1.014-1.4h2.6v2.73Zm-3.146.91c-1.066.169-1.651,0.663-2.821,3.965h1.976c0.91-3,1.508-3.458,2.548-3.458h1.443v3.458h1.716v-9.062h-4.719c-1.911,0-2.522,1.184-2.522,2.64A2.2,2.2,0,0,0,306.63,222.421Zm10.829,3.965v-7.579h3.055v-1.483h-7.84v1.483h3.056v7.579h1.729Zm5.954-1.443v-2.964h2.717c0.663,0,1.014.507,1.014,1.495,0,0.962-.286,1.469-0.975,1.469h-2.756Zm-1.717-7.619v9.062h4.954c1.625,0,2.353-1.079,2.353-2.912,0-1.638-.65-2.925-2.431-2.925h-3.159v-3.225H321.7Zm17.277,5.8c-0.754-1.885-1.69-4.03-2.548-5.8h-2.34v9.062h1.651v-6.747c0.793,1.742,1.729,4.134,2.431,5.915h1.339c0.729-1.781,1.7-4.108,2.523-5.915v6.747h1.677v-9.062h-2.223C340.638,219.067,339.688,221.225,338.973,223.123Zm13.091,3.263h1.9c-1.014-2.418-2.34-6.149-3.263-9.062h-2.691c-1.1,2.7-2.431,6.358-3.276,9.062h1.794c0.208-.689.442-1.456,0.7-2.262h3.965C351.492,224.956,351.8,225.736,352.064,226.386Zm-2.626-7.6c0.351,1.17.793,2.535,1.261,3.874h-3.016c0.468-1.365.949-2.7,1.4-3.874h0.351Zm7.137,3.185v-3.185h2.561c0.7,0,1.079.533,1.079,1.638,0,1.027-.4,1.547-1.118,1.547h-2.522Zm0,4.42V223.4h3.042c1.742,0,2.483-1.4,2.483-2.964,0-1.768-.611-3.108-2.522-3.108h-4.719v9.062h1.716Zm14.6,0c-1.547-4.043-2.457-4.628-3.536-4.992a27.156,27.156,0,0,0,3.315-4.07h-2.08a31.213,31.213,0,0,1-3.549,4.369v-4.369h-1.716v9.062h1.716v-4.3c1.6,0.143,2.509.845,3.809,4.3h2.041Zm1.066-9.062v9.062h6.578V224.9h-4.862v-2.535h3.471V220.9h-3.471v-2.093h4.862v-1.483H372.24Zm11.739,9.062v-7.579h3.055v-1.483H379.2v1.483h3.055v7.579h1.729Zm8.1-9.283c-2.873,0-4.316.988-4.316,4.668,0,3.744,1.43,4.8,4.316,4.8s4.3-1.053,4.3-4.8C396.381,218.091,394.951,217.1,392.078,217.1Zm0,7.918c-1.989,0-2.483-.494-2.483-3.224s0.494-3.146,2.483-3.146,2.483,0.4,2.483,3.146S394.067,225.021,392.078,225.021Zm11.635-6.214v7.579h1.69v-9.062h-6.085a33.729,33.729,0,0,1-1.833,9.062h1.807a31.38,31.38,0,0,0,1.6-7.579h2.821Zm7.839-1.7c-2.874,0-4.317.988-4.317,4.668,0,3.744,1.43,4.8,4.317,4.8s4.3-1.053,4.3-4.8C415.855,218.091,414.425,217.1,411.552,217.1Zm0,7.918c-1.99,0-2.484-.494-2.484-3.224s0.494-3.146,2.484-3.146,2.483,0.4,2.483,3.146S413.541,225.021,411.552,225.021Zm7.864,1.365v-7.579h4.407v-1.483H417.7v9.062h1.716Zm10.088,0h1.9c-1.014-2.418-2.34-6.149-3.263-9.062h-2.691c-1.1,2.7-2.431,6.358-3.276,9.062h1.794c0.208-.689.442-1.456,0.7-2.262h3.965C428.932,224.956,429.244,225.736,429.5,226.386Zm-2.626-7.6c0.351,1.17.793,2.535,1.261,3.874h-3.016c0.468-1.365.949-2.7,1.4-3.874h0.351Zm39.545,2.99c0,3.692,1.378,4.8,4.251,4.8a10.947,10.947,0,0,0,2.6-.325l-0.377-1.534a6.724,6.724,0,0,1-1.924.286c-1.976,0-2.717-.429-2.717-3.211s0.741-3.12,2.717-3.12a6.724,6.724,0,0,1,1.924.286l0.377-1.509a10.935,10.935,0,0,0-2.6-.338C467.8,217.1,466.423,218.065,466.423,221.771Zm12.012-4.668c-2.873,0-4.316.988-4.316,4.668,0,3.744,1.43,4.8,4.316,4.8s4.3-1.053,4.3-4.8C482.738,218.091,481.308,217.1,478.435,217.1Zm0,7.918c-1.989,0-2.483-.494-2.483-3.224s0.494-3.146,2.483-3.146,2.483,0.4,2.483,3.146S480.424,225.021,478.435,225.021Zm7.514-2.665h1.482c1.17,0,1.677.325,1.677,1.352,0,0.975-.507,1.313-2.249,1.313a11.257,11.257,0,0,1-2.444-.273l-0.325,1.5a16.747,16.747,0,0,0,3.107.325c2.574,0,3.77-.663,3.77-2.626,0-1.365-.4-2.275-2.119-2.353,1.612-.143,1.911-0.975,1.911-2.171,0-1.639-.923-2.315-3.562-2.315a16.125,16.125,0,0,0-3.055.338l0.338,1.483a10.463,10.463,0,0,1,2.379-.286c1.69,0,2.08.286,2.08,1.1,0,0.884-.39,1.157-1.547,1.157h-1.443v1.456Zm14.651-5.032h-5.98a25.414,25.414,0,0,1-1.352,7.515h-1.43l0.286,3.549h1.508v-2h6.8v2h1.508l0.273-3.549H500.6v-7.515Zm-1.7,7.515h-3.77a25.761,25.761,0,0,0,1.066-6.032h2.7v6.032Zm10.53,1.547h1.9c-1.014-2.418-2.34-6.149-3.263-9.062h-2.691c-1.1,2.7-2.432,6.358-3.277,9.062h1.8c0.208-.689.442-1.456,0.7-2.262h3.965C508.855,224.956,509.167,225.736,509.427,226.386Zm-2.626-7.6c0.351,1.17.793,2.535,1.261,3.874h-3.016c0.468-1.365.949-2.7,1.4-3.874H506.8Zm7.136,3.588h3.875v4.017h1.69v-9.062h-1.69v3.459h-3.875v-3.459h-1.716v9.062h1.716v-4.017Zm15.614-5.045h-2.067c-1.223,2.263-2.6,4.577-4,6.839v-6.839h-1.69v9.062h2.249c1.326-2.067,2.639-4.342,3.836-6.552v6.552h1.677v-9.062Zm2.3,0v9.062h6.578V224.9h-4.862v-2.535h3.471V220.9h-3.471v-2.093h4.862v-1.483h-6.578Zm11.063,4.447c0,3.692,1.378,4.8,4.251,4.8a10.947,10.947,0,0,0,2.6-.325l-0.377-1.534a6.724,6.724,0,0,1-1.924.286c-1.976,0-2.717-.429-2.717-3.211s0.741-3.12,2.717-3.12a6.724,6.724,0,0,1,1.924.286l0.377-1.509a10.935,10.935,0,0,0-2.6-.338C544.292,217.1,542.914,218.065,542.914,221.771Zm14.222,4.615h1.9c-1.014-2.418-2.34-6.149-3.263-9.062H553.08c-1.105,2.7-2.431,6.358-3.276,9.062H551.6c0.208-.689.442-1.456,0.7-2.262h3.965C556.564,224.956,556.876,225.736,557.136,226.386Zm-2.626-7.6c0.351,1.17.793,2.535,1.261,3.874h-3.016c0.468-1.365.949-2.7,1.4-3.874h0.351Zm13.182-1.457h-2.067c-1.222,2.263-2.6,4.577-4,6.839v-6.839h-1.69v9.062h2.249c1.326-2.067,2.639-4.342,3.835-6.552v6.552h1.677v-9.062Zm-5.811-2.262a1.645,1.645,0,0,0,1.924,1.781c1.261,0,1.95-.546,1.95-1.781h-1.04c0,0.611-.312.754-0.871,0.754s-0.858-.143-0.858-0.754h-1.105Zm11.791,11.324v-7.579h3.055v-1.483h-7.839v1.483h3.055v7.579h1.729Zm8.1-9.283c-2.873,0-4.316.988-4.316,4.668,0,3.744,1.43,4.8,4.316,4.8s4.3-1.053,4.3-4.8C586.074,218.091,584.644,217.1,581.771,217.1Zm0,7.918c-1.989,0-2.483-.494-2.483-3.224s0.494-3.146,2.483-3.146,2.483,0.4,2.483,3.146S583.76,225.021,581.771,225.021Zm7.864-.078V222.33h2.809c0.624,0,.923.481,0.923,1.339,0,0.819-.247,1.274-0.871,1.274h-2.861Zm0-6.162h2.783c0.585,0,.78.338,0.78,1.066,0,0.676-.208,1.092-0.78,1.092h-2.783v-2.158Zm3.5,2.808c1.625-.143,1.885-0.9,1.885-2.093,0-1.327-.416-2.172-2.223-2.172h-4.876v9.062h4.954c1.456,0,2.34-.7,2.34-2.483C595.213,222.551,594.862,221.667,593.133,221.589Zm42.3,4.8v-7.579h3.055v-1.483h-7.839v1.483H633.7v7.579h1.729Zm4.238-9.062v9.062h6.578V224.9h-4.862v-2.535h3.471V220.9h-3.471v-2.093h4.862v-1.483h-6.578Zm9.113,0h-2.2c0.923,1.171,2.171,2.822,3.406,4.486-1.261,1.729-2.561,3.458-3.458,4.576h2.106c0.754-.949,1.56-2.015,2.405-3.133,0.806,1.118,1.56,2.2,2.21,3.133h2.132c-0.845-1.235-2.067-2.938-3.276-4.615,1.118-1.547,2.21-3.094,3.133-4.447h-2.106c-0.6.9-1.326,1.938-2.08,2.991C650.227,219.2,649.447,218.169,648.784,217.324Zm9.425,5.045h3.874v4.017h1.69v-9.062h-1.69v3.459h-3.874v-3.459h-1.716v9.062h1.716v-4.017Zm15.613-5.045h-2.067c-1.222,2.263-2.6,4.577-4,6.839v-6.839h-1.69v9.062h2.249c1.326-2.067,2.639-4.342,3.835-6.552v6.552h1.677v-9.062Zm6.968,4.135c0,0.546-.728.832-1.872,0.832-1.391,0-1.9-.286-1.9-1.7v-3.264H675.3v3.381c0,2.639,1.365,3.185,3.276,3.185a5.216,5.216,0,0,0,2.21-.416v2.912h1.716v-9.062H680.79v4.135Zm4-4.135v9.062h6.578V224.9H686.51v-2.535h3.471V220.9H686.51v-2.093h4.862v-1.483h-6.578Zm7.605,4.447c0,3.692,1.378,4.8,4.251,4.8a10.947,10.947,0,0,0,2.6-.325l-0.377-1.534a6.724,6.724,0,0,1-1.924.286c-1.976,0-2.717-.429-2.717-3.211s0.741-3.12,2.717-3.12a6.724,6.724,0,0,1,1.924.286l0.377-1.509a10.935,10.935,0,0,0-2.6-.338C693.777,217.1,692.4,218.065,692.4,221.771Zm15.717,4.615c-1.547-4.043-2.457-4.628-3.536-4.992a27.156,27.156,0,0,0,3.315-4.07h-2.08a31.213,31.213,0,0,1-3.549,4.369v-4.369H700.55v9.062h1.716v-4.3c1.6,0.143,2.509.845,3.809,4.3h2.041Zm7.137,0h1.9c-1.014-2.418-2.34-6.149-3.263-9.062H711.2c-1.105,2.7-2.431,6.358-3.276,9.062h1.794c0.208-.689.442-1.456,0.7-2.262h3.966C714.681,224.956,714.993,225.736,715.253,226.386Zm-2.626-7.6c0.351,1.17.793,2.535,1.261,3.874h-3.017c0.468-1.365.949-2.7,1.4-3.874h0.351Zm10.594,2.73H720.66a1.086,1.086,0,0,1-1.053-1.326c0-.949.377-1.4,1.014-1.4h2.6v2.73Zm-3.146.91c-1.066.169-1.651,0.663-2.821,3.965h1.976c0.91-3,1.508-3.458,2.548-3.458h1.443v3.458h1.717v-9.062h-4.72c-1.911,0-2.522,1.184-2.522,2.64A2.2,2.2,0,0,0,720.075,222.421Zm12.324-3.614h3.874v7.579h1.69v-9.062h-7.28v9.062H732.4v-7.579Zm11.713-1.7c-2.873,0-4.316.988-4.316,4.668,0,3.744,1.43,4.8,4.316,4.8s4.3-1.053,4.3-4.8C748.415,218.091,746.985,217.1,744.112,217.1Zm0,7.918c-1.989,0-2.483-.494-2.483-3.224s0.494-3.146,2.483-3.146,2.483,0.4,2.483,3.146S746.1,225.021,744.112,225.021Zm13.819-7.7h-5.98a25.414,25.414,0,0,1-1.352,7.515h-1.43l0.286,3.549h1.508v-2h6.8v2h1.508l0.273-3.549h-1.612v-7.515Zm-1.7,7.515h-3.77a25.761,25.761,0,0,0,1.066-6.032h2.7v6.032Zm12.129-7.515h-5.98a25.414,25.414,0,0,1-1.352,7.515H759.6l0.286,3.549h1.508v-2h6.8v2H769.7l0.273-3.549h-1.612v-7.515Zm-1.7,7.515h-3.77a25.761,25.761,0,0,0,1.066-6.032h2.7v6.032Zm4.459-7.515v9.062h6.578V224.9h-4.862v-2.535H776.3V220.9h-3.471v-2.093h4.862v-1.483h-6.578Zm9.776,4.642v-3.185h2.561c0.7,0,1.079.533,1.079,1.638,0,1.027-.4,1.547-1.118,1.547h-2.522Zm0,4.42V223.4h3.042c1.742,0,2.483-1.4,2.483-2.964,0-1.768-.611-3.108-2.522-3.108h-4.72v9.062h1.717Zm7.786,0c1.183-3.432,1.976-4.16,3.446-4.316v4.316h1.716V222.07c1.456,0.143,2.249.871,3.445,4.316h1.989c-1.43-4.043-2.262-4.628-3.25-4.992a28.434,28.434,0,0,0,3.042-4.07h-2.015a33.935,33.935,0,0,1-3.211,4.317v-4.317h-1.716v4.317a31.729,31.729,0,0,1-3.2-4.317h-2.028a28.057,28.057,0,0,0,3.055,4.07c-1,.364-1.833.949-3.25,4.992h1.976Zm19.227,0c-1.547-4.043-2.457-4.628-3.536-4.992a27.156,27.156,0,0,0,3.315-4.07H805.6a31.213,31.213,0,0,1-3.549,4.369v-4.369h-1.716v9.062h1.716v-4.3c1.6,0.143,2.509.845,3.809,4.3H807.9Zm7.137,0h1.9c-1.014-2.418-2.34-6.149-3.263-9.062h-2.691c-1.1,2.7-2.431,6.358-3.276,9.062H809.5c0.208-.689.442-1.456,0.7-2.262h3.965C814.467,224.956,814.779,225.736,815.039,226.386Zm-2.626-7.6c0.351,1.17.793,2.535,1.261,3.874h-3.016c0.468-1.365.949-2.7,1.4-3.874h0.351Zm47.566,7.6c-1.547-4.043-2.457-4.628-3.536-4.992a27.156,27.156,0,0,0,3.315-4.07h-2.08a31.213,31.213,0,0,1-3.549,4.369v-4.369h-1.716v9.062h1.716v-4.3c1.6,0.143,2.509.845,3.809,4.3h2.041Zm4.927-9.283c-2.873,0-4.316.988-4.316,4.668,0,3.744,1.43,4.8,4.316,4.8s4.3-1.053,4.3-4.8C869.209,218.091,867.779,217.1,864.906,217.1Zm0,7.918c-1.989,0-2.483-.494-2.483-3.224s0.494-3.146,2.483-3.146,2.483,0.4,2.483,3.146S866.9,225.021,864.906,225.021Zm7.865-2.652h3.874v4.017h1.69v-9.062h-1.69v3.459h-3.874v-3.459h-1.717v9.062h1.717v-4.017Zm11.53,4.017v-7.579h3.056v-1.483h-7.84v1.483h3.055v7.579H884.3Zm4.238-9.062v9.062h6.579V224.9h-4.863v-2.535h3.472V220.9h-3.472v-2.093h4.863v-1.483h-6.579Zm9.776,5.045h3.874v4.017h1.691v-9.062h-1.691v3.459h-3.874v-3.459H896.6v9.062h1.716v-4.017Zm11.531,4.017v-7.579H912.9v-1.483h-7.839v1.483h3.055v7.579h1.729Zm3.471-2.886h3.2v-1.534h-3.2V223.5Zm9.607-.377c-0.754-1.885-1.69-4.03-2.548-5.8h-2.34v9.062h1.651v-6.747c0.793,1.742,1.729,4.134,2.431,5.915h1.339c0.728-1.781,1.7-4.108,2.522-5.915v6.747h1.677v-9.062h-2.223C924.588,219.067,923.639,221.225,922.924,223.123Zm13.091,3.263h1.9c-1.014-2.418-2.34-6.149-3.263-9.062h-2.691c-1.1,2.7-2.431,6.358-3.276,9.062h1.794c0.208-.689.442-1.456,0.7-2.262h3.965C935.443,224.956,935.755,225.736,936.015,226.386Zm-2.626-7.6c0.351,1.17.793,2.535,1.261,3.874h-3.016c0.468-1.365.949-2.7,1.4-3.874h0.351Zm7.137,3.185v-3.185h2.561c0.7,0,1.079.533,1.079,1.638,0,1.027-.4,1.547-1.118,1.547h-2.522Zm0,4.42V223.4h3.042c1.742,0,2.483-1.4,2.483-2.964,0-1.768-.611-3.108-2.522-3.108H938.81v9.062h1.716Zm14.6,0c-1.547-4.043-2.457-4.628-3.536-4.992a27.156,27.156,0,0,0,3.315-4.07h-2.08a31.213,31.213,0,0,1-3.549,4.369v-4.369h-1.717v9.062h1.717v-4.3c1.6,0.143,2.509.845,3.809,4.3h2.041Zm1.065-9.062v9.062h6.579V224.9h-4.863v-2.535h3.472V220.9h-3.472v-2.093h4.863v-1.483H956.19Zm11.739,9.062v-7.579h3.055v-1.483h-7.839v1.483H966.2v7.579h1.729Zm12-9.062h-2.068c-1.222,2.263-2.6,4.577-4,6.839v-6.839h-1.69v9.062h2.249c1.326-2.067,2.639-4.342,3.835-6.552v6.552h1.678v-9.062Zm4.016,5.045h3.874v4.017h1.69v-9.062h-1.69v3.459h-3.874v-3.459h-1.716v9.062h1.716v-4.017Zm9.568,4.017v-7.579h4.407v-1.483H991.8v9.062h1.716Z" transform="translate(-201.969 -215.062)"/>
</svg>
