<svg xmlns="http://www.w3.org/2000/svg" width="245.031" height="49.906" viewBox="0 0 245.031 49.906">
  <metadata><?xpacket begin="﻿" id="W5M0MpCehiHzreSzNTczkc9d"?>
<x:xmpmeta xmlns:x="adobe:ns:meta/" x:xmptk="Adobe XMP Core 5.6-c142 79.160924, 2017/07/13-01:06:39        ">
   <rdf:RDF xmlns:rdf="http://www.w3.org/1999/02/22-rdf-syntax-ns#">
      <rdf:Description rdf:about=""/>
   </rdf:RDF>
</x:xmpmeta>
                                                                                                    
                                                                                                    
                                                                                                    
                                                                                                    
                                                                                                    
                                                                                                    
                                                                                                    
                                                                                                    
                                                                                                    
                                                                                                    
                                                                                                    
                                                                                                    
                                                                                                    
                                                                                                    
                                                                                                    
                                                                                                    
                                                                                                    
                                                                                                    
                                                                                                    
                                                                                                    
                           
<?xpacket end="w"?></metadata>
<defs>
    <style>
      .cls-1 {
        fill-rule: evenodd;
      }
    </style>
  </defs>
  <path id="мы_создаем_инструменты_продаж" data-name="мы создаем  инструменты продаж" class="cls-1" d="M208.373,115.134c-0.5-2.649-1.025-5.124-1.675-7.573h-4.524l-2.7,12.722h3.074l1.95-9.273c0.625,2.449,1.2,6.023,1.6,8.523h2.325c1.449-2.5,3.6-6,5.3-8.523l-1.949,9.273h3.074l2.7-12.722h-4.323C211.547,109.985,209.972,112.435,208.373,115.134Zm16.49,2.849h-3.749l0.725-3.424h3.7c0.974,0,1.374.45,1.124,1.675C226.387,117.483,225.813,117.983,224.863,117.983Zm-2.5-5.823,0.975-4.6h-3.1l-2.7,12.722h7.573c2.6,0,4.174-1.1,4.8-4.1,0.574-2.65-.475-4.024-3.075-4.024h-4.474Zm13.822-4.6h-3.1l-2.7,12.722h3.1Zm16.052,9.772a9.364,9.364,0,0,1-3.1.6c-2.249,0-3.174-.65-2.449-4.024,0.75-3.524,1.925-4.024,4.174-4.024a7.875,7.875,0,0,1,2.824.55l1.275-2.649a12.021,12.021,0,0,0-3.749-.6c-3.849,0-6.623,1.474-7.723,6.673-1.1,5.224,1,6.774,4.874,6.774a13.27,13.27,0,0,0,4-.65Zm6.7,3.3c4.1,0,6.423-1.55,7.523-6.774,1.1-5.2-.6-6.673-4.674-6.673-4.024,0-6.373,1.474-7.473,6.673C253.211,119.083,254.886,120.633,258.935,120.633Zm2.3-10.923c2.225,0,2.8.55,2.025,4.2-0.75,3.524-1.575,4.2-3.8,4.2-2.175,0-2.7-.675-1.95-4.2C258.285,110.26,259.06,109.71,261.234,109.71Zm8.894,5.024h1.949c1.925,0,2.65.375,2.4,1.575-0.25,1.249-.925,1.674-3.324,1.674a11.884,11.884,0,0,1-3.874-.6l-1.225,2.775a20,20,0,0,0,4.6.475c4.424,0,6.4-.825,7-3.725,0.425-1.924-.1-3.224-2.649-3.349,2.474-.2,3.324-1.349,3.7-3.1,0.5-2.4-.725-3.274-5.2-3.274a21.5,21.5,0,0,0-4.7.5l0.075,2.7a13.905,13.905,0,0,1,4-.55c2.15,0,2.625.35,2.425,1.3-0.2,1-.925,1.275-2.75,1.275H270.6Zm13.829-7.173a54.862,54.862,0,0,1-3.924,10.022h-2.274l-0.6,6.224h2.5l0.75-3.524h9.6l-0.75,3.524h2.474l2.025-6.224h-2.45l2.15-10.022h-9.5Zm5.824,2.7-1.575,7.323h-4.924a53.685,53.685,0,0,0,2.925-7.323h3.574Zm13.267,6.124c-0.2.949-1.474,1.524-2.849,1.524-1.6,0-2.3-.425-2.3-1.874a9.745,9.745,0,0,1,.3-2.1c0.749-3.6,1.6-4.2,3.8-4.2a6.781,6.781,0,0,1,2.374.425Zm-0.275,2.749a2.294,2.294,0,0,0,1.325,1.6l2.65-1.525a2.573,2.573,0,0,1-.75-1.825,4.948,4.948,0,0,1,.125-1l1.774-8.248a14.856,14.856,0,0,0-5.373-.95c-4.2,0-6.449,1.574-7.524,6.8a14.645,14.645,0,0,0-.35,2.849c0,2.875,1.525,3.75,4.274,3.75A5.63,5.63,0,0,0,302.773,119.133Zm15.36-1.65a16.676,16.676,0,0,1-3.674.525c-2.225,0-3.149-.55-2.6-3.274h8.223c1.524-6.174.075-7.548-3.949-7.548-3.7,0-6.274,1.574-7.349,6.673-1.1,5.224,1.075,6.774,4.749,6.774a17.372,17.372,0,0,0,4.574-.7Zm-2.349-7.848c1.774,0,2.324.475,1.949,2.725h-5.349C313.034,110.26,313.834,109.635,315.784,109.635Zm14.024,5.5c-0.5-2.649-1.025-5.124-1.675-7.573H323.61l-2.7,12.722h3.074l1.95-9.273c0.625,2.449,1.2,6.023,1.6,8.523h2.324c1.45-2.5,3.6-6,5.3-8.523l-1.95,9.273h3.074l2.7-12.722h-4.324C332.982,109.985,331.408,112.435,329.808,115.134Zm-122.06,37.149h3.1l2.7-12.722h-3.1a91.327,91.327,0,0,1-6.9,8.1l1.724-8.1h-3.1l-2.7,12.722h3.1a91.263,91.263,0,0,0,6.823-7.773Zm15-5.4-1.125,5.4h3.1l2.7-12.722h-3.1l-1,4.674h-5l1-4.674h-3.1l-2.7,12.722h3.1l1.125-5.4h5Zm14.159,2.449a9.353,9.353,0,0,1-3.1.6c-2.249,0-3.174-.65-2.449-4.024,0.75-3.524,1.924-4.024,4.174-4.024a7.879,7.879,0,0,1,2.824.55l1.275-2.649a12.026,12.026,0,0,0-3.749-.6c-3.849,0-6.624,1.474-7.723,6.673-1.1,5.224,1,6.774,4.873,6.774a13.259,13.259,0,0,0,4-.65Zm9.171-7.073h4.4l0.575-2.7H239.181l-0.575,2.7h4.374l-2.124,10.023h3.1Zm7.9-.025a8.269,8.269,0,0,1,2.55-.375c2.2,0,2.8.625,2.049,4.124-0.675,3.149-1.574,4.024-3.749,4.024-1.375,0-2.4-.475-2.249-1.225Zm-6.248,14.846h3.1l1.1-5.173a5.445,5.445,0,0,0,2.9.725c3.4,0,5.849-1.55,6.948-6.724,1.1-5.2-.474-6.723-4.673-6.723a18.384,18.384,0,0,0-5.774.95Zm16.776-4.174c-0.924,1.375-2.024,2.975-2.949,4.174h3.449c0.9-1.249,1.975-2.849,2.875-4.274,2.774-4.348,5.448-8.9,7.648-13.246h-3.15c-1.474,3.149-3.324,6.473-5.2,9.647a83.393,83.393,0,0,0-1.1-9.647h-3.224A107.562,107.562,0,0,1,264.51,152.907Zm18.051-5.773c-0.5-2.649-1.025-5.124-1.675-7.573h-4.523l-2.7,12.722h3.074l1.95-9.273c0.625,2.449,1.2,6.023,1.6,8.523h2.324c1.45-2.5,3.6-6,5.3-8.523l-1.95,9.273h3.074l2.7-12.722H287.41C285.735,141.985,284.161,144.435,282.561,147.134Zm19.259,2.349a16.668,16.668,0,0,1-3.674.525c-2.224,0-3.149-.55-2.6-3.274h8.223c1.525-6.174.075-7.548-3.949-7.548-3.7,0-6.274,1.574-7.348,6.673-1.1,5.224,1.074,6.774,4.749,6.774a17.365,17.365,0,0,0,4.573-.7Zm-2.349-7.848c1.775,0,2.324.475,1.95,2.725h-5.349C296.722,142.26,297.522,141.635,299.471,141.635Zm14.349,5.249-1.124,5.4h3.1l2.7-12.722h-3.1l-1,4.674h-5l1-4.674h-3.1l-2.7,12.722h3.1l1.125-5.4h5Zm12.05-4.624h4.4l0.575-2.7H318.972l-0.575,2.7h4.374l-2.124,10.023h3.1Zm10.088,7.723h-3.749l0.724-3.424h3.7c0.974,0,1.374.45,1.124,1.675C337.482,149.483,336.908,149.983,335.958,149.983Zm-2.5-5.823,0.975-4.6h-3.1l-2.7,12.722h7.573c2.6,0,4.174-1.1,4.8-4.1,0.574-2.65-.475-4.024-3.075-4.024h-4.474Zm13.822-4.6h-3.1l-2.7,12.722h3.1Zm11.628,2.7h5l-2.124,10.023h3.1l2.7-12.722h-11.2l-2.7,12.722h3.1Zm13.887-.025a8.267,8.267,0,0,1,2.549-.375c2.2,0,2.8.625,2.05,4.124-0.675,3.149-1.575,4.024-3.749,4.024-1.375,0-2.4-.475-2.25-1.225Zm-6.249,14.846h3.1l1.1-5.173a5.449,5.449,0,0,0,2.9.725c3.4,0,5.848-1.55,6.948-6.724,1.1-5.2-.475-6.723-4.674-6.723a18.378,18.378,0,0,0-5.773.95Zm20.226-4.448c4.1,0,6.424-1.55,7.523-6.774,1.1-5.2-.6-6.673-4.673-6.673-4.024,0-6.374,1.474-7.474,6.673C381.049,151.083,382.723,152.633,386.772,152.633Zm2.3-10.923c2.224,0,2.8.55,2.024,4.2-0.75,3.524-1.574,4.2-3.8,4.2-2.174,0-2.7-.675-1.949-4.2C386.122,142.26,386.9,141.71,389.072,141.71Zm10.8-2.149a54.934,54.934,0,0,1-3.924,10.022h-2.275l-0.6,6.224h2.5l0.75-3.524h9.6l-0.749,3.524h2.474l2.024-6.224h-2.449l2.15-10.022h-9.5Zm5.823,2.7-1.574,7.323H399.2a53.672,53.672,0,0,0,2.924-7.323H405.7Zm13.268,6.124c-0.2.949-1.475,1.524-2.849,1.524-1.6,0-2.3-.425-2.3-1.874a9.745,9.745,0,0,1,.3-2.1c0.75-3.6,1.6-4.2,3.8-4.2a6.783,6.783,0,0,1,2.375.425Zm-0.275,2.749a2.294,2.294,0,0,0,1.325,1.6l2.649-1.525a2.573,2.573,0,0,1-.75-1.825,4.948,4.948,0,0,1,.125-1l1.775-8.248a14.862,14.862,0,0,0-5.374-.95c-4.2,0-6.448,1.574-7.523,6.8a14.645,14.645,0,0,0-.35,2.849c0,2.875,1.525,3.75,4.274,3.75A5.632,5.632,0,0,0,418.691,151.133Zm7.082,1.15c2.874-4.374,4.6-5.524,6.073-5.9l-1.249,5.9h3.1l1.249-5.9c1.275,0.375,2.55,1.525,3.6,5.9h3.524c-1.275-5.6-2.35-6.374-3.449-6.874a52.033,52.033,0,0,0,5.873-5.848h-3.574c-2.424,2.649-4.624,4.924-5.824,6.048l1.3-6.048h-3.1l-1.3,6.048a66.7,66.7,0,0,1-3.2-6.048h-3.574a26.255,26.255,0,0,0,3.374,5.848c-1.3.5-2.749,1.275-6.373,6.874h3.549Z" transform="translate(-199.469 -107.188)"/>
</svg>
