<svg xmlns="http://www.w3.org/2000/svg" width="224.375" height="178.719" viewBox="0 0 224.375 178.719">
  <metadata><?xpacket begin="﻿" id="W5M0MpCehiHzreSzNTczkc9d"?>
<x:xmpmeta xmlns:x="adobe:ns:meta/" x:xmptk="Adobe XMP Core 5.6-c142 79.160924, 2017/07/13-01:06:39        ">
   <rdf:RDF xmlns:rdf="http://www.w3.org/1999/02/22-rdf-syntax-ns#">
      <rdf:Description rdf:about=""/>
   </rdf:RDF>
</x:xmpmeta>
                                                                                                    
                                                                                                    
                                                                                                    
                                                                                                    
                                                                                                    
                                                                                                    
                                                                                                    
                                                                                                    
                                                                                                    
                                                                                                    
                                                                                                    
                                                                                                    
                                                                                                    
                                                                                                    
                                                                                                    
                                                                                                    
                                                                                                    
                                                                                                    
                                                                                                    
                                                                                                    
                           
<?xpacket end="w"?></metadata>
<defs>
    <style>
      .cls-1 {
        fill-rule: evenodd;
      }
    </style>
  </defs>
  <path id="Проверка_качества_контента_Проверка_на_уникальность_Анализ_пози" data-name="Проверка качества контента Проверка на уникальность Анализ пози" class="cls-1" d="M130.354,623.337h4.81l-1.755,8.282h0.923l1.924-9.062h-6.669l-1.924,9.062H128.6Zm8.9,8.464a2.336,2.336,0,0,1-1.7-.546l-0.6,2.86H136.1l1.846-8.723a8.341,8.341,0,0,1,2.769-.52c2.028,0,2.808.754,2.249,3.432S141.291,631.8,139.25,631.8Zm1.3-6.123a6.206,6.206,0,0,0-1.872.273l-0.871,4.108c-0.13.611,0.637,0.936,1.612,0.936,1.534,0,2.145-.533,2.6-2.665C142.5,626.094,142.084,625.678,140.55,625.678Zm6.262,6.123c-2.041,0-2.808-.806-2.236-3.5s1.677-3.432,3.705-3.432,2.821,0.754,2.262,3.432S148.866,631.8,146.812,631.8Zm1.3-6.123c-1.534,0-2.132.416-2.613,2.652-0.455,2.132-.052,2.665,1.482,2.665s2.158-.533,2.613-2.665C150.075,626.094,149.659,625.678,148.112,625.678Zm7.233,5.161h-2.6l0.507-2.379h2.561c0.741,0,.949.481,0.78,1.274A1.137,1.137,0,0,1,155.345,630.839Zm0.559-3.12h-2.5l0.4-1.885h2.5c0.754,0,.91.234,0.767,0.9A1.079,1.079,0,0,1,155.9,627.719Zm0.494,0.351a1.539,1.539,0,0,0,1.6-1.456c0.182-.819.052-1.56-1.391-1.56h-3.471l-1.391,6.565h3.588a2.1,2.1,0,0,0,2.2-1.859C157.711,628.876,157.555,628.109,156.4,628.07Zm6.783-3.2c-1.95,0-3.133.858-3.679,3.432-0.572,2.691.338,3.5,2.327,3.5a9.5,9.5,0,0,0,2.223-.364l-0.026-.78a7.3,7.3,0,0,1-1.963.351c-1.521,0-2.093-.455-1.651-2.587h4.693C165.69,625.626,165.04,624.872,163.181,624.872Zm-0.169.793c1.209,0,1.56.351,1.287,1.989h-3.718C161.023,626.107,161.634,625.665,163.012,625.665Zm5.775,6.136a2.336,2.336,0,0,1-1.7-.546l-0.6,2.86h-0.845l1.846-8.723a8.341,8.341,0,0,1,2.769-.52c2.028,0,2.808.754,2.249,3.432S170.828,631.8,168.787,631.8Zm1.3-6.123a6.206,6.206,0,0,0-1.872.273l-0.871,4.108c-0.13.611,0.637,0.936,1.612,0.936,1.534,0,2.145-.533,2.6-2.665C172.037,626.094,171.621,625.678,170.087,625.678Zm8.838,5.941c-1.131-3.016-1.729-3.3-2.379-3.575a36.7,36.7,0,0,0,3.562-2.99h-1.092c-1.651,1.482-3.081,2.678-3.757,3.159l0.676-3.159H175.09l-1.391,6.565h0.845l0.676-3.211c0.858,0.143,1.755.624,2.665,3.211h1.04Zm3.687,0.182a3.285,3.285,0,0,0,2.171-.715,1.552,1.552,0,0,0,.442.806l0.767-.546a1.338,1.338,0,0,1-.39-0.949,2.582,2.582,0,0,1,.065-0.52l0.962-4.485a6.509,6.509,0,0,0-2.548-.52c-2.028,0-3.133.754-3.692,3.445a7.616,7.616,0,0,0-.182,1.482C180.207,631.307,181.013,631.8,182.612,631.8Zm1.3-6.123a5.13,5.13,0,0,1,1.755.273l-0.871,4.121c-0.13.6-1.04,0.923-2.015,0.923-1.131,0-1.638-.3-1.638-1.313a6.946,6.946,0,0,1,.182-1.352C181.793,626.107,182.378,625.678,183.912,625.678Zm12.844,5.941c-1.131-3.016-1.729-3.3-2.379-3.575a36.7,36.7,0,0,0,3.562-2.99h-1.092c-1.651,1.482-3.081,2.678-3.757,3.159l0.676-3.159h-0.845l-1.391,6.565h0.845l0.676-3.211c0.858,0.143,1.755.624,2.665,3.211h1.04Zm3.687,0.182a3.285,3.285,0,0,0,2.171-.715,1.552,1.552,0,0,0,.442.806l0.767-.546a1.338,1.338,0,0,1-.39-0.949,2.582,2.582,0,0,1,.065-0.52l0.962-4.485a6.509,6.509,0,0,0-2.548-.52c-2.028,0-3.133.754-3.692,3.445a7.616,7.616,0,0,0-.182,1.482C198.038,631.307,198.844,631.8,200.443,631.8Zm1.3-6.123a5.13,5.13,0,0,1,1.755.273l-0.871,4.121c-0.13.6-1.04,0.923-2.015,0.923-1.131,0-1.638-.3-1.638-1.313a6.946,6.946,0,0,1,.182-1.352C199.624,626.107,200.209,625.678,201.743,625.678Zm5.954,3.783a3.939,3.939,0,0,0,2.015-.533l-0.559,2.691H210l1.391-6.565h-0.845l-0.572,2.678c-0.13.6-1.079,0.923-2.015,0.923-1.313,0-1.639-.4-1.222-2.4l0.26-1.2h-0.846l-0.286,1.365C205.343,628.811,205.915,629.461,207.7,629.461Zm8.578-4.589c-1.95,0-3.133.858-3.679,3.432-0.572,2.691.338,3.5,2.327,3.5a9.5,9.5,0,0,0,2.223-.364l-0.026-.78a7.3,7.3,0,0,1-1.963.351c-1.521,0-2.093-.455-1.651-2.587H218.2C218.784,625.626,218.134,624.872,216.275,624.872Zm-0.169.793c1.209,0,1.56.351,1.287,1.989h-3.718C214.117,626.107,214.728,625.665,216.106,625.665Zm7.857,4.992A4.527,4.527,0,0,1,222.3,631c-1.534,0-2.132-.533-1.677-2.665,0.481-2.236,1.274-2.652,2.808-2.652a3.446,3.446,0,0,1,1.534.312l0.442-.793a5.721,5.721,0,0,0-1.807-.325c-2.028,0-3.341.754-3.9,3.432s0.39,3.5,2.431,3.5a5.874,5.874,0,0,0,1.937-.364Zm5.179-4.823h2.574l0.169-.78h-5.993l-0.169.78H228.3l-1.222,5.785h0.845Zm5.81,5.005h-2.6l0.507-2.379h2.561c0.741,0,.949.481,0.78,1.274A1.137,1.137,0,0,1,234.952,630.839Zm0.559-3.12h-2.5l0.4-1.885h2.5c0.754,0,.91.234,0.767,0.9A1.079,1.079,0,0,1,235.511,627.719Zm0.494,0.351a1.539,1.539,0,0,0,1.6-1.456c0.182-.819.052-1.56-1.391-1.56h-3.471l-1.391,6.565h3.588a2.1,2.1,0,0,0,2.2-1.859C237.318,628.876,237.162,628.109,236.005,628.07Zm5.33,3.731a3.285,3.285,0,0,0,2.171-.715,1.552,1.552,0,0,0,.442.806l0.767-.546a1.338,1.338,0,0,1-.39-0.949,2.582,2.582,0,0,1,.065-0.52l0.962-4.485a6.509,6.509,0,0,0-2.548-.52c-2.028,0-3.133.754-3.692,3.445a7.616,7.616,0,0,0-.182,1.482C238.93,631.307,239.736,631.8,241.335,631.8Zm1.3-6.123a5.13,5.13,0,0,1,1.755.273l-0.871,4.121c-0.13.6-1.04,0.923-2.015,0.923-1.131,0-1.638-.3-1.638-1.313a6.946,6.946,0,0,1,.182-1.352C240.516,626.107,241.1,625.678,242.635,625.678Zm12.844,5.941c-1.131-3.016-1.729-3.3-2.38-3.575a36.529,36.529,0,0,0,3.563-2.99H255.57c-1.651,1.482-3.082,2.678-3.758,3.159l0.676-3.159h-0.845l-1.391,6.565H251.1l0.676-3.211c0.858,0.143,1.756.624,2.666,3.211h1.04Zm3.729,0.182c-2.041,0-2.808-.806-2.236-3.5s1.677-3.432,3.705-3.432,2.821,0.754,2.262,3.432S261.262,631.8,259.208,631.8Zm1.3-6.123c-1.534,0-2.132.416-2.613,2.652-0.455,2.132-.052,2.665,1.482,2.665s2.158-.533,2.613-2.665C262.471,626.094,262.055,625.678,260.508,625.678Zm8.7,2.743-0.676,3.2h0.845l1.391-6.565h-0.845l-0.559,2.626h-3.549l0.559-2.626h-0.845l-1.391,6.565h0.845l0.676-3.2h3.549Zm5.673-2.587h2.574l0.169-.78h-5.993l-0.169.78h2.574l-1.222,5.785h0.845Zm6.291-.962c-1.95,0-3.133.858-3.679,3.432-0.572,2.691.338,3.5,2.327,3.5a9.5,9.5,0,0,0,2.223-.364l-0.026-.78a7.3,7.3,0,0,1-1.963.351c-1.521,0-2.093-.455-1.651-2.587H283.1C283.683,625.626,283.033,624.872,281.174,624.872Zm-0.169.793c1.209,0,1.56.351,1.287,1.989h-3.718C279.016,626.107,279.627,625.665,281.005,625.665Zm8.255,2.756-0.676,3.2h0.845l1.391-6.565h-0.845l-0.559,2.626h-3.549l0.559-2.626h-0.845l-1.391,6.565h0.845l0.676-3.2h3.549Zm5.673-2.587h2.574l0.169-.78h-5.993l-0.169.78h2.574l-1.222,5.785h0.845Zm4.853,5.967a3.285,3.285,0,0,0,2.171-.715,1.552,1.552,0,0,0,.442.806l0.767-.546a1.338,1.338,0,0,1-.39-0.949,2.582,2.582,0,0,1,.065-0.52l0.962-4.485a6.509,6.509,0,0,0-2.548-.52c-2.028,0-3.133.754-3.693,3.445a7.616,7.616,0,0,0-.182,1.482C297.38,631.307,298.187,631.8,299.786,631.8Zm1.3-6.123a5.13,5.13,0,0,1,1.755.273l-0.871,4.121c-0.13.6-1.04,0.923-2.015,0.923-1.131,0-1.638-.3-1.638-1.313a6.946,6.946,0,0,1,.182-1.352C298.967,626.107,299.552,625.678,301.086,625.678ZM130.354,651.337h4.81l-1.755,8.282h0.923l1.924-9.062h-6.669l-1.924,9.062H128.6Zm8.9,8.464a2.336,2.336,0,0,1-1.7-.546l-0.6,2.86H136.1l1.846-8.723a8.341,8.341,0,0,1,2.769-.52c2.028,0,2.808.754,2.249,3.432S141.291,659.8,139.25,659.8Zm1.3-6.123a6.206,6.206,0,0,0-1.872.273l-0.871,4.108c-0.13.611,0.637,0.936,1.612,0.936,1.534,0,2.145-.533,2.6-2.665C142.5,654.094,142.084,653.678,140.55,653.678Zm6.262,6.123c-2.041,0-2.808-.806-2.236-3.5s1.677-3.432,3.705-3.432,2.821,0.754,2.262,3.432S148.866,659.8,146.812,659.8Zm1.3-6.123c-1.534,0-2.132.416-2.613,2.652-0.455,2.132-.052,2.665,1.482,2.665s2.158-.533,2.613-2.665C150.075,654.094,149.659,653.678,148.112,653.678Zm7.233,5.161h-2.6l0.507-2.379h2.561c0.741,0,.949.481,0.78,1.274A1.137,1.137,0,0,1,155.345,658.839Zm0.559-3.12h-2.5l0.4-1.885h2.5c0.754,0,.91.234,0.767,0.9A1.079,1.079,0,0,1,155.9,655.719Zm0.494,0.351a1.539,1.539,0,0,0,1.6-1.456c0.182-.819.052-1.56-1.391-1.56h-3.471l-1.391,6.565h3.588a2.1,2.1,0,0,0,2.2-1.859C157.711,656.876,157.555,656.109,156.4,656.07Zm6.783-3.2c-1.95,0-3.133.858-3.679,3.432-0.572,2.691.338,3.5,2.327,3.5a9.5,9.5,0,0,0,2.223-.364l-0.026-.78a7.3,7.3,0,0,1-1.963.351c-1.521,0-2.093-.455-1.651-2.587h4.693C165.69,653.626,165.04,652.872,163.181,652.872Zm-0.169.793c1.209,0,1.56.351,1.287,1.989h-3.718C161.023,654.107,161.634,653.665,163.012,653.665Zm5.775,6.136a2.336,2.336,0,0,1-1.7-.546l-0.6,2.86h-0.845l1.846-8.723a8.341,8.341,0,0,1,2.769-.52c2.028,0,2.808.754,2.249,3.432S170.828,659.8,168.787,659.8Zm1.3-6.123a6.206,6.206,0,0,0-1.872.273l-0.871,4.108c-0.13.611,0.637,0.936,1.612,0.936,1.534,0,2.145-.533,2.6-2.665C172.037,654.094,171.621,653.678,170.087,653.678Zm8.838,5.941c-1.131-3.016-1.729-3.3-2.379-3.575a36.7,36.7,0,0,0,3.562-2.99h-1.092c-1.651,1.482-3.081,2.678-3.757,3.159l0.676-3.159H175.09l-1.391,6.565h0.845l0.676-3.211c0.858,0.143,1.755.624,2.665,3.211h1.04Zm3.687,0.182a3.285,3.285,0,0,0,2.171-.715,1.552,1.552,0,0,0,.442.806l0.767-.546a1.338,1.338,0,0,1-.39-0.949,2.582,2.582,0,0,1,.065-0.52l0.962-4.485a6.509,6.509,0,0,0-2.548-.52c-2.028,0-3.133.754-3.692,3.445a7.616,7.616,0,0,0-.182,1.482C180.207,659.307,181.013,659.8,182.612,659.8Zm1.3-6.123a5.13,5.13,0,0,1,1.755.273l-0.871,4.121c-0.13.6-1.04,0.923-2.015,0.923-1.131,0-1.638-.3-1.638-1.313a6.946,6.946,0,0,1,.182-1.352C181.793,654.107,182.378,653.678,183.912,653.678Zm12.688,2.743-0.676,3.2h0.845l1.391-6.565h-0.845l-0.559,2.626h-3.549l0.559-2.626h-0.845l-1.391,6.565h0.845l0.676-3.2H196.6Zm5,3.38a3.285,3.285,0,0,0,2.171-.715,1.552,1.552,0,0,0,.442.806l0.767-.546a1.338,1.338,0,0,1-.39-0.949,2.582,2.582,0,0,1,.065-0.52l0.962-4.485a6.509,6.509,0,0,0-2.548-.52c-2.028,0-3.133.754-3.692,3.445a7.616,7.616,0,0,0-.182,1.482C199.2,659.307,200,659.8,201.6,659.8Zm1.3-6.123a5.13,5.13,0,0,1,1.755.273l-0.871,4.121c-0.13.6-1.04,0.923-2.015,0.923-1.131,0-1.638-.3-1.638-1.313a6.946,6.946,0,0,1,.182-1.352C200.782,654.107,201.367,653.678,202.9,653.678Zm9.295,6.253a39.2,39.2,0,0,0-.949-6.877H212.2a42.726,42.726,0,0,1,.793,5.811,66.345,66.345,0,0,0,3.3-5.811h0.923c-1.131,2.2-2.457,4.381-3.835,6.565-0.52.819-1.209,1.82-1.716,2.5h-0.988C211.143,661.491,211.728,660.646,212.2,659.931Zm9.962-3.51-0.676,3.2h0.845l1.391-6.565h-0.845l-0.559,2.626h-3.55l0.559-2.626h-0.845l-1.391,6.565h0.845l0.676-3.2h3.55Zm6.694,3.2H229.7l1.392-6.565h-0.846c-1.534,1.9-3.107,3.731-4.693,5.343l1.144-5.343h-0.845l-1.391,6.565H225.3a65.22,65.22,0,0,0,4.641-5.161Zm8.2,0c-1.131-3.016-1.729-3.3-2.379-3.575a36.7,36.7,0,0,0,3.562-2.99h-1.092c-1.651,1.482-3.081,2.678-3.757,3.159l0.676-3.159H233.22l-1.391,6.565h0.845l0.676-3.211c0.858,0.143,1.755.624,2.665,3.211h1.04Zm3.687,0.182a3.285,3.285,0,0,0,2.171-.715,1.552,1.552,0,0,0,.442.806l0.767-.546a1.338,1.338,0,0,1-.39-0.949,2.582,2.582,0,0,1,.065-0.52l0.962-4.485a6.509,6.509,0,0,0-2.548-.52c-2.028,0-3.133.754-3.692,3.445a7.616,7.616,0,0,0-.182,1.482C238.337,659.307,239.143,659.8,240.742,659.8Zm1.3-6.123a5.13,5.13,0,0,1,1.755.273l-0.871,4.121c-0.13.6-1.04,0.923-2.015,0.923-1.131,0-1.638-.3-1.638-1.313a6.946,6.946,0,0,1,.182-1.352C239.923,654.107,240.508,653.678,242.042,653.678Zm8.64,0.156-1.222,5.785h0.845l1.391-6.565h-3.991a27.857,27.857,0,0,1-2.717,6.565h0.923a36.329,36.329,0,0,0,2.431-5.785h2.34Zm5.291,5.005h-2.535l0.52-2.418h2.535c0.741,0,1.014.286,0.832,1.17A1.252,1.252,0,0,1,255.973,658.839Zm-1.859-3.159,0.559-2.626h-0.845l-1.391,6.565h3.38a2.2,2.2,0,0,0,2.444-2.041c0.273-1.287-.182-1.9-1.612-1.9h-2.535Zm10.262,0.741-0.676,3.2h0.845l1.391-6.565h-0.845l-0.559,2.626h-3.549l0.559-2.626H260.7l-1.391,6.565h0.845l0.676-3.2h3.549Zm5,3.38c-2.041,0-2.808-.806-2.236-3.5s1.677-3.432,3.705-3.432,2.821,0.754,2.262,3.432S271.433,659.8,269.379,659.8Zm1.3-6.123c-1.534,0-2.132.416-2.613,2.652-0.455,2.132-.052,2.665,1.482,2.665s2.158-.533,2.613-2.665C272.642,654.094,272.226,653.678,270.679,653.678Zm8.31,4.979a4.527,4.527,0,0,1-1.664.338c-1.534,0-2.132-.533-1.677-2.665,0.481-2.236,1.274-2.652,2.808-2.652a3.446,3.446,0,0,1,1.534.312l0.442-.793a5.721,5.721,0,0,0-1.807-.325c-2.028,0-3.341.754-3.9,3.432s0.39,3.5,2.431,3.5a5.874,5.874,0,0,0,1.937-.364Zm5.179-4.823h2.574l0.169-.78h-5.993l-0.169.78h2.574l-1.222,5.785h0.845Zm5.744,5.005h-2.535l0.52-2.418h2.535c0.741,0,1.014.286,0.832,1.17A1.252,1.252,0,0,1,289.912,658.839Zm-1.859-3.159,0.559-2.626h-0.845l-1.391,6.565h3.38a2.205,2.205,0,0,0,2.445-2.041c0.273-1.287-.182-1.9-1.613-1.9h-2.535ZM133.89,687.619c-0.169-.871-0.351-1.807-0.507-2.8h-4.42c-0.52.923-1.027,1.846-1.521,2.8h-0.923c1.677-3.029,3.432-6.032,5.343-9.062h1.6c0.377,3.056.923,6.553,1.482,9.062H133.89Zm-1.612-8.334c-1,1.613-1.95,3.186-2.86,4.759h3.848c-0.234-1.534-.442-3.172-0.611-4.759h-0.377Zm8.849,5.136-0.676,3.2H141.3l1.391-6.565h-0.845l-0.559,2.626h-3.549l0.559-2.626h-0.845l-1.391,6.565H136.9l0.676-3.2h3.549Zm5,3.38a3.285,3.285,0,0,0,2.171-.715,1.552,1.552,0,0,0,.442.806l0.767-.546a1.338,1.338,0,0,1-.39-0.949,2.582,2.582,0,0,1,.065-0.52l0.962-4.485a6.509,6.509,0,0,0-2.548-.52c-2.028,0-3.133.754-3.692,3.445a7.616,7.616,0,0,0-.182,1.482C143.723,687.307,144.529,687.8,146.128,687.8Zm1.3-6.123a5.13,5.13,0,0,1,1.755.273l-0.871,4.121c-0.13.6-1.04,0.923-2.015,0.923-1.131,0-1.638-.3-1.638-1.313a6.946,6.946,0,0,1,.182-1.352C145.309,682.107,145.894,681.678,147.428,681.678Zm8.64,0.156-1.222,5.785h0.845l1.391-6.565h-3.991a27.857,27.857,0,0,1-2.717,6.565H151.3a36.329,36.329,0,0,0,2.431-5.785h2.34Zm6.149,5.785h0.845l1.391-6.565h-0.845c-1.534,1.9-3.107,3.731-4.693,5.343l1.144-5.343h-0.845l-1.391,6.565h0.845a65.22,65.22,0,0,0,4.641-5.161Zm6.2-3.523a1.873,1.873,0,0,0,1.937-1.612c0.234-1.066-.468-1.612-2.47-1.612a9.272,9.272,0,0,0-2.119.26l0.065,0.78a5.954,5.954,0,0,1,1.885-.26c1.5,0,1.885.286,1.742,1-0.169.806-.754,1.027-2.054,1.027h-0.975l-0.156.741h0.975c1.43,0,1.924.351,1.729,1.274-0.208.988-.754,1.326-2.405,1.326a5.11,5.11,0,0,1-1.833-.26l-0.416.767a7.048,7.048,0,0,0,2.093.273c1.976,0,3.107-.481,3.432-1.963C170.027,684.941,169.806,684.161,168.415,684.1Zm12.714-2.262-1.222,5.785h0.845l1.391-6.565H176.9l-1.391,6.565h0.845l1.222-5.785h3.549Zm4.458,5.967c-2.041,0-2.808-.806-2.236-3.5s1.677-3.432,3.705-3.432,2.821,0.754,2.262,3.432S187.641,687.8,185.587,687.8Zm1.3-6.123c-1.534,0-2.132.416-2.613,2.652-0.455,2.132-.052,2.665,1.482,2.665s2.158-.533,2.613-2.665C188.85,682.094,188.434,681.678,186.887,681.678Zm6.882,2.418a1.873,1.873,0,0,0,1.937-1.612c0.234-1.066-.468-1.612-2.47-1.612a9.272,9.272,0,0,0-2.119.26l0.065,0.78a5.954,5.954,0,0,1,1.885-.26c1.5,0,1.885.286,1.742,1-0.169.806-.754,1.027-2.054,1.027H191.78l-0.156.741H192.6c1.43,0,1.924.351,1.729,1.274-0.208.988-.754,1.326-2.405,1.326a5.11,5.11,0,0,1-1.833-.26l-0.416.767a7.048,7.048,0,0,0,2.093.273c1.976,0,3.107-.481,3.432-1.963C195.381,684.941,195.16,684.161,193.769,684.1Zm7.316,3.523h0.845l1.391-6.565h-0.845c-1.534,1.9-3.107,3.731-4.693,5.343l1.144-5.343h-0.845l-1.391,6.565h0.845a65.22,65.22,0,0,0,4.641-5.161Zm8.372-.78h1.2l-0.741,2.444h-0.637l0.364-1.664h-5.577l1.391-6.565H206.3l-1.235,5.785h3.549l1.235-5.785h0.845Zm6.695,0.78H217l1.391-6.565h-0.845c-1.534,1.9-3.107,3.731-4.693,5.343l1.144-5.343h-0.845l-1.391,6.565H212.6a65.22,65.22,0,0,0,4.641-5.161Zm7.371,0h0.845l1.391-6.565h-0.845c-1.534,1.9-3.107,3.731-4.693,5.343l1.144-5.343H220.52l-1.391,6.565h0.845a65.22,65.22,0,0,0,4.641-5.161Zm-2.184-9.062c-0.247,1.132.234,1.639,1.365,1.639a1.882,1.882,0,0,0,2.08-1.639h-0.676a1.036,1.036,0,0,1-1.235.9c-0.689,0-.988-0.169-0.832-0.9h-0.7Zm14.04,8.1a4.527,4.527,0,0,1-1.664.338c-1.534,0-2.132-.533-1.677-2.665,0.481-2.236,1.274-2.652,2.808-2.652a3.446,3.446,0,0,1,1.534.312l0.442-.793a5.721,5.721,0,0,0-1.807-.325c-2.028,0-3.341.754-3.9,3.432s0.39,3.5,2.431,3.5a5.874,5.874,0,0,0,1.937-.364Zm3.513,1.144a3.286,3.286,0,0,0,2.172-.715,1.552,1.552,0,0,0,.442.806l0.767-.546a1.338,1.338,0,0,1-.39-0.949,2.582,2.582,0,0,1,.065-0.52l0.962-4.485a6.509,6.509,0,0,0-2.548-.52c-2.029,0-3.134.754-3.693,3.445a7.616,7.616,0,0,0-.182,1.482C236.487,687.307,237.293,687.8,238.892,687.8Zm1.3-6.123a5.13,5.13,0,0,1,1.755.273l-0.871,4.121c-0.13.6-1.04,0.923-2.016,0.923-1.131,0-1.638-.3-1.638-1.313a6.946,6.946,0,0,1,.182-1.352C238.073,682.107,238.658,681.678,240.193,681.678Zm7.932,5.941h0.845l1.391-6.565h-0.845c-1.534,1.9-3.107,3.731-4.693,5.343l1.144-5.343h-0.845l-1.391,6.565h0.845a65.22,65.22,0,0,0,4.641-5.161Zm-2.184-9.062c-0.247,1.132.234,1.639,1.365,1.639a1.882,1.882,0,0,0,2.08-1.639H248.71a1.036,1.036,0,0,1-1.235.9c-0.689,0-.988-0.169-0.832-0.9h-0.7Zm8.533,3.277h2.574l0.169-.78h-5.993l-0.169.78h2.574l-1.222,5.785h0.845Zm4.867,5.967c-2.041,0-2.808-.806-2.236-3.5s1.677-3.432,3.7-3.432,2.821,0.754,2.262,3.432S261.4,687.8,259.341,687.8Zm1.3-6.123c-1.534,0-2.132.416-2.613,2.652-0.455,2.132-.052,2.665,1.482,2.665s2.158-.533,2.613-2.665C262.6,682.094,262.188,681.678,260.641,681.678Zm7.233,5.161h-2.6l0.507-2.379h2.561c0.741,0,.949.481,0.78,1.274A1.137,1.137,0,0,1,267.874,686.839Zm0.559-3.12h-2.5l0.4-1.885h2.5c0.754,0,.91.234,0.767,0.9A1.079,1.079,0,0,1,268.433,683.719Zm0.494,0.351a1.539,1.539,0,0,0,1.6-1.456c0.182-.819.052-1.56-1.391-1.56h-3.471l-1.391,6.565h3.588a2.1,2.1,0,0,0,2.2-1.859C270.24,684.876,270.084,684.109,268.927,684.07Zm2.88,0.364h2.743l0.156-.78h-2.743Zm9.08,3.185c-1.131-3.016-1.729-3.3-2.379-3.575a36.7,36.7,0,0,0,3.562-2.99h-1.092c-1.651,1.482-3.081,2.678-3.757,3.159l0.676-3.159h-0.845l-1.391,6.565h0.845l0.676-3.211c0.858,0.143,1.755.624,2.665,3.211h1.04Zm3.73,0.182c-2.041,0-2.808-.806-2.236-3.5s1.677-3.432,3.705-3.432,2.821,0.754,2.262,3.432S286.671,687.8,284.617,687.8Zm1.3-6.123c-1.534,0-2.132.416-2.613,2.652-0.455,2.132-.052,2.665,1.482,2.665s2.158-.533,2.613-2.665C287.88,682.094,287.464,681.678,285.917,681.678Zm8.7,2.743-0.676,3.2h0.845l1.391-6.565h-0.845l-0.559,2.626h-3.549l0.559-2.626H290.94l-1.391,6.565h0.845l0.676-3.2h3.549Zm7.527,3.2c-1.131-3.016-1.729-3.3-2.379-3.575a36.7,36.7,0,0,0,3.562-2.99h-1.092c-1.651,1.482-3.081,2.678-3.757,3.159l0.676-3.159h-0.845l-1.391,6.565h0.845l0.676-3.211c0.858,0.143,1.755.624,2.665,3.211h1.04Zm2.671,0.312a39.2,39.2,0,0,0-.949-6.877h0.949a42.726,42.726,0,0,1,.793,5.811,66.345,66.345,0,0,0,3.3-5.811h0.923c-1.131,2.2-2.457,4.381-3.835,6.565-0.52.819-1.209,1.82-1.716,2.5H303.3C303.764,689.491,304.349,688.646,304.817,687.931Zm7.22-.13a2.336,2.336,0,0,1-1.7-.546l-0.6,2.86h-0.845l1.846-8.723a8.341,8.341,0,0,1,2.769-.52c2.028,0,2.808.754,2.249,3.432S314.078,687.8,312.037,687.8Zm1.3-6.123a6.206,6.206,0,0,0-1.872.273l-0.871,4.108c-0.13.611,0.637,0.936,1.612,0.936,1.534,0,2.145-.533,2.6-2.665C315.287,682.094,314.871,681.678,313.337,681.678Zm7.7-.806c-1.95,0-3.133.858-3.679,3.432-0.572,2.691.338,3.5,2.327,3.5a9.5,9.5,0,0,0,2.223-.364l-0.026-.78a7.3,7.3,0,0,1-1.963.351c-1.521,0-2.093-.455-1.651-2.587h4.693C323.551,681.626,322.9,680.872,321.042,680.872Zm-0.169.793c1.209,0,1.56.351,1.287,1.989h-3.718C318.884,682.107,319.5,681.665,320.873,681.665Zm8.255,2.756-0.676,3.2H329.3l1.391-6.565h-0.845l-0.559,2.626h-3.549l0.559-2.626h-0.845l-1.391,6.565H324.9l0.676-3.2h3.549Zm5.673-2.587h2.574l0.169-.78h-5.993l-0.169.78h2.574l-1.222,5.785h0.845Zm4.867,5.967c-2.041,0-2.808-.806-2.236-3.5s1.677-3.432,3.7-3.432,2.821,0.754,2.262,3.432S341.722,687.8,339.668,687.8Zm1.3-6.123c-1.534,0-2.132.416-2.613,2.652C337.9,686.462,338.3,687,339.837,687s2.158-.533,2.613-2.665C342.931,682.094,342.515,681.678,340.968,681.678Zm7.233,5.161h-2.6l0.507-2.379h2.561c0.741,0,.949.481,0.78,1.274A1.137,1.137,0,0,1,348.2,686.839Zm0.559-3.12h-2.5l0.4-1.885h2.5c0.754,0,.91.234,0.767,0.9A1.079,1.079,0,0,1,348.76,683.719Zm0.494,0.351a1.539,1.539,0,0,0,1.6-1.456c0.182-.819.052-1.56-1.391-1.56h-3.471l-1.391,6.565h3.588a2.1,2.1,0,0,0,2.2-1.859C350.567,684.876,350.411,684.109,349.254,684.07ZM133.89,715.619c-0.169-.871-0.351-1.807-0.507-2.8h-4.42c-0.52.923-1.027,1.846-1.521,2.8h-0.923c1.677-3.029,3.432-6.032,5.343-9.062h1.6c0.377,3.056.923,6.553,1.482,9.062H133.89Zm-1.612-8.334c-1,1.613-1.95,3.186-2.86,4.759h3.848c-0.234-1.534-.442-3.172-0.611-4.759h-0.377Zm8.849,5.136-0.676,3.2H141.3l1.391-6.565h-0.845l-0.559,2.626h-3.549l0.559-2.626h-0.845l-1.391,6.565H136.9l0.676-3.2h3.549Zm5,3.38a3.285,3.285,0,0,0,2.171-.715,1.552,1.552,0,0,0,.442.806l0.767-.546a1.338,1.338,0,0,1-.39-0.949,2.582,2.582,0,0,1,.065-0.52l0.962-4.485a6.509,6.509,0,0,0-2.548-.52c-2.028,0-3.133.754-3.692,3.445a7.616,7.616,0,0,0-.182,1.482C143.723,715.307,144.529,715.8,146.128,715.8Zm1.3-6.123a5.13,5.13,0,0,1,1.755.273l-0.871,4.121c-0.13.6-1.04,0.923-2.015,0.923-1.131,0-1.638-.3-1.638-1.313a6.946,6.946,0,0,1,.182-1.352C145.309,710.107,145.894,709.678,147.428,709.678Zm8.64,0.156-1.222,5.785h0.845l1.391-6.565h-3.991a27.857,27.857,0,0,1-2.717,6.565H151.3a36.329,36.329,0,0,0,2.431-5.785h2.34Zm6.149,5.785h0.845l1.391-6.565h-0.845c-1.534,1.9-3.107,3.731-4.693,5.343l1.144-5.343h-0.845l-1.391,6.565h0.845a65.22,65.22,0,0,0,4.641-5.161Zm6.2-3.523a1.873,1.873,0,0,0,1.937-1.612c0.234-1.066-.468-1.612-2.47-1.612a9.272,9.272,0,0,0-2.119.26l0.065,0.78a5.954,5.954,0,0,1,1.885-.26c1.5,0,1.885.286,1.742,1-0.169.806-.754,1.027-2.054,1.027h-0.975l-0.156.741h0.975c1.43,0,1.924.351,1.729,1.274-0.208.988-.754,1.326-2.405,1.326a5.11,5.11,0,0,1-1.833-.26l-0.416.767a7.048,7.048,0,0,0,2.093.273c1.976,0,3.107-.481,3.432-1.963C170.027,712.941,169.806,712.161,168.415,712.1Zm11.9,2.561a4.527,4.527,0,0,1-1.664.338c-1.534,0-2.132-.533-1.677-2.665,0.481-2.236,1.274-2.652,2.808-2.652a3.446,3.446,0,0,1,1.534.312l0.442-.793a5.721,5.721,0,0,0-1.807-.325c-2.028,0-3.341.754-3.9,3.432s0.39,3.5,2.431,3.5a5.874,5.874,0,0,0,1.937-.364Zm5.53,0a4.527,4.527,0,0,1-1.664.338c-1.534,0-2.132-.533-1.677-2.665,0.481-2.236,1.274-2.652,2.808-2.652a3.446,3.446,0,0,1,1.534.312l0.442-.793a5.721,5.721,0,0,0-1.807-.325c-2.028,0-3.341.754-3.9,3.432s0.39,3.5,2.431,3.5a5.874,5.874,0,0,0,1.937-.364Zm4.5,0.182h-2.535l0.52-2.418h2.535c0.741,0,1.014.286,0.832,1.17A1.252,1.252,0,0,1,190.343,714.839Zm-1.859-3.159,0.559-2.626H188.2l-1.391,6.565h3.38a2.2,2.2,0,0,0,2.444-2.041c0.273-1.287-.182-1.9-1.612-1.9h-2.535Zm6.851-2.626H194.49l-1.391,6.565h0.845Zm5.838,0.78-1.222,5.785H200.8l1.391-6.565H198.2a27.857,27.857,0,0,1-2.717,6.565H196.4a36.329,36.329,0,0,0,2.431-5.785h2.34Zm4.458,5.967c-2.041,0-2.808-.806-2.236-3.5s1.677-3.432,3.7-3.432,2.821,0.754,2.262,3.432S207.685,715.8,205.631,715.8Zm1.3-6.123c-1.534,0-2.132.416-2.613,2.652-0.455,2.132-.052,2.665,1.482,2.665s2.158-.533,2.613-2.665C208.894,710.094,208.478,709.678,206.931,709.678Zm8.858,5.941c-1.131-3.016-1.729-3.3-2.379-3.575a36.7,36.7,0,0,0,3.562-2.99H215.88c-1.651,1.482-3.081,2.678-3.757,3.159l0.676-3.159h-0.845l-1.391,6.565h0.845l0.676-3.211c0.858,0.143,1.755.624,2.665,3.211h1.04Zm8.827-.78h-2.6l0.507-2.379h2.561c0.741,0,.949.481,0.78,1.274A1.137,1.137,0,0,1,224.616,714.839Zm0.559-3.12h-2.5l0.4-1.885h2.5c0.754,0,.91.234,0.767,0.9A1.079,1.079,0,0,1,225.175,711.719Zm0.494,0.351a1.539,1.539,0,0,0,1.6-1.456c0.182-.819.052-1.56-1.391-1.56h-3.471l-1.391,6.565H224.6a2.1,2.1,0,0,0,2.2-1.859C226.982,712.876,226.826,712.109,225.669,712.07Zm10.53-2.236h2.574l0.169-.78h-5.993l-0.169.78h2.574l-1.222,5.785h0.845Zm6.29-.962c-1.95,0-3.133.858-3.679,3.432-0.572,2.691.338,3.5,2.327,3.5a9.5,9.5,0,0,0,2.223-.364l-0.026-.78a7.3,7.3,0,0,1-1.963.351c-1.521,0-2.093-.455-1.651-2.587h4.693C245,709.626,244.348,708.872,242.489,708.872Zm-0.169.793c1.209,0,1.56.351,1.287,1.989h-3.718C240.331,710.107,240.942,709.665,242.32,709.665Zm4.576-.611-1.391,6.565h0.845l1.222-5.785H250.9l0.169-.78H246.9Zm6.232,6.747a3.285,3.285,0,0,0,2.171-.715,1.552,1.552,0,0,0,.442.806l0.767-.546a1.338,1.338,0,0,1-.39-0.949,2.582,2.582,0,0,1,.065-0.52l0.962-4.485a6.509,6.509,0,0,0-2.548-.52c-2.028,0-3.133.754-3.692,3.445a7.616,7.616,0,0,0-.182,1.482C250.723,715.307,251.529,715.8,253.128,715.8Zm1.3-6.123a5.13,5.13,0,0,1,1.755.273l-0.871,4.121c-0.13.6-1.04,0.923-2.015,0.923-1.131,0-1.638-.3-1.638-1.313a6.946,6.946,0,0,1,.182-1.352C252.309,710.107,252.894,709.678,254.428,709.678Zm8.658,5.941c-0.507-1.118-1.053-2.262-1.612-3.328,1.04-1.079,2.028-2.158,2.99-3.237h-1.027c-0.676.78-1.443,1.664-2.314,2.574-0.468-.923-0.975-1.794-1.43-2.574h-1.17c0.65,1,1.339,2.132,1.937,3.276-1.053,1.092-2.184,2.223-3.328,3.289h1.04c0.884-.871,1.768-1.742,2.639-2.639,0.455,0.9.871,1.807,1.222,2.639h1.053ZM130.354,735.337h4.81l-1.755,8.282h0.923l1.924-9.062h-6.669l-1.924,9.062H128.6Zm8.9,8.464a2.336,2.336,0,0,1-1.7-.546l-0.6,2.86H136.1l1.846-8.723a8.341,8.341,0,0,1,2.769-.52c2.028,0,2.808.754,2.249,3.432S141.291,743.8,139.25,743.8Zm1.3-6.123a6.206,6.206,0,0,0-1.872.273l-0.871,4.108c-0.13.611,0.637,0.936,1.612,0.936,1.534,0,2.145-.533,2.6-2.665C142.5,738.094,142.084,737.678,140.55,737.678Zm6.262,6.123c-2.041,0-2.808-.806-2.236-3.5s1.677-3.432,3.705-3.432,2.821,0.754,2.262,3.432S148.866,743.8,146.812,743.8Zm1.3-6.123c-1.534,0-2.132.416-2.613,2.652-0.455,2.132-.052,2.665,1.482,2.665s2.158-.533,2.613-2.665C150.075,738.094,149.659,737.678,148.112,737.678Zm7.233,5.161h-2.6l0.507-2.379h2.561c0.741,0,.949.481,0.78,1.274A1.137,1.137,0,0,1,155.345,742.839Zm0.559-3.12h-2.5l0.4-1.885h2.5c0.754,0,.91.234,0.767,0.9A1.079,1.079,0,0,1,155.9,739.719Zm0.494,0.351a1.539,1.539,0,0,0,1.6-1.456c0.182-.819.052-1.56-1.391-1.56h-3.471l-1.391,6.565h3.588a2.1,2.1,0,0,0,2.2-1.859C157.711,740.876,157.555,740.109,156.4,740.07Zm6.783-3.2c-1.95,0-3.133.858-3.679,3.432-0.572,2.691.338,3.5,2.327,3.5a9.5,9.5,0,0,0,2.223-.364l-0.026-.78a7.3,7.3,0,0,1-1.963.351c-1.521,0-2.093-.455-1.651-2.587h4.693C165.69,737.626,165.04,736.872,163.181,736.872Zm-0.169.793c1.209,0,1.56.351,1.287,1.989h-3.718C161.023,738.107,161.634,737.665,163.012,737.665Zm5.775,6.136a2.336,2.336,0,0,1-1.7-.546l-0.6,2.86h-0.845l1.846-8.723a8.341,8.341,0,0,1,2.769-.52c2.028,0,2.808.754,2.249,3.432S170.828,743.8,168.787,743.8Zm1.3-6.123a6.206,6.206,0,0,0-1.872.273l-0.871,4.108c-0.13.611,0.637,0.936,1.612,0.936,1.534,0,2.145-.533,2.6-2.665C172.037,738.094,171.621,737.678,170.087,737.678Zm8.838,5.941c-1.131-3.016-1.729-3.3-2.379-3.575a36.7,36.7,0,0,0,3.562-2.99h-1.092c-1.651,1.482-3.081,2.678-3.757,3.159l0.676-3.159H175.09l-1.391,6.565h0.845l0.676-3.211c0.858,0.143,1.755.624,2.665,3.211h1.04Zm3.687,0.182a3.285,3.285,0,0,0,2.171-.715,1.552,1.552,0,0,0,.442.806l0.767-.546a1.338,1.338,0,0,1-.39-0.949,2.582,2.582,0,0,1,.065-0.52l0.962-4.485a6.509,6.509,0,0,0-2.548-.52c-2.028,0-3.133.754-3.692,3.445a7.616,7.616,0,0,0-.182,1.482C180.207,743.307,181.013,743.8,182.612,743.8Zm1.3-6.123a5.13,5.13,0,0,1,1.755.273l-0.871,4.121c-0.13.6-1.04,0.923-2.015,0.923-1.131,0-1.638-.3-1.638-1.313a6.946,6.946,0,0,1,.182-1.352C181.793,738.107,182.378,737.678,183.912,737.678Zm12.688,2.743-0.676,3.2h0.845l1.391-6.565h-0.845l-0.559,2.626h-3.549l0.559-2.626h-0.845l-1.391,6.565h0.845l0.676-3.2H196.6Zm5,3.38a3.285,3.285,0,0,0,2.171-.715,1.552,1.552,0,0,0,.442.806l0.767-.546a1.338,1.338,0,0,1-.39-0.949,2.582,2.582,0,0,1,.065-0.52l0.962-4.485a6.509,6.509,0,0,0-2.548-.52c-2.028,0-3.133.754-3.692,3.445a7.616,7.616,0,0,0-.182,1.482C199.2,743.307,200,743.8,201.6,743.8Zm1.3-6.123a5.13,5.13,0,0,1,1.755.273l-0.871,4.121c-0.13.6-1.04,0.923-2.015,0.923-1.131,0-1.638-.3-1.638-1.313a6.946,6.946,0,0,1,.182-1.352C200.782,738.107,201.367,737.678,202.9,737.678Zm11.4,0.156h2.574l0.169-.78h-5.993l-0.169.78h2.574l-1.222,5.785h0.845Zm4.828,5.967a2.336,2.336,0,0,1-1.7-.546l-0.6,2.86h-0.845l1.846-8.723a8.341,8.341,0,0,1,2.769-.52c2.028,0,2.808.754,2.249,3.432S221.171,743.8,219.13,743.8Zm1.3-6.123a6.206,6.206,0,0,0-1.872.273l-0.871,4.108c-0.13.611,0.637,0.936,1.612,0.936,1.534,0,2.145-.533,2.6-2.665C222.38,738.094,221.964,737.678,220.43,737.678Zm6.279,6.123a3.285,3.285,0,0,0,2.171-.715,1.552,1.552,0,0,0,.442.806l0.767-.546a1.338,1.338,0,0,1-.39-0.949,2.582,2.582,0,0,1,.065-0.52l0.962-4.485a6.509,6.509,0,0,0-2.548-.52c-2.028,0-3.133.754-3.692,3.445a7.616,7.616,0,0,0-.182,1.482C224.3,743.307,225.11,743.8,226.709,743.8Zm1.3-6.123a5.13,5.13,0,0,1,1.755.273l-0.871,4.121c-0.13.6-1.04,0.923-2.015,0.923-1.131,0-1.638-.3-1.638-1.313a6.946,6.946,0,0,1,.182-1.352C225.89,738.107,226.475,737.678,228.009,737.678Zm8.227,4.979a4.527,4.527,0,0,1-1.664.338c-1.534,0-2.132-.533-1.677-2.665,0.481-2.236,1.274-2.652,2.808-2.652a3.446,3.446,0,0,1,1.534.312l0.442-.793a5.721,5.721,0,0,0-1.807-.325c-2.028,0-3.341.754-3.9,3.432s0.39,3.5,2.431,3.5a5.874,5.874,0,0,0,1.937-.364Zm5.179-4.823h2.574l0.169-.78h-5.993l-0.169.78h2.574l-1.222,5.785h0.845Zm4.867,5.967c-2.041,0-2.808-.806-2.236-3.5s1.677-3.432,3.705-3.432,2.821,0.754,2.262,3.432S248.336,743.8,246.282,743.8Zm1.3-6.123c-1.534,0-2.132.416-2.613,2.652-0.455,2.132-.052,2.665,1.482,2.665s2.158-.533,2.613-2.665C249.545,738.094,249.129,737.678,247.582,737.678Zm7.233,5.161h-2.6l0.507-2.379h2.561c0.742,0,.95.481,0.781,1.274A1.138,1.138,0,0,1,254.815,742.839Zm0.559-3.12h-2.5l0.4-1.885h2.5c0.755,0,.911.234,0.768,0.9A1.079,1.079,0,0,1,255.374,739.719Zm0.494,0.351a1.54,1.54,0,0,0,1.6-1.456c0.182-.819.052-1.56-1.391-1.56h-3.472l-1.391,6.565H254.8a2.1,2.1,0,0,0,2.2-1.859C257.182,740.876,257.026,740.109,255.868,740.07Zm5.341,3.731c-2.041,0-2.808-.806-2.236-3.5s1.677-3.432,3.7-3.432,2.821,0.754,2.262,3.432S263.263,743.8,261.209,743.8Zm1.3-6.123c-1.534,0-2.132.416-2.613,2.652-0.455,2.132-.052,2.665,1.482,2.665s2.158-.533,2.613-2.665C264.472,738.094,264.056,737.678,262.509,737.678Zm8.309,4.979a4.527,4.527,0,0,1-1.664.338c-1.534,0-2.132-.533-1.677-2.665,0.481-2.236,1.274-2.652,2.808-2.652a3.446,3.446,0,0,1,1.534.312l0.442-.793a5.721,5.721,0,0,0-1.807-.325c-2.028,0-3.341.754-3.9,3.432s0.39,3.5,2.431,3.5a5.874,5.874,0,0,0,1.937-.364ZM276,737.834h2.574l0.169-.78h-5.993l-0.169.78h2.574l-1.222,5.785h0.845Zm5.745,5.005h-2.535l0.52-2.418h2.535c0.741,0,1.014.286,0.832,1.17A1.252,1.252,0,0,1,281.742,742.839Zm-1.859-3.159,0.559-2.626H279.6l-1.391,6.565h3.38a2.2,2.2,0,0,0,2.444-2.041c0.273-1.287-.182-1.9-1.612-1.9h-2.535ZM131.238,771.8c-2.821,0-3.9-1.014-3.107-4.758,0.793-3.693,2.3-4.707,5.109-4.707s3.913,1.014,3.12,4.707C135.567,770.787,134.072,771.8,131.238,771.8Zm1.833-8.672c-2.3,0-3.224.612-3.926,3.94-0.676,3.159-.039,3.913,2.262,3.913,2.327,0,3.289-.754,3.965-3.913C136.074,763.741,135.4,763.129,133.071,763.129Zm9.642,7.71h1.2l-0.741,2.444h-0.637l0.364-1.664h-5.577l1.391-6.565h0.845l-1.235,5.785h3.549l1.235-5.785h0.845Zm6.377-5.967c-1.951,0-3.134.858-3.68,3.432-0.572,2.691.338,3.5,2.327,3.5a9.5,9.5,0,0,0,2.224-.364l-0.026-.78a7.3,7.3,0,0,1-1.964.351c-1.521,0-2.093-.455-1.651-2.587h4.694C151.6,765.626,150.949,764.872,149.09,764.872Zm-0.169.793c1.209,0,1.56.351,1.287,1.989h-3.719C146.931,766.107,147.542,765.665,148.921,765.665Zm8.254,2.756-0.676,3.2h0.845l1.391-6.565H157.89l-0.559,2.626h-3.549l0.559-2.626H153.5l-1.391,6.565h0.845l0.676-3.2h3.549Zm7.527,3.2c-1.131-3.016-1.729-3.3-2.379-3.575a36.7,36.7,0,0,0,3.562-2.99h-1.092c-1.651,1.482-3.081,2.678-3.757,3.159l0.676-3.159h-0.845l-1.391,6.565h0.845L161,768.408c0.858,0.143,1.755.624,2.665,3.211h1.04Zm3.687,0.182a3.285,3.285,0,0,0,2.171-.715,1.552,1.552,0,0,0,.442.806l0.767-.546a1.338,1.338,0,0,1-.39-0.949,2.582,2.582,0,0,1,.065-0.52l0.962-4.485a6.509,6.509,0,0,0-2.548-.52c-2.028,0-3.133.754-3.692,3.445a7.616,7.616,0,0,0-.182,1.482C165.984,771.307,166.79,771.8,168.389,771.8Zm1.3-6.123a5.13,5.13,0,0,1,1.755.273l-0.871,4.121c-0.13.6-1.04,0.923-2.015,0.923-1.131,0-1.638-.3-1.638-1.313a6.946,6.946,0,0,1,.182-1.352C167.57,766.107,168.155,765.678,169.689,765.678Zm13.234,0.156-1.222,5.785h0.845l1.391-6.565H178.7l-1.391,6.565h0.845l1.222-5.785h3.549Zm4.457,5.967c-2.041,0-2.808-.806-2.236-3.5s1.677-3.432,3.7-3.432,2.822,0.754,2.263,3.432S189.435,771.8,187.38,771.8Zm1.3-6.123c-1.534,0-2.132.416-2.613,2.652-0.455,2.132-.052,2.665,1.482,2.665s2.159-.533,2.614-2.665C190.644,766.094,190.228,765.678,188.68,765.678Zm8.31,4.979a4.527,4.527,0,0,1-1.664.338c-1.534,0-2.132-.533-1.677-2.665,0.481-2.236,1.274-2.652,2.808-2.652a3.446,3.446,0,0,1,1.534.312l0.442-.793a5.721,5.721,0,0,0-1.807-.325c-2.028,0-3.341.754-3.9,3.432s0.39,3.5,2.431,3.5a5.874,5.874,0,0,0,1.937-.364Zm4.952-5.785c-1.951,0-3.134.858-3.68,3.432-0.572,2.691.338,3.5,2.327,3.5a9.5,9.5,0,0,0,2.224-.364l-0.026-.78a7.3,7.3,0,0,1-1.964.351c-1.521,0-2.093-.455-1.651-2.587h4.694C204.451,765.626,203.8,764.872,201.942,764.872Zm-0.169.793c1.209,0,1.56.351,1.287,1.989h-3.719C199.783,766.107,200.394,765.665,201.773,765.665Zm11.778,5.954h-8.594l1.391-6.565h0.845l-1.235,5.785h2.86l1.235-5.785H210.9l-1.235,5.785h2.861l1.235-5.785H214.6l-1.235,5.785h1.2l-0.741,2.444h-0.637Zm4.783,0.182a3.285,3.285,0,0,0,2.171-.715,1.552,1.552,0,0,0,.442.806l0.767-.546a1.338,1.338,0,0,1-.39-0.949,2.582,2.582,0,0,1,.065-0.52l0.962-4.485a6.509,6.509,0,0,0-2.548-.52c-2.028,0-3.133.754-3.692,3.445a7.616,7.616,0,0,0-.182,1.482C215.929,771.307,216.735,771.8,218.334,771.8Zm1.3-6.123a5.13,5.13,0,0,1,1.755.273l-0.871,4.121c-0.13.6-1.04,0.923-2.015,0.923-1.131,0-1.638-.3-1.638-1.313a6.946,6.946,0,0,1,.182-1.352C217.515,766.107,218.1,765.678,219.634,765.678Zm7.644-.806c-1.95,0-3.133.858-3.679,3.432-0.572,2.691.338,3.5,2.327,3.5a9.5,9.5,0,0,0,2.223-.364l-0.026-.78a7.3,7.3,0,0,1-1.963.351c-1.521,0-2.093-.455-1.651-2.587H229.2C229.787,765.626,229.137,764.872,227.278,764.872Zm-0.169.793c1.209,0,1.56.351,1.287,1.989h-3.718C225.12,766.107,225.731,765.665,227.109,765.665Zm7.046,4.264c-0.3-1.638-.663-3.237-1.053-4.875h-1.417l-1.391,6.565h0.845l1.235-5.811c0.4,1.69.767,3.64,1.066,5.343h0.793c0.962-1.664,2.2-3.614,3.38-5.343l-1.235,5.811h0.845l1.391-6.565h-1.365C236.144,766.679,235.143,768.252,234.155,769.929Zm7.909,1.872c-2.041,0-2.808-.806-2.236-3.5s1.677-3.432,3.7-3.432,2.821,0.754,2.262,3.432S244.118,771.8,242.064,771.8Zm1.3-6.123c-1.534,0-2.132.416-2.613,2.652C240.3,770.462,240.7,771,242.233,771s2.158-.533,2.613-2.665C245.327,766.094,244.911,765.678,243.364,765.678Zm8.31,4.979a4.527,4.527,0,0,1-1.664.338c-1.534,0-2.132-.533-1.677-2.665,0.481-2.236,1.274-2.652,2.808-2.652a3.446,3.446,0,0,1,1.534.312l0.442-.793a5.721,5.721,0,0,0-1.807-.325c-2.028,0-3.341.754-3.9,3.432s0.39,3.5,2.431,3.5a5.874,5.874,0,0,0,1.937-.364Zm5.179-4.823h2.574l0.169-.78H253.6l-0.169.78h2.574l-1.222,5.785h0.845Zm6.6,5.785H264.3l1.391-6.565h-0.845c-1.534,1.9-3.107,3.731-4.693,5.343l1.144-5.343h-0.845l-1.391,6.565h0.845a65.22,65.22,0,0,0,4.641-5.161Zm11.856-.962a4.527,4.527,0,0,1-1.664.338c-1.534,0-2.132-.533-1.677-2.665,0.481-2.236,1.274-2.652,2.808-2.652a3.446,3.446,0,0,1,1.534.312l0.442-.793a5.721,5.721,0,0,0-1.807-.325c-2.028,0-3.341.754-3.9,3.432s0.39,3.5,2.431,3.5a5.874,5.874,0,0,0,1.937-.364Zm3.514,1.144a3.285,3.285,0,0,0,2.171-.715,1.552,1.552,0,0,0,.442.806l0.767-.546a1.338,1.338,0,0,1-.39-0.949,2.582,2.582,0,0,1,.065-0.52l0.962-4.485a6.509,6.509,0,0,0-2.548-.52c-2.028,0-3.133.754-3.692,3.445a7.616,7.616,0,0,0-.182,1.482C276.42,771.307,277.226,771.8,278.825,771.8Zm1.3-6.123a5.13,5.13,0,0,1,1.755.273l-0.871,4.121c-0.13.6-1.04,0.923-2.015,0.923-1.131,0-1.638-.3-1.638-1.313a6.946,6.946,0,0,1,.182-1.352C278.006,766.107,278.591,765.678,280.125,765.678Zm7.932,5.941H288.9l1.391-6.565h-0.845c-1.534,1.9-3.107,3.731-4.693,5.343l1.144-5.343h-0.845l-1.391,6.565h0.845a65.22,65.22,0,0,0,4.641-5.161Zm-2.184-9.062c-0.247,1.132.234,1.639,1.365,1.639a1.882,1.882,0,0,0,2.08-1.639h-0.676a1.036,1.036,0,0,1-1.235.9c-0.689,0-.988-0.169-0.832-0.9h-0.7Zm8.533,3.277h2.574l0.17-.78h-5.994l-0.169.78h2.574l-1.222,5.785h0.845Zm4.853,5.967a3.285,3.285,0,0,0,2.171-.715,1.552,1.552,0,0,0,.442.806l0.767-.546a1.338,1.338,0,0,1-.39-0.949,2.582,2.582,0,0,1,.065-0.52l0.962-4.485a6.509,6.509,0,0,0-2.548-.52c-2.028,0-3.133.754-3.692,3.445a7.616,7.616,0,0,0-.182,1.482C296.854,771.307,297.66,771.8,299.259,771.8Zm1.3-6.123a5.13,5.13,0,0,1,1.755.273l-0.871,4.121c-0.13.6-1.04,0.923-2.015,0.923-1.131,0-1.638-.3-1.638-1.313a6.946,6.946,0,0,1,.182-1.352C298.44,766.107,299.025,765.678,300.559,765.678ZM133.89,799.619c-0.169-.871-0.351-1.807-0.507-2.8h-4.42c-0.52.923-1.027,1.846-1.521,2.8h-0.923c1.677-3.029,3.432-6.032,5.343-9.062h1.6c0.377,3.056.923,6.553,1.482,9.062H133.89Zm-1.612-8.334c-1,1.613-1.95,3.186-2.86,4.759h3.848c-0.234-1.534-.442-3.172-0.611-4.759h-0.377Zm8.849,5.136-0.676,3.2H141.3l1.391-6.565h-0.845l-0.559,2.626h-3.549l0.559-2.626h-0.845l-1.391,6.565H136.9l0.676-3.2h3.549Zm5,3.38a3.285,3.285,0,0,0,2.171-.715,1.552,1.552,0,0,0,.442.806l0.767-.546a1.338,1.338,0,0,1-.39-0.949,2.582,2.582,0,0,1,.065-0.52l0.962-4.485a6.509,6.509,0,0,0-2.548-.52c-2.028,0-3.133.754-3.692,3.445a7.616,7.616,0,0,0-.182,1.482C143.723,799.307,144.529,799.8,146.128,799.8Zm1.3-6.123a5.13,5.13,0,0,1,1.755.273l-0.871,4.121c-0.13.6-1.04,0.923-2.015,0.923-1.131,0-1.638-.3-1.638-1.313a6.946,6.946,0,0,1,.182-1.352C145.309,794.107,145.894,793.678,147.428,793.678Zm8.64,0.156-1.222,5.785h0.845l1.391-6.565h-3.991a27.857,27.857,0,0,1-2.717,6.565H151.3a36.329,36.329,0,0,0,2.431-5.785h2.34Zm6.149,5.785h0.845l1.391-6.565h-0.845c-1.534,1.9-3.107,3.731-4.693,5.343l1.144-5.343h-0.845l-1.391,6.565h0.845a65.22,65.22,0,0,0,4.641-5.161Zm6.2-3.523a1.873,1.873,0,0,0,1.937-1.612c0.234-1.066-.468-1.612-2.47-1.612a9.272,9.272,0,0,0-2.119.26l0.065,0.78a5.954,5.954,0,0,1,1.885-.26c1.5,0,1.885.286,1.742,1-0.169.806-.754,1.027-2.054,1.027h-0.975l-0.156.741h0.975c1.43,0,1.924.351,1.729,1.274-0.208.988-.754,1.326-2.405,1.326a5.11,5.11,0,0,1-1.833-.26l-0.416.767a7.048,7.048,0,0,0,2.093.273c1.976,0,3.107-.481,3.432-1.963C170.027,796.941,169.806,796.161,168.415,796.1Zm10.7,2.743h-2.6l0.507-2.379h2.561c0.741,0,.949.481,0.78,1.274A1.137,1.137,0,0,1,179.114,798.839Zm0.559-3.12h-2.5l0.4-1.885h2.5c0.754,0,.91.234,0.767,0.9A1.079,1.079,0,0,1,179.673,795.719Zm0.494,0.351a1.539,1.539,0,0,0,1.6-1.456c0.182-.819.052-1.56-1.391-1.56H176.9l-1.391,6.565H179.1a2.1,2.1,0,0,0,2.2-1.859C181.48,796.876,181.324,796.109,180.167,796.07Zm7.029,3.549h0.845l1.391-6.565h-0.845c-1.534,1.9-3.107,3.731-4.693,5.343l1.144-5.343h-0.845l-1.391,6.565h0.845a65.22,65.22,0,0,0,4.641-5.161Zm3.132-.78a27.522,27.522,0,0,0,2.288-5.785h3.991l-1.235,5.785h1.2l-0.741,2.444H195.19l0.364-1.664h-5.6l-0.364,1.664h-0.624l0.286-2.444h1.079Zm2.925-5.005a34.334,34.334,0,0,1-2.041,5.005h3.315l1.066-5.005h-2.34Zm8.814,5.785h0.845l1.391-6.565h-0.845c-1.534,1.9-3.107,3.731-4.693,5.343l1.144-5.343h-0.845l-1.391,6.565h0.845a65.22,65.22,0,0,0,4.641-5.161Zm6.838-1.69c-0.3-1.638-.663-3.237-1.053-4.875h-1.418l-1.391,6.565h0.845l1.235-5.811c0.4,1.69.768,3.64,1.067,5.343h0.793c0.962-1.664,2.2-3.614,3.38-5.343l-1.235,5.811h0.845l1.391-6.565H212C210.894,794.679,209.893,796.252,208.905,797.929Zm7.909,1.872c-2.041,0-2.808-.806-2.236-3.5s1.677-3.432,3.7-3.432,2.821,0.754,2.262,3.432S218.868,799.8,216.814,799.8Zm1.3-6.123c-1.534,0-2.132.416-2.613,2.652-0.455,2.132-.052,2.665,1.482,2.665s2.158-.533,2.613-2.665C220.077,794.094,219.661,793.678,218.114,793.678Zm8.309,4.979a4.527,4.527,0,0,1-1.664.338c-1.534,0-2.132-.533-1.677-2.665,0.481-2.236,1.274-2.652,2.808-2.652a3.446,3.446,0,0,1,1.534.312l0.442-.793a5.721,5.721,0,0,0-1.807-.325c-2.028,0-3.341.754-3.9,3.432s0.39,3.5,2.431,3.5a5.874,5.874,0,0,0,1.937-.364Zm5.179-4.823h2.574l0.169-.78h-5.993l-0.169.78h2.574l-1.222,5.785h0.845Zm6.6,5.785h0.845l1.391-6.565H239.6c-1.534,1.9-3.107,3.731-4.693,5.343l1.144-5.343H235.2l-1.391,6.565h0.845a65.22,65.22,0,0,0,4.641-5.161Zm10.66-.78h-2.6l0.507-2.379h2.561c0.741,0,.949.481,0.78,1.274A1.137,1.137,0,0,1,248.865,798.839Zm0.559-3.12h-2.5l0.4-1.885h2.5c0.754,0,.91.234,0.767,0.9A1.079,1.079,0,0,1,249.424,795.719Zm0.494,0.351a1.539,1.539,0,0,0,1.6-1.456c0.182-.819.052-1.56-1.391-1.56h-3.471l-1.391,6.565h3.588a2.1,2.1,0,0,0,2.2-1.859C251.231,796.876,251.075,796.109,249.918,796.07Zm12.363-2.236-1.222,5.785H261.9l1.391-6.565h-5.24l-1.391,6.565h0.845l1.222-5.785h3.55Zm4.457,5.967c-2.041,0-2.808-.806-2.236-3.5s1.677-3.432,3.7-3.432,2.821,0.754,2.262,3.432S268.792,799.8,266.738,799.8Zm1.3-6.123c-1.534,0-2.132.416-2.613,2.652-0.455,2.132-.052,2.665,1.482,2.665s2.158-.533,2.613-2.665C270,794.094,269.585,793.678,268.038,793.678Zm8.026,5.941h0.845l1.391-6.565h-0.845c-1.534,1.9-3.107,3.731-4.693,5.343l1.144-5.343h-0.845l-1.391,6.565h0.845a65.22,65.22,0,0,0,4.641-5.161Zm7.708-.962a4.527,4.527,0,0,1-1.664.338c-1.534,0-2.132-.533-1.677-2.665,0.481-2.236,1.274-2.652,2.808-2.652a3.446,3.446,0,0,1,1.534.312l0.442-.793a5.721,5.721,0,0,0-1.807-.325c-2.028,0-3.341.754-3.9,3.432s0.39,3.5,2.431,3.5a5.874,5.874,0,0,0,1.937-.364Zm6.193,0.962c-1.131-3.016-1.729-3.3-2.379-3.575a36.7,36.7,0,0,0,3.562-2.99h-1.092c-1.651,1.482-3.081,2.678-3.757,3.159l0.676-3.159H286.13l-1.391,6.565h0.845l0.676-3.211c0.858,0.143,1.755.624,2.665,3.211h1.04Zm3.729,0.182c-2.041,0-2.808-.806-2.236-3.5s1.677-3.432,3.706-3.432,2.821,0.754,2.262,3.432S295.749,799.8,293.694,799.8Zm1.3-6.123c-1.535,0-2.133.416-2.614,2.652-0.455,2.132-.052,2.665,1.482,2.665s2.159-.533,2.614-2.665C296.958,794.094,296.542,793.678,295,793.678Zm7.233,5.161h-2.6l0.507-2.379H302.7c0.741,0,.949.481,0.78,1.274A1.137,1.137,0,0,1,302.228,798.839Zm0.559-3.12h-2.5l0.4-1.885h2.5c0.754,0,.91.234,0.767,0.9A1.079,1.079,0,0,1,302.787,795.719Zm0.494,0.351a1.539,1.539,0,0,0,1.6-1.456c0.182-.819.052-1.56-1.391-1.56h-3.471l-1.392,6.565h3.589a2.1,2.1,0,0,0,2.2-1.859C304.594,796.876,304.438,796.109,303.281,796.07Zm7.029,3.549h0.845l1.391-6.565H311.7c-1.534,1.9-3.107,3.731-4.693,5.343l1.144-5.343h-0.845l-1.391,6.565h0.845a65.22,65.22,0,0,0,4.641-5.161Zm8.2,0c-1.131-3.016-1.729-3.3-2.379-3.575a36.7,36.7,0,0,0,3.562-2.99H318.6c-1.651,1.482-3.082,2.678-3.758,3.159l0.676-3.159h-0.845l-1.391,6.565h0.845l0.676-3.211c0.858,0.143,1.756.624,2.666,3.211h1.04ZM322.2,799.8a3.285,3.285,0,0,0,2.171-.715,1.552,1.552,0,0,0,.442.806l0.767-.546a1.338,1.338,0,0,1-.39-0.949,2.582,2.582,0,0,1,.065-0.52l0.962-4.485a6.509,6.509,0,0,0-2.548-.52c-2.028,0-3.133.754-3.692,3.445a7.616,7.616,0,0,0-.182,1.482C319.794,799.307,320.6,799.8,322.2,799.8Zm1.3-6.123a5.13,5.13,0,0,1,1.755.273l-0.871,4.121c-0.13.6-1.04,0.923-2.015,0.923-1.131,0-1.638-.3-1.638-1.313a6.946,6.946,0,0,1,.182-1.352C321.38,794.107,321.965,793.678,323.5,793.678Zm8.658,5.941c-0.507-1.118-1.053-2.262-1.612-3.328,1.04-1.079,2.028-2.158,2.99-3.237h-1.027c-0.676.78-1.443,1.664-2.314,2.574-0.468-.923-0.975-1.794-1.43-2.574h-1.17c0.65,1,1.339,2.132,1.937,3.276-1.053,1.092-2.184,2.223-3.328,3.289h1.04c0.884-.871,1.768-1.742,2.639-2.639,0.455,0.9.871,1.807,1.222,2.639h1.053Z" transform="translate(-126.531 -622.562)"/>
</svg>
