<svg xmlns="http://www.w3.org/2000/svg" width="308.032" height="9.469" viewBox="0 0 308.032 9.469">
  <metadata><?xpacket begin="﻿" id="W5M0MpCehiHzreSzNTczkc9d"?>
<x:xmpmeta xmlns:x="adobe:ns:meta/" x:xmptk="Adobe XMP Core 5.6-c142 79.160924, 2017/07/13-01:06:39        ">
   <rdf:RDF xmlns:rdf="http://www.w3.org/1999/02/22-rdf-syntax-ns#">
      <rdf:Description rdf:about=""/>
   </rdf:RDF>
</x:xmpmeta>
                                                                                                    
                                                                                                    
                                                                                                    
                                                                                                    
                                                                                                    
                                                                                                    
                                                                                                    
                                                                                                    
                                                                                                    
                                                                                                    
                                                                                                    
                                                                                                    
                                                                                                    
                                                                                                    
                                                                                                    
                                                                                                    
                                                                                                    
                                                                                                    
                                                                                                    
                                                                                                    
                           
<?xpacket end="w"?></metadata>
<defs>
    <style>
      .cls-1 {
        fill: #5f5f5f;
        fill-rule: evenodd;
      }
    </style>
  </defs>
  <path id="О_нас_Блог_Наши_клиенты_Контакты" data-name="О нас         Блог         Наши клиенты         Контакты" class="cls-1" d="M449.511,34.8c-2.821,0-4.108-1.014-4.108-4.758,0-3.692,1.3-4.706,4.108-4.706s4.122,1.014,4.122,4.706C453.633,33.787,452.346,34.8,449.511,34.8Zm0-8.671c-2.3,0-3.094.611-3.094,3.939,0,3.159.793,3.913,3.094,3.913,2.328,0,3.134-.754,3.134-3.913C452.645,26.741,451.839,26.13,449.511,26.13Zm14.04,5.291v3.2H464.4V28.054h-0.845V30.68H460V28.054h-0.845v6.565H460v-3.2h3.549Zm7.833,2.86a7.193,7.193,0,0,1-2.652.52c-1.886,0-2.666-.507-2.666-2.21,0-1.872,1.131-2.171,2.6-2.171a8.259,8.259,0,0,1,1.872.208c0-1.612-.416-1.95-1.937-1.95a5.224,5.224,0,0,0-1.886.312l-0.247-.793a8.18,8.18,0,0,1,2.185-.325c1.911,0,2.73.559,2.73,2.548v3.861Zm-0.845-.546V31.343a7.923,7.923,0,0,0-1.768-.169c-1.314,0-1.756.143-1.756,1.352,0,1.313.377,1.508,1.756,1.508A5.358,5.358,0,0,0,470.539,33.735Zm7.347-.078a4.045,4.045,0,0,1-1.6.338c-1.534,0-2.236-.533-2.236-2.665,0-2.236.7-2.652,2.236-2.652a3.858,3.858,0,0,1,1.6.312l0.273-.793a6.28,6.28,0,0,0-1.872-.325c-2.028,0-3.172.754-3.172,3.432s1.131,3.5,3.172,3.5a5.329,5.329,0,0,0,1.872-.364Zm41.028-7.319h-4.85V29.38h3.42c1.924,0,2.4,1.105,2.4,2.678,0,1.69-.806,2.561-2.262,2.561h-4.5V25.558h5.786v0.78Zm-1.3,7.5c0.962,0,1.274-.741,1.274-1.794,0-1.092-.39-1.9-1.326-1.9h-3.5v3.692h3.55Zm8-5.005v5.785h0.845V28.054h-3.991a22.637,22.637,0,0,1-1.326,6.565h0.923a29.5,29.5,0,0,0,1.209-5.785h2.34Zm5.629,5.967c-2.041,0-2.977-.806-2.977-3.5s0.949-3.432,2.977-3.432,2.99,0.754,2.99,3.432S533.293,34.8,531.239,34.8Zm0-6.123c-1.534,0-2.041.416-2.041,2.652,0,2.132.507,2.665,2.041,2.665s2.054-.533,2.054-2.665C533.293,29.094,532.786,28.678,531.239,28.678Zm4.8-.624v6.565h0.845V28.834h3.329v-0.78h-4.174Zm39.923,2.132h4.81v4.433h0.923V25.558h-0.923v3.783h-4.81V25.558h-0.936v9.061h0.936V30.186Zm12.883,4.1a7.193,7.193,0,0,1-2.652.52c-1.885,0-2.665-.507-2.665-2.21,0-1.872,1.131-2.171,2.6-2.171a8.259,8.259,0,0,1,1.872.208c0-1.612-.416-1.95-1.937-1.95a5.218,5.218,0,0,0-1.885.312l-0.247-.793a8.172,8.172,0,0,1,2.184-.325c1.911,0,2.73.559,2.73,2.548v3.861ZM588,33.735V31.343a7.923,7.923,0,0,0-1.768-.169c-1.313,0-1.755.143-1.755,1.352,0,1.313.377,1.508,1.755,1.508A5.358,5.358,0,0,0,588,33.735Zm10.231-5.681h0.845v6.565h-8.255V28.054h0.845v5.785h2.86V28.054h0.845v5.785h2.86V28.054Zm7.23,6.565H606.3V28.054h-0.845a56.043,56.043,0,0,1-3.549,5.343V28.054h-0.845v6.565h0.845a46.447,46.447,0,0,0,3.549-5.161v5.161Zm11.765,0c-1.768-3.016-2.418-3.3-3.133-3.575a26.055,26.055,0,0,0,2.925-2.99h-1.092a41.4,41.4,0,0,1-3.081,3.159V28.054H612v6.565h0.845V31.408c0.884,0.143,1.885.624,3.341,3.211h1.04Zm5.539-5.785v5.785h0.846V28.054h-3.992a22.637,22.637,0,0,1-1.326,6.565h0.923a29.5,29.5,0,0,0,1.209-5.785h2.34Zm7.222,5.785h0.845V28.054h-0.845a56.043,56.043,0,0,1-3.549,5.343V28.054h-0.845v6.565h0.845a46.447,46.447,0,0,0,3.549-5.161v5.161Zm5.583-6.747c-1.95,0-2.951.858-2.951,3.432,0,2.691,1.079,3.5,3.068,3.5a8.709,8.709,0,0,0,2.158-.364l-0.2-.78a6.544,6.544,0,0,1-1.885.351c-1.521,0-2.2-.455-2.21-2.587h4.693C638.244,28.626,637.425,27.872,635.566,27.872Zm0,0.793c1.209,0,1.638.351,1.716,1.989h-3.718C633.668,29.107,634.188,28.665,635.566,28.665Zm8.7,2.756v3.2h0.845V28.054h-0.845V30.68h-3.549V28.054h-0.845v6.565h0.845v-3.2h3.549Zm5.63-2.587h2.574v-0.78h-5.993v0.78h2.574v5.785h0.845V28.834Zm7.321,5.005h-2.536V31.421h2.536a0.951,0.951,0,0,1,1.079,1.17C658.293,33.527,657.981,33.839,657.214,33.839Zm-2.536-3.159V28.054h-0.845v6.565h3.381a1.74,1.74,0,0,0,2.015-2.041c0-1.287-.585-1.9-2.015-1.9h-2.536Zm6.293-2.626h-0.845v6.565h0.845V28.054Zm41.274,6.565c-1.625-3.731-2.6-4.329-4.576-4.459v4.459h-0.936V25.558h0.936v4.407a28.96,28.96,0,0,0,4.29-4.407h1.235a28.332,28.332,0,0,1-4.017,4.082c1.287,0.338,2.21.728,4.186,4.979h-1.118Zm4.966,0.182c-2.041,0-2.977-.806-2.977-3.5s0.949-3.432,2.977-3.432,2.99,0.754,2.99,3.432S709.265,34.8,707.211,34.8Zm0-6.123c-1.534,0-2.041.416-2.041,2.652,0,2.132.507,2.665,2.041,2.665s2.054-.533,2.054-2.665C709.265,29.094,708.758,28.678,707.211,28.678Zm9.191,2.743v3.2h0.845V28.054H716.4V30.68h-3.549V28.054h-0.845v6.565h0.845v-3.2H716.4Zm5.63-2.587h2.574v-0.78h-5.993v0.78h2.574v5.785h0.845V28.834Zm8.932,5.447a7.193,7.193,0,0,1-2.652.52c-1.885,0-2.665-.507-2.665-2.21,0-1.872,1.131-2.171,2.6-2.171a8.259,8.259,0,0,1,1.872.208c0-1.612-.416-1.95-1.937-1.95a5.218,5.218,0,0,0-1.885.312L726.05,28.2a8.172,8.172,0,0,1,2.184-.325c1.911,0,2.73.559,2.73,2.548v3.861Zm-0.845-.546V31.343a7.923,7.923,0,0,0-1.768-.169c-1.313,0-1.755.143-1.755,1.352,0,1.313.377,1.508,1.755,1.508A5.358,5.358,0,0,0,730.119,33.735Zm8.047,0.884c-1.768-3.016-2.418-3.3-3.133-3.575a26.055,26.055,0,0,0,2.925-2.99h-1.092a41.4,41.4,0,0,1-3.081,3.159V28.054H732.94v6.565h0.845V31.408c0.884,0.143,1.885.624,3.341,3.211h1.04Zm4.187-5.785h2.574v-0.78h-5.993v0.78h2.574v5.785h0.845V28.834Zm7.32,5.005h-2.535V31.421h2.535a0.951,0.951,0,0,1,1.079,1.17C750.752,33.527,750.44,33.839,749.673,33.839Zm-2.535-3.159V28.054h-0.845v6.565h3.38a1.74,1.74,0,0,0,2.015-2.041c0-1.287-.585-1.9-2.015-1.9h-2.535Zm6.293-2.626h-0.845v6.565h0.845V28.054Z" transform="translate(-445.406 -25.344)"/>
</svg>
