<svg xmlns="http://www.w3.org/2000/svg" width="129.281" height="11.844" viewBox="0 0 129.281 11.844">
  <metadata><?xpacket begin="﻿" id="W5M0MpCehiHzreSzNTczkc9d"?>
<x:xmpmeta xmlns:x="adobe:ns:meta/" x:xmptk="Adobe XMP Core 5.6-c142 79.160924, 2017/07/13-01:06:39        ">
   <rdf:RDF xmlns:rdf="http://www.w3.org/1999/02/22-rdf-syntax-ns#">
      <rdf:Description rdf:about=""/>
   </rdf:RDF>
</x:xmpmeta>
                                                                                                    
                                                                                                    
                                                                                                    
                                                                                                    
                                                                                                    
                                                                                                    
                                                                                                    
                                                                                                    
                                                                                                    
                                                                                                    
                                                                                                    
                                                                                                    
                                                                                                    
                                                                                                    
                                                                                                    
                                                                                                    
                                                                                                    
                                                                                                    
                                                                                                    
                                                                                                    
                           
<?xpacket end="w"?></metadata>
<defs>
    <style>
      .cls-1 {
        fill: #fff;
        fill-rule: evenodd;
      }
    </style>
  </defs>
  <path id="на_бесплатный_аудит_" data-name="на бесплатный аудит " class="cls-1" d="M843.908,605.421l-0.676,3.2h0.845l1.392-6.565h-0.846l-0.559,2.626h-3.549l0.559-2.626h-0.845l-1.391,6.565h0.845l0.676-3.2h3.549Zm5,3.38a3.285,3.285,0,0,0,2.171-.715,1.552,1.552,0,0,0,.442.806l0.767-.546a1.338,1.338,0,0,1-.39-0.949,2.582,2.582,0,0,1,.065-0.52l0.963-4.485a6.518,6.518,0,0,0-2.549-.52c-2.028,0-3.133.754-3.692,3.445a7.616,7.616,0,0,0-.182,1.482C846.5,608.307,847.31,608.8,848.909,608.8Zm1.3-6.123a5.13,5.13,0,0,1,1.755.273l-0.871,4.121c-0.13.6-1.04,0.923-2.015,0.923-1.131,0-1.638-.3-1.638-1.313a6.946,6.946,0,0,1,.182-1.352C848.09,603.107,848.675,602.678,850.209,602.678Zm14.716-3.394a7.838,7.838,0,0,1-2.431.533c-2.119.195-3.172,0.937-4.069,5.162-0.611,2.86.1,3.822,1.911,3.822,2.028,0,3.133-.754,3.679-3.3s-0.221-3.367-2.028-3.367a2.839,2.839,0,0,0-2.275.923c0.559-1.612.923-2.275,2.613-2.431a8.037,8.037,0,0,0,2.431-.521Zm-5.694,6.189c0.416-1.937.923-2.535,2.548-2.535,1.326,0,1.729.533,1.3,2.535-0.442,2.106-1.04,2.522-2.574,2.522C859.322,608,858.854,607.241,859.231,605.473Zm10.07-3.6c-1.95,0-3.133.858-3.679,3.432-0.572,2.691.338,3.5,2.327,3.5a9.5,9.5,0,0,0,2.223-.364l-0.026-.78a7.3,7.3,0,0,1-1.963.351c-1.521,0-2.093-.455-1.651-2.587h4.693C871.81,602.626,871.16,601.872,869.3,601.872Zm-0.169.793c1.209,0,1.56.351,1.287,1.989H866.7C867.143,603.107,867.754,602.665,869.132,602.665Zm7.857,4.992a4.527,4.527,0,0,1-1.664.338c-1.534,0-2.132-.533-1.677-2.665,0.481-2.236,1.274-2.652,2.808-2.652a3.446,3.446,0,0,1,1.534.312l0.442-.793a5.721,5.721,0,0,0-1.807-.325c-2.028,0-3.341.754-3.9,3.432s0.39,3.5,2.431,3.5a5.874,5.874,0,0,0,1.937-.364Zm6.583-4.823-1.222,5.785H883.2l1.391-6.565h-5.239l-1.391,6.565H878.8l1.222-5.785h3.549Zm6.846,0-1.222,5.785h0.845l1.391-6.565h-3.991a27.857,27.857,0,0,1-2.717,6.565h0.923a36.329,36.329,0,0,0,2.431-5.785h2.34Zm4.455,5.967a3.285,3.285,0,0,0,2.171-.715,1.552,1.552,0,0,0,.442.806l0.767-.546a1.338,1.338,0,0,1-.39-0.949,2.582,2.582,0,0,1,.065-0.52l0.962-4.485a6.509,6.509,0,0,0-2.548-.52c-2.028,0-3.133.754-3.692,3.445a7.616,7.616,0,0,0-.182,1.482C892.468,608.307,893.274,608.8,894.873,608.8Zm1.3-6.123a5.13,5.13,0,0,1,1.755.273l-0.871,4.121c-0.13.6-1.04,0.923-2.015,0.923-1.131,0-1.638-.3-1.638-1.313a6.946,6.946,0,0,1,.182-1.352C894.054,603.107,894.639,602.678,896.173,602.678Zm6.908,0.156h2.574l0.169-.78h-5.993l-0.169.78h2.574l-1.222,5.785h0.845Zm7.278,2.587-0.676,3.2h0.845l1.392-6.565h-0.845l-0.56,2.626h-3.549l0.559-2.626H906.68l-1.391,6.565h0.845l0.676-3.2h3.549Zm5.837,2.418h-2.535l0.52-2.418h2.535c0.741,0,1.014.286,0.832,1.17A1.252,1.252,0,0,1,916.2,607.839Zm-1.859-3.159,0.559-2.626h-0.845l-1.391,6.565h3.38a2.2,2.2,0,0,0,2.444-2.041c0.273-1.287-.182-1.9-1.612-1.9h-2.535Zm6.852-2.626h-0.846l-1.391,6.565H919.8Zm5.141,6.565h0.845l1.391-6.565h-0.845c-1.534,1.9-3.107,3.731-4.693,5.343l1.144-5.343h-0.845l-1.391,6.565h0.845a65.22,65.22,0,0,0,4.641-5.161Zm-2.184-9.062c-0.247,1.132.234,1.639,1.365,1.639a1.882,1.882,0,0,0,2.08-1.639h-0.676a1.036,1.036,0,0,1-1.235.9c-0.689,0-.988-0.169-0.832-0.9h-0.7Zm12,9.244a3.285,3.285,0,0,0,2.171-.715,1.552,1.552,0,0,0,.442.806l0.767-.546a1.338,1.338,0,0,1-.39-0.949,2.582,2.582,0,0,1,.065-0.52l0.962-4.485a6.509,6.509,0,0,0-2.548-.52c-2.029,0-3.134.754-3.693,3.445a7.616,7.616,0,0,0-.182,1.482C933.739,608.307,934.545,608.8,936.145,608.8Zm1.3-6.123a5.13,5.13,0,0,1,1.755.273l-0.871,4.121c-0.13.6-1.04,0.923-2.015,0.923-1.132,0-1.639-.3-1.639-1.313a6.946,6.946,0,0,1,.182-1.352C935.325,603.107,935.91,602.678,937.445,602.678Zm4.919,6.253a39.2,39.2,0,0,0-.949-6.877h0.949a42.726,42.726,0,0,1,.793,5.811,66.345,66.345,0,0,0,3.3-5.811h0.923c-1.131,2.2-2.457,4.381-3.835,6.565-0.52.819-1.209,1.82-1.716,2.5h-0.989C941.311,610.491,941.9,609.646,942.364,608.931Zm4.917-1.092a27.522,27.522,0,0,0,2.288-5.785h3.991l-1.235,5.785h1.2l-0.741,2.444h-0.637l0.364-1.664h-5.6l-0.364,1.664h-0.624l0.286-2.444h1.079Zm2.925-5.005a34.334,34.334,0,0,1-2.041,5.005h3.315l1.066-5.005h-2.34Zm8.814,5.785h0.845l1.391-6.565h-0.845c-1.534,1.9-3.107,3.731-4.693,5.343l1.144-5.343h-0.845l-1.391,6.565h0.845a65.22,65.22,0,0,0,4.641-5.161Zm6.349-5.785h2.574l0.169-.78h-5.993l-0.169.78h2.574l-1.222,5.785h0.845Z" transform="translate(-838.844 -599.281)"/>
</svg>
