<svg xmlns="http://www.w3.org/2000/svg" width="147.719" height="13.344" viewBox="0 0 147.719 13.344">
  <metadata><?xpacket begin="﻿" id="W5M0MpCehiHzreSzNTczkc9d"?>
<x:xmpmeta xmlns:x="adobe:ns:meta/" x:xmptk="Adobe XMP Core 5.6-c142 79.160924, 2017/07/13-01:06:39        ">
   <rdf:RDF xmlns:rdf="http://www.w3.org/1999/02/22-rdf-syntax-ns#">
      <rdf:Description rdf:about=""/>
   </rdf:RDF>
</x:xmpmeta>
                                                                                                    
                                                                                                    
                                                                                                    
                                                                                                    
                                                                                                    
                                                                                                    
                                                                                                    
                                                                                                    
                                                                                                    
                                                                                                    
                                                                                                    
                                                                                                    
                                                                                                    
                                                                                                    
                                                                                                    
                                                                                                    
                                                                                                    
                                                                                                    
                                                                                                    
                                                                                                    
                           
<?xpacket end="w"?></metadata>
<defs>
    <style>
      .cls-1 {
        fill-rule: evenodd;
      }
    </style>
  </defs>
  <path id="Контактный_телефон" data-name="Контактный телефон" class="cls-1" d="M820.875,462.063c-1.875-4.305-3-5-5.28-5.145v5.145h-1.08V451.608h1.08v5.085a33.413,33.413,0,0,0,4.95-5.085h1.425a32.694,32.694,0,0,1-4.635,4.71c1.485,0.39,2.55.84,4.83,5.745h-1.29Zm5.718,0.21c-2.355,0-3.435-.93-3.435-4.035,0-3.09,1.1-3.96,3.435-3.96,2.355,0,3.45.87,3.45,3.96C830.043,461.343,828.963,462.273,826.593,462.273Zm0-7.065c-1.77,0-2.355.48-2.355,3.06,0,2.46.585,3.075,2.355,3.075,1.785,0,2.37-.615,2.37-3.075C828.963,455.688,828.378,455.208,826.593,455.208Zm10.589,3.165v3.69h0.975v-7.575h-0.975v3.03h-4.094v-3.03h-0.975v7.575h0.975v-3.69h4.094Zm6.485-2.985h2.97v-0.9h-6.915v0.9h2.97v6.675h0.975v-6.675Zm10.294,6.285a8.3,8.3,0,0,1-3.06.6c-2.175,0-3.075-.585-3.075-2.55,0-2.16,1.3-2.5,3-2.5a9.536,9.536,0,0,1,2.16.24c0-1.86-.48-2.25-2.235-2.25a6.021,6.021,0,0,0-2.175.36l-0.285-.915a9.43,9.43,0,0,1,2.52-.375c2.2,0,3.15.645,3.15,2.94v4.455Zm-0.975-.63v-2.76a9.142,9.142,0,0,0-2.04-.195c-1.515,0-2.025.165-2.025,1.56,0,1.515.435,1.74,2.025,1.74A6.182,6.182,0,0,0,852.986,461.043Zm9.269,1.02c-2.04-3.48-2.79-3.81-3.615-4.125a30.058,30.058,0,0,0,3.375-3.45h-1.26a47.758,47.758,0,0,1-3.555,3.645v-3.645h-0.975v7.575H857.2v-3.7c1.02,0.165,2.175.72,3.855,3.7h1.2Zm4.822-6.675h2.97v-0.9h-6.915v0.9h2.97v6.675h0.975v-6.675Zm9.6,2.985v3.69h0.975v-7.575h-0.975v3.03h-4.1v-3.03h-0.974v7.575h0.974v-3.69h4.1Zm7.155,2.79h-2.925v-2.79h2.925a1.1,1.1,0,0,1,1.245,1.35C885.081,460.8,884.721,461.163,883.836,461.163Zm-2.925-3.645v-3.03h-0.975v7.575h3.9c1.65,0,2.325-.72,2.325-2.355,0-1.485-.675-2.19-2.325-2.19h-2.925Zm7.26-3.03H887.2v7.575h0.975v-7.575Zm7.35,7.575H896.5v-7.575h-0.975a64.646,64.646,0,0,1-4.095,6.165v-6.165h-0.975v7.575h0.975a53.59,53.59,0,0,0,4.095-5.955v5.955Zm-3.99-10.455a1.99,1.99,0,0,0,3.975,0h-0.78c0,0.84-.42,1.035-1.2,1.035s-1.185-.195-1.185-1.035h-0.81Zm14.49,3.78h2.97v-0.9h-6.915v0.9h2.97v6.675h0.975v-6.675Zm7.594-1.11c-2.25,0-3.4.99-3.4,3.96,0,3.105,1.245,4.035,3.54,4.035a10.048,10.048,0,0,0,2.49-.42l-0.225-.9a7.55,7.55,0,0,1-2.175.405c-1.755,0-2.535-.525-2.55-2.985h5.415C916.705,455.148,915.76,454.278,913.615,454.278Zm0,0.915c1.395,0,1.89.405,1.98,2.3h-4.29C911.425,455.7,912.025,455.193,913.615,455.193Zm9.611,0.195v6.675H924.2v-7.575h-4.6a26.117,26.117,0,0,1-1.53,7.575h1.065a34.04,34.04,0,0,0,1.395-6.675h2.7Zm6.43-1.11c-2.25,0-3.4.99-3.4,3.96,0,3.105,1.245,4.035,3.54,4.035a10.048,10.048,0,0,0,2.49-.42l-0.225-.9a7.55,7.55,0,0,1-2.175.405c-1.755,0-2.535-.525-2.55-2.985h5.415C932.746,455.148,931.8,454.278,929.656,454.278Zm0,0.915c1.4,0,1.89.405,1.98,2.3h-4.29C927.466,455.7,928.066,455.193,929.656,455.193Zm9.777,9.75h0.975v-3.3a2.9,2.9,0,0,0,1.785.63c2.055,0,3.135-.93,3.135-4.035,0-3.09-1.1-3.96-3.135-3.96a7.167,7.167,0,0,0-1.785.27v-2.94h-0.975v2.94a7.375,7.375,0,0,0-1.785-.27c-2.04,0-3.135.87-3.135,3.96,0,3.105,1.08,4.035,3.135,4.035a2.9,2.9,0,0,0,1.785-.63v3.3Zm2.76-9.735c1.47,0,2.055.48,2.055,3.06,0,2.46-.585,3.075-2.055,3.075-0.945,0-1.74-.345-1.785-1.02v-4.8A4.737,4.737,0,0,1,942.193,455.208Zm-4.545,0a4.737,4.737,0,0,1,1.785.315v4.74c0,0.705-.81,1.08-1.785,1.08-1.47,0-2.055-.615-2.055-3.075C935.593,455.688,936.178,455.208,937.648,455.208Zm12.994,7.065c-2.355,0-3.435-.93-3.435-4.035,0-3.09,1.1-3.96,3.435-3.96s3.45,0.87,3.45,3.96C954.092,461.343,953.012,462.273,950.642,462.273Zm0-7.065c-1.77,0-2.355.48-2.355,3.06,0,2.46.585,3.075,2.355,3.075s2.37-.615,2.37-3.075C953.012,455.688,952.427,455.208,950.642,455.208Zm10.594,3.165v3.69h0.975v-7.575h-0.975v3.03h-4.094v-3.03h-0.975v7.575h0.975v-3.69h4.094Z" transform="translate(-814.5 -451.594)"/>
</svg>
