<svg xmlns="http://www.w3.org/2000/svg" width="63.969" height="10.687" viewBox="0 0 63.969 10.687">
  <metadata><?xpacket begin="﻿" id="W5M0MpCehiHzreSzNTczkc9d"?>
<x:xmpmeta xmlns:x="adobe:ns:meta/" x:xmptk="Adobe XMP Core 5.6-c142 79.160924, 2017/07/13-01:06:39        ">
   <rdf:RDF xmlns:rdf="http://www.w3.org/1999/02/22-rdf-syntax-ns#">
      <rdf:Description rdf:about=""/>
   </rdf:RDF>
</x:xmpmeta>
                                                                                                    
                                                                                                    
                                                                                                    
                                                                                                    
                                                                                                    
                                                                                                    
                                                                                                    
                                                                                                    
                                                                                                    
                                                                                                    
                                                                                                    
                                                                                                    
                                                                                                    
                                                                                                    
                                                                                                    
                                                                                                    
                                                                                                    
                                                                                                    
                                                                                                    
                                                                                                    
                           
<?xpacket end="w"?></metadata>
<defs>
    <style>
      .cls-1 {
        fill-rule: evenodd;
      }
    </style>
  </defs>
  <path id="Ваш_сайт" data-name="Ваш сайт" class="cls-1" d="M819.69,522.163h-4.1V517.9h4.035c1.08,0,1.53.93,1.53,2.19C821.16,521.308,820.8,522.163,819.69,522.163Zm-0.15-5.145H815.6v-3.51h3.945c1.1,0,1.38.66,1.38,1.71C820.92,516.148,820.62,517.018,819.54,517.018Zm0.42,0.42c1.86-.165,2.07-1.11,2.07-2.355,0-1.3-.4-2.475-2.49-2.475h-5.025v10.455h5.19c1.68,0,2.61-1,2.61-2.955C822.315,518.683,821.94,517.528,819.96,517.438Zm10.354,5.235a8.3,8.3,0,0,1-3.06.6c-2.175,0-3.075-.585-3.075-2.55,0-2.16,1.305-2.5,3-2.5a9.536,9.536,0,0,1,2.16.24c0-1.86-.48-2.25-2.235-2.25a6.021,6.021,0,0,0-2.175.36l-0.285-.915a9.43,9.43,0,0,1,2.52-.375c2.205,0,3.15.645,3.15,2.94v4.455Zm-0.975-.63v-2.76a9.142,9.142,0,0,0-2.04-.2c-1.515,0-2.025.165-2.025,1.56,0,1.515.435,1.74,2.025,1.74A6.182,6.182,0,0,0,829.339,522.043Zm11.794-6.555h0.975v7.575h-9.524v-7.575h0.975v6.675h3.3v-6.675h0.975v6.675h3.3v-6.675Zm12.855,6.465a4.667,4.667,0,0,1-1.845.39c-1.77,0-2.58-.615-2.58-3.075,0-2.58.81-3.06,2.58-3.06a4.452,4.452,0,0,1,1.845.36l0.315-.915a7.246,7.246,0,0,0-2.16-.375c-2.34,0-3.659.87-3.659,3.96s1.3,4.035,3.659,4.035a6.148,6.148,0,0,0,2.16-.42Zm7.715,0.72a8.3,8.3,0,0,1-3.06.6c-2.175,0-3.075-.585-3.075-2.55,0-2.16,1.305-2.5,3-2.5a9.536,9.536,0,0,1,2.16.24c0-1.86-.48-2.25-2.235-2.25a6.021,6.021,0,0,0-2.175.36l-0.285-.915a9.43,9.43,0,0,1,2.52-.375c2.205,0,3.15.645,3.15,2.94v4.455Zm-0.975-.63v-2.76a9.142,9.142,0,0,0-2.04-.2c-1.515,0-2.025.165-2.025,1.56,0,1.515.435,1.74,2.025,1.74A6.182,6.182,0,0,0,860.728,522.043Zm8.3,1.02h0.975v-7.575H869.03a64.646,64.646,0,0,1-4.1,6.165v-6.165H863.96v7.575h0.975a53.59,53.59,0,0,0,4.1-5.955v5.955Zm-3.99-10.455a1.99,1.99,0,0,0,3.975,0h-0.78c0,0.84-.42,1.035-1.2,1.035s-1.185-.2-1.185-1.035h-0.81Zm10.474,3.78h2.97v-0.9H871.57v0.9h2.97v6.675h0.974v-6.675Z" transform="translate(-814.5 -512.594)"/>
</svg>
