<svg xmlns="http://www.w3.org/2000/svg" width="67" height="10.687" viewBox="0 0 67 10.687">
  <metadata><?xpacket begin="﻿" id="W5M0MpCehiHzreSzNTczkc9d"?>
<x:xmpmeta xmlns:x="adobe:ns:meta/" x:xmptk="Adobe XMP Core 5.6-c142 79.160924, 2017/07/13-01:06:39        ">
   <rdf:RDF xmlns:rdf="http://www.w3.org/1999/02/22-rdf-syntax-ns#">
      <rdf:Description rdf:about=""/>
   </rdf:RDF>
</x:xmpmeta>
                                                                                                    
                                                                                                    
                                                                                                    
                                                                                                    
                                                                                                    
                                                                                                    
                                                                                                    
                                                                                                    
                                                                                                    
                                                                                                    
                                                                                                    
                                                                                                    
                                                                                                    
                                                                                                    
                                                                                                    
                                                                                                    
                                                                                                    
                                                                                                    
                                                                                                    
                                                                                                    
                           
<?xpacket end="w"?></metadata>
<defs>
    <style>
      .cls-1 {
        fill-rule: evenodd;
      }
    </style>
  </defs>
  <path id="Ваше_имя" data-name="Ваше имя" class="cls-1" d="M819.69,400.163h-4.1V395.9h4.035c1.08,0,1.53.93,1.53,2.19C821.16,399.308,820.8,400.163,819.69,400.163Zm-0.15-5.145H815.6v-3.51h3.945c1.1,0,1.38.66,1.38,1.71C820.92,394.148,820.62,395.018,819.54,395.018Zm0.42,0.42c1.86-.165,2.07-1.11,2.07-2.355,0-1.305-.4-2.475-2.49-2.475h-5.025v10.455h5.19c1.68,0,2.61-1,2.61-2.955C822.315,396.683,821.94,395.528,819.96,395.438Zm10.354,5.235a8.3,8.3,0,0,1-3.06.6c-2.175,0-3.075-.585-3.075-2.55,0-2.16,1.305-2.5,3-2.5a9.536,9.536,0,0,1,2.16.24c0-1.86-.48-2.25-2.235-2.25a6.021,6.021,0,0,0-2.175.36l-0.285-.915a9.43,9.43,0,0,1,2.52-.375c2.205,0,3.15.645,3.15,2.94v4.455Zm-0.975-.63v-2.76a9.142,9.142,0,0,0-2.04-.195c-1.515,0-2.025.165-2.025,1.56,0,1.515.435,1.74,2.025,1.74A6.182,6.182,0,0,0,829.339,400.043Zm11.794-6.555h0.975v7.575h-9.524v-7.575h0.975v6.675h3.3v-6.675h0.975v6.675h3.3v-6.675Zm6.455-.21c-2.25,0-3.4.99-3.4,3.96,0,3.105,1.245,4.035,3.54,4.035a10.048,10.048,0,0,0,2.49-.42l-0.225-.9a7.55,7.55,0,0,1-2.175.405c-1.755,0-2.535-.525-2.55-2.985h5.415C850.678,394.148,849.733,393.278,847.588,393.278Zm0,0.915c1.395,0,1.89.405,1.98,2.3h-4.29C845.4,394.7,846,394.193,847.588,394.193Zm14.34,6.87H862.9v-7.575h-0.975a64.646,64.646,0,0,1-4.1,6.165v-6.165h-0.975v7.575h0.975a53.59,53.59,0,0,0,4.1-5.955v5.955Zm7.3-1.95c-0.75-1.89-1.56-3.735-2.415-5.625h-1.635v7.575h0.975v-6.7c0.885,1.95,1.785,4.2,2.55,6.165h0.915c0.7-1.92,1.649-4.17,2.579-6.165v6.7h0.975v-7.575H871.6C870.733,395.363,869.953,397.178,869.233,399.113Zm12.281-5.625v7.575H880.54v-3.195h-1.41c-1.185,0-1.845.42-3.075,3.195h-1.11c1.35-2.835,1.92-3.3,2.67-3.42-1.635,0-2.205-.885-2.205-1.95,0-1.17.525-2.2,2.37-2.2h3.734Zm-0.974,3.54v-2.64h-2.76a1.1,1.1,0,0,0-1.32,1.29,1.186,1.186,0,0,0,1.38,1.35h2.7Z" transform="translate(-814.5 -390.594)"/>
</svg>
