<svg xmlns="http://www.w3.org/2000/svg" width="185.496" height="29.563" viewBox="0 0 185.496 29.563">
  <metadata><?xpacket begin="﻿" id="W5M0MpCehiHzreSzNTczkc9d"?>
<x:xmpmeta xmlns:x="adobe:ns:meta/" x:xmptk="Adobe XMP Core 5.6-c142 79.160924, 2017/07/13-01:06:39        ">
   <rdf:RDF xmlns:rdf="http://www.w3.org/1999/02/22-rdf-syntax-ns#">
      <rdf:Description rdf:about=""/>
   </rdf:RDF>
</x:xmpmeta>
                                                                                                    
                                                                                                    
                                                                                                    
                                                                                                    
                                                                                                    
                                                                                                    
                                                                                                    
                                                                                                    
                                                                                                    
                                                                                                    
                                                                                                    
                                                                                                    
                                                                                                    
                                                                                                    
                                                                                                    
                                                                                                    
                                                                                                    
                                                                                                    
                                                                                                    
                                                                                                    
                           
<?xpacket end="w"?></metadata>
<defs>
    <style>
      .cls-1 {
        fill-rule: evenodd;
      }
    </style>
  </defs>
  <path id="Наши_специалисты_перезвонят_вам_уже_через" data-name="Наши специалисты перезвонят вам уже через" class="cls-1" d="M902.535,674.186h4.81l-0.936,4.433h0.923l1.924-9.062h-0.923l-0.806,3.784h-4.81l0.806-3.784h-0.936l-1.924,9.062H901.6Zm9.508,4.615a3.285,3.285,0,0,0,2.171-.715,1.552,1.552,0,0,0,.442.806l0.767-.546a1.338,1.338,0,0,1-.39-0.949,2.582,2.582,0,0,1,.065-0.52l0.962-4.485a6.509,6.509,0,0,0-2.548-.52c-2.028,0-3.133.754-3.692,3.445a7.616,7.616,0,0,0-.182,1.482C909.638,678.307,910.444,678.8,912.043,678.8Zm1.3-6.123a5.13,5.13,0,0,1,1.755.273l-0.871,4.121c-0.13.6-1.04,0.923-2.015,0.923-1.131,0-1.638-.3-1.638-1.313a6.946,6.946,0,0,1,.182-1.352C911.224,673.107,911.809,672.678,913.343,672.678Zm12.119-.624h0.845l-1.391,6.565h-8.255l1.391-6.565H918.9l-1.235,5.785h2.86l1.235-5.785H922.6l-1.235,5.785h2.86Zm5.733,6.565h0.845l1.391-6.565h-0.845c-1.534,1.9-3.108,3.731-4.694,5.343l1.144-5.343h-0.845l-1.391,6.565h0.845a65.232,65.232,0,0,0,4.642-5.161Zm11.335-.962a4.527,4.527,0,0,1-1.664.338c-1.534,0-2.132-.533-1.677-2.665,0.481-2.236,1.274-2.652,2.808-2.652a3.446,3.446,0,0,1,1.534.312l0.442-.793a5.721,5.721,0,0,0-1.807-.325c-2.028,0-3.341.754-3.9,3.432s0.39,3.5,2.431,3.5a5.874,5.874,0,0,0,1.937-.364Zm6.323-4.823-1.222,5.785h0.845l1.392-6.565h-5.24l-1.391,6.565h0.845l1.222-5.785h3.549Zm5.641-.962c-1.95,0-3.133.858-3.679,3.432-0.572,2.691.338,3.5,2.327,3.5a9.5,9.5,0,0,0,2.223-.364l-0.026-.78a7.3,7.3,0,0,1-1.963.351c-1.521,0-2.093-.455-1.651-2.587h4.693C957,672.626,956.353,671.872,954.494,671.872Zm-0.169.793c1.209,0,1.56.351,1.287,1.989h-3.718C952.336,673.107,952.947,672.665,954.325,672.665Zm8.32,5.174h1.2l-0.741,2.444h-0.637l0.364-1.664H957.25l1.391-6.565h0.845l-1.235,5.785H961.8l1.235-5.785h0.845Zm6.435,0.78h0.845l1.391-6.565h-0.845c-1.534,1.9-3.107,3.731-4.693,5.343l1.144-5.343h-0.845l-1.391,6.565h0.845a65.22,65.22,0,0,0,4.641-5.161ZM974.5,678.8a3.285,3.285,0,0,0,2.171-.715,1.552,1.552,0,0,0,.442.806l0.767-.546a1.338,1.338,0,0,1-.39-0.949,2.582,2.582,0,0,1,.065-0.52l0.962-4.485a6.509,6.509,0,0,0-2.548-.52c-2.028,0-3.133.754-3.692,3.445a7.616,7.616,0,0,0-.182,1.482C972.092,678.307,972.9,678.8,974.5,678.8Zm1.3-6.123a5.13,5.13,0,0,1,1.755.273l-0.871,4.121c-0.13.6-1.04,0.923-2.015,0.923-1.131,0-1.638-.3-1.638-1.313a6.946,6.946,0,0,1,.182-1.352C973.678,673.107,974.263,672.678,975.8,672.678Zm8.38,0.156-1.222,5.785H983.8l1.391-6.565H981.2a27.857,27.857,0,0,1-2.717,6.565h0.923a36.329,36.329,0,0,0,2.431-5.785h2.341Zm5.888,5.785h0.845l1.392-6.565h-0.846c-1.534,1.9-3.107,3.731-4.693,5.343l1.144-5.343h-0.845l-1.391,6.565h0.845a65.22,65.22,0,0,0,4.641-5.161Zm7.448-.962a4.527,4.527,0,0,1-1.664.338c-1.534,0-2.132-.533-1.677-2.665,0.481-2.236,1.274-2.652,2.808-2.652a3.446,3.446,0,0,1,1.534.312l0.442-.793a5.721,5.721,0,0,0-1.807-.325c-2.028,0-3.341.754-3.9,3.432s0.39,3.5,2.431,3.5a5.874,5.874,0,0,0,1.937-.364Zm4.917-4.823h2.58l0.17-.78h-6l-0.169.78h2.577l-1.23,5.785h0.85Zm5.49,5.005h-2.54l0.52-2.418h2.54c0.74,0,1.01.286,0.83,1.17A1.255,1.255,0,0,1,1007.92,677.839Zm-1.86-3.159,0.56-2.626h-0.85l-1.39,6.565h3.38a2.2,2.2,0,0,0,2.44-2.041c0.28-1.287-.18-1.9-1.61-1.9h-2.53Zm6.85-2.626h-0.85l-1.39,6.565h0.85Zm9.92,0.78-1.22,5.785h0.84l1.39-6.565h-5.24l-1.39,6.565h0.85l1.22-5.785h3.55Zm5.64-.962c-1.95,0-3.14.858-3.68,3.432-0.57,2.691.34,3.5,2.33,3.5a9.564,9.564,0,0,0,2.22-.364l-0.03-.78a7.209,7.209,0,0,1-1.96.351c-1.52,0-2.09-.455-1.65-2.587h4.69C1030.98,672.626,1030.33,671.872,1028.47,671.872Zm-0.17.793c1.21,0,1.56.351,1.29,1.989h-3.72C1026.31,673.107,1026.92,672.665,1028.3,672.665Zm5.51,6.136a2.333,2.333,0,0,1-1.7-.546l-0.6,2.86h-0.84l1.84-8.723a8.394,8.394,0,0,1,2.77-.52c2.03,0,2.81.754,2.25,3.432S1035.85,678.8,1033.81,678.8Zm1.3-6.123a6.245,6.245,0,0,0-1.87.273l-0.87,4.108c-0.13.611,0.64,0.936,1.61,0.936,1.54,0,2.15-.533,2.6-2.665C1037.06,673.094,1036.65,672.678,1035.11,672.678Zm7.45-.806c-1.95,0-3.13.858-3.68,3.432-0.57,2.691.34,3.5,2.33,3.5a9.564,9.564,0,0,0,2.22-.364l-0.03-.78a7.209,7.209,0,0,1-1.96.351c-1.52,0-2.09-.455-1.65-2.587h4.69C1045.07,672.626,1044.42,671.872,1042.56,671.872Zm-0.17.793c1.21,0,1.56.351,1.29,1.989h-3.72C1040.4,673.107,1041.01,672.665,1042.39,672.665Zm6.16,2.431a1.858,1.858,0,0,0,1.93-1.612c0.24-1.066-.46-1.612-2.47-1.612a9.179,9.179,0,0,0-2.11.26l0.06,0.78a5.94,5.94,0,0,1,1.89-.26c1.49,0,1.88.286,1.74,1-0.17.806-.76,1.027-2.06,1.027h-0.97l-0.16.741h0.98c1.43,0,1.92.351,1.73,1.274-0.21.988-.76,1.326-2.41,1.326a5.1,5.1,0,0,1-1.83-.26l-0.42.767a7.07,7.07,0,0,0,2.1.273c1.97,0,3.1-.481,3.43-1.963C1050.16,675.941,1049.94,675.161,1048.55,675.1Zm6.26,2.743h-2.6l0.51-2.379h2.56c0.74,0,.95.481,0.78,1.274A1.139,1.139,0,0,1,1054.81,677.839Zm0.56-3.12h-2.5l0.41-1.885h2.49c0.76,0,.91.234,0.77,0.9A1.083,1.083,0,0,1,1055.37,674.719Zm0.49,0.351a1.532,1.532,0,0,0,1.6-1.456c0.18-.819.05-1.56-1.39-1.56h-3.47l-1.39,6.565h3.59a2.1,2.1,0,0,0,2.19-1.859C1057.18,675.876,1057.02,675.109,1055.86,675.07Zm5.08,3.731c-2.04,0-2.8-.806-2.23-3.5s1.68-3.432,3.7-3.432c2.04,0,2.82.754,2.27,3.432C1064.1,678,1063,678.8,1060.94,678.8Zm1.3-6.123c-1.53,0-2.13.416-2.61,2.652-0.45,2.132-.05,2.665,1.48,2.665,1.55,0,2.16-.533,2.62-2.665C1064.21,673.094,1063.79,672.678,1062.24,672.678Zm8.45,2.743-0.68,3.2h0.85l1.39-6.565h-0.85l-0.56,2.626h-3.55l0.56-2.626h-0.84l-1.39,6.565h0.84l0.68-3.2h3.55Zm8.54-3.367-1.39,6.565H1077l0.58-2.769h-1.22c-1.03,0-1.68.364-3.25,2.769h-0.96c1.69-2.457,2.26-2.86,2.94-2.964-1.42,0-1.75-.767-1.55-1.69a2.248,2.248,0,0,1,2.46-1.911h3.23Zm-1.49,3.068,0.48-2.288h-2.39a1.2,1.2,0,0,0-1.38,1.118,0.83,0.83,0,0,0,.95,1.17h2.34Zm5.35-2.288h2.57l0.17-.78h-5.99l-0.17.78h2.57l-1.22,5.785h0.84ZM903.939,695.839h-2.6l0.507-2.379h2.561c0.741,0,.949.481,0.78,1.274A1.137,1.137,0,0,1,903.939,695.839Zm0.559-3.12H902l0.4-1.885h2.5c0.754,0,.91.234,0.767,0.9A1.079,1.079,0,0,1,904.5,692.719Zm0.494,0.351a1.539,1.539,0,0,0,1.6-1.456c0.182-.819.052-1.56-1.391-1.56h-3.471l-1.391,6.565h3.588a2.1,2.1,0,0,0,2.2-1.859C906.305,693.876,906.149,693.109,904.992,693.07Zm5.07,3.731a3.285,3.285,0,0,0,2.171-.715,1.552,1.552,0,0,0,.442.806l0.767-.546a1.338,1.338,0,0,1-.39-0.949,2.582,2.582,0,0,1,.065-0.52l0.962-4.485a6.509,6.509,0,0,0-2.548-.52c-2.028,0-3.133.754-3.692,3.445a7.616,7.616,0,0,0-.182,1.482C907.657,696.307,908.463,696.8,910.062,696.8Zm1.3-6.123a5.13,5.13,0,0,1,1.755.273l-0.871,4.121c-0.13.6-1.04,0.923-2.015,0.923-1.131,0-1.638-.3-1.638-1.313a6.946,6.946,0,0,1,.182-1.352C909.243,691.107,909.828,690.678,911.362,690.678Zm7.179,4.251c-0.3-1.638-.663-3.237-1.053-4.875H916.07l-1.391,6.565h0.845l1.236-5.811c0.4,1.69.767,3.64,1.066,5.343h0.793c0.962-1.664,2.2-3.614,3.38-5.343l-1.235,5.811h0.845L923,690.054h-1.365C920.53,691.679,919.529,693.252,918.541,694.929Zm10.438,2a39.2,39.2,0,0,0-.949-6.877h0.949a42.726,42.726,0,0,1,.793,5.811,66.36,66.36,0,0,0,3.3-5.811H934c-1.131,2.2-2.458,4.381-3.836,6.565-0.52.819-1.209,1.82-1.716,2.5h-0.988C927.926,698.491,928.511,697.646,928.979,696.931Zm4.692-.312c1.833-2.548,2.821-3.055,3.666-3.2l-0.676,3.2h0.845l0.676-3.2c0.754,0.143,1.547.65,2.314,3.2h0.988c-0.962-3.016-1.547-3.276-2.132-3.549a35.6,35.6,0,0,0,3.328-3.016h-1.027c-1.5,1.456-2.8,2.626-3.419,3.133l0.663-3.133h-0.845l-0.663,3.133a28.419,28.419,0,0,1-2.093-3.133h-1.027a17.728,17.728,0,0,0,2.054,3.016c-0.715.273-1.4,0.533-3.64,3.549h0.988Zm12.745-6.747c-1.95,0-3.133.858-3.679,3.432-0.572,2.691.338,3.5,2.327,3.5a9.5,9.5,0,0,0,2.223-.364l-0.026-.78a7.3,7.3,0,0,1-1.963.351c-1.521,0-2.093-.455-1.651-2.587h4.693C948.925,690.626,948.275,689.872,946.416,689.872Zm-0.169.793c1.209,0,1.56.351,1.287,1.989h-3.718C944.258,691.107,944.869,690.665,946.247,690.665Zm9.334,3.8a3.939,3.939,0,0,0,2.015-.533l-0.559,2.691h0.845l1.391-6.565h-0.845l-0.572,2.678c-0.13.6-1.079,0.923-2.015,0.923-1.313,0-1.638-.4-1.222-2.4l0.26-1.2h-0.845l-0.286,1.365C953.228,693.811,953.8,694.461,955.581,694.461Zm8.318-4.589c-1.95,0-3.133.858-3.679,3.432-0.572,2.691.338,3.5,2.327,3.5a9.5,9.5,0,0,0,2.223-.364l-0.026-.78a7.3,7.3,0,0,1-1.963.351c-1.521,0-2.093-.455-1.651-2.587h4.693C966.408,690.626,965.758,689.872,963.9,689.872Zm-0.169.793c1.209,0,1.56.351,1.287,1.989H961.3C961.741,691.107,962.352,690.665,963.73,690.665Zm5.515,6.136a2.336,2.336,0,0,1-1.7-.546l-0.6,2.86H966.1l1.846-8.723a8.341,8.341,0,0,1,2.769-.52c2.028,0,2.808.754,2.249,3.432S971.286,696.8,969.245,696.8Zm1.3-6.123a6.206,6.206,0,0,0-1.872.273l-0.871,4.108c-0.13.611,0.637,0.936,1.612,0.936,1.534,0,2.145-.533,2.6-2.665C972.5,691.094,972.079,690.678,970.545,690.678Zm7.445-.806c-1.95,0-3.133.858-3.679,3.432-0.572,2.691.338,3.5,2.327,3.5a9.5,9.5,0,0,0,2.223-.364l-0.026-.78a7.3,7.3,0,0,1-1.963.351c-1.521,0-2.093-.455-1.651-2.587h4.693C980.5,690.626,979.849,689.872,977.99,689.872Zm-0.169.793c1.209,0,1.56.351,1.287,1.989H975.39C975.832,691.107,976.443,690.665,977.821,690.665Zm6.158,2.431a1.873,1.873,0,0,0,1.937-1.612c0.234-1.066-.468-1.612-2.47-1.612a9.272,9.272,0,0,0-2.119.26l0.065,0.78a5.954,5.954,0,0,1,1.885-.26c1.5,0,1.885.286,1.742,1-0.169.806-.754,1.027-2.054,1.027H981.99l-0.156.741h0.975c1.43,0,1.924.351,1.729,1.274-0.208.988-.754,1.326-2.4,1.326a5.11,5.11,0,0,1-1.833-.26l-0.416.767a7.048,7.048,0,0,0,2.093.273c1.976,0,3.107-.481,3.432-1.963C985.591,693.941,985.37,693.161,983.979,693.1Z" transform="translate(-900.344 -669.562)"/>
</svg>
