<svg xmlns="http://www.w3.org/2000/svg" width="174.282" height="18.688" viewBox="0 0 174.282 18.688">
  <metadata><?xpacket begin="﻿" id="W5M0MpCehiHzreSzNTczkc9d"?>
<x:xmpmeta xmlns:x="adobe:ns:meta/" x:xmptk="Adobe XMP Core 5.6-c142 79.160924, 2017/07/13-01:06:39        ">
   <rdf:RDF xmlns:rdf="http://www.w3.org/1999/02/22-rdf-syntax-ns#">
      <rdf:Description rdf:about=""/>
   </rdf:RDF>
</x:xmpmeta>
                                                                                                    
                                                                                                    
                                                                                                    
                                                                                                    
                                                                                                    
                                                                                                    
                                                                                                    
                                                                                                    
                                                                                                    
                                                                                                    
                                                                                                    
                                                                                                    
                                                                                                    
                                                                                                    
                                                                                                    
                                                                                                    
                                                                                                    
                                                                                                    
                                                                                                    
                                                                                                    
                           
<?xpacket end="w"?></metadata>
<defs>
    <style>
      .cls-1 {
        fill-rule: evenodd;
      }
    </style>
  </defs>
  <path id="В_услугу_включено:" data-name="В услугу включено:" class="cls-1" d="M107.566,582.135h-5.732l1.281-5.963h5.648c1.512,0,1.848,1.3,1.491,3.065C109.876,580.938,109.12,582.135,107.566,582.135Zm1.323-7.2h-5.522l1.05-4.913h5.522c1.533,0,1.743.924,1.428,2.394C111.073,573.715,110.4,574.933,108.889,574.933Zm0.462,0.588c2.667-.231,3.233-1.554,3.611-3.3,0.378-1.827.168-3.465-2.75-3.465h-7.034L100.071,583.4h7.264c2.352,0,3.948-1.407,4.515-4.137C112.291,577.264,112.1,575.647,109.351,575.521Zm12.538,8.378a63.282,63.282,0,0,0-1.533-11.107h1.533a68.965,68.965,0,0,1,1.281,9.385,107.274,107.274,0,0,0,5.333-9.385h1.491c-1.827,3.548-3.969,7.075-6.194,10.6-0.84,1.322-1.953,2.939-2.772,4.031h-1.595C120.189,586.418,121.133,585.053,121.889,583.9Zm14.516-2.058a7.308,7.308,0,0,1-2.687.546c-2.478,0-3.444-.861-2.709-4.3,0.777-3.612,2.058-4.284,4.535-4.284a5.567,5.567,0,0,1,2.478.5l0.714-1.28a9.241,9.241,0,0,0-2.919-.525c-3.275,0-5.4,1.217-6.3,5.543-0.924,4.346.629,5.648,3.926,5.648a9.483,9.483,0,0,0,3.128-.588Zm9.481-7.79-1.973,9.344h1.365l2.246-10.6h-6.446a44.958,44.958,0,0,1-4.388,10.6h1.491a58.67,58.67,0,0,0,3.926-9.344h3.779Zm4.254,9.848a63.282,63.282,0,0,0-1.533-11.107h1.533a68.965,68.965,0,0,1,1.281,9.385,107.532,107.532,0,0,0,5.333-9.385h1.49c-1.826,3.548-3.968,7.075-6.193,10.6-0.84,1.322-1.953,2.939-2.772,4.031h-1.6C148.439,586.418,149.384,585.053,150.14,583.9Zm9.267-11.107-2.247,10.6h1.365l1.974-9.344h5.375l0.273-1.259h-6.74Zm8.131,11.107a63.282,63.282,0,0,0-1.533-11.107h1.533a68.965,68.965,0,0,1,1.281,9.385,107.532,107.532,0,0,0,5.333-9.385h1.49c-1.826,3.548-3.968,7.075-6.193,10.6-0.84,1.322-1.953,2.939-2.772,4.031h-1.6C165.837,586.418,166.782,585.053,167.538,583.9Zm18.962-1.764h-4.2l0.819-3.842h4.136c1.2,0,1.533.776,1.26,2.057A1.836,1.836,0,0,1,186.5,582.135Zm0.9-5.039h-4.031l0.65-3.045h4.032c1.218,0,1.469.378,1.239,1.449A1.742,1.742,0,0,1,187.4,577.1Zm0.8,0.567a2.486,2.486,0,0,0,2.582-2.352c0.294-1.323.084-2.519-2.246-2.519h-5.606l-2.247,10.6h5.8a3.388,3.388,0,0,0,3.548-3C190.321,578.965,190.069,577.726,188.2,577.663Zm11.822,5.732c-1.826-4.871-2.792-5.333-3.842-5.774a59.285,59.285,0,0,0,5.753-4.829H200.17c-2.666,2.393-4.976,4.325-6.067,5.1l1.091-5.1H193.83l-2.247,10.6h1.365l1.092-5.186c1.385,0.231,2.834,1.007,4.3,5.186h1.679Zm9.19-9.344-1.974,9.344H208.6l2.247-10.6h-6.446a45.043,45.043,0,0,1-4.388,10.6h1.49a58.674,58.674,0,0,0,3.927-9.344h3.779Zm11.327,9.638c-3.044,0-4.3-1.26-3.443-5.459h-3.465l-1.091,5.165h-1.365l2.246-10.6h1.365l-0.9,4.241h3.486c0.965-3.506,2.729-4.535,5.543-4.535,3.086,0,4.346,1.217,3.443,5.543C225.432,582.387,223.647,583.689,220.54,583.689Zm2.1-9.932c-2.268,0-3.276.714-4.053,4.326-0.734,3.443-.063,4.346,2.205,4.346,2.289,0,3.338-.9,4.073-4.346C225.642,574.471,224.928,573.757,222.64,573.757Zm8.687,6.152a6.361,6.361,0,0,0,3.254-.861l-0.9,4.347h1.365l2.247-10.6h-1.365L235,577.117c-0.21.966-1.743,1.491-3.254,1.491-2.121,0-2.646-.651-1.974-3.885l0.42-1.931h-1.365l-0.462,2.2C227.526,578.86,228.45,579.909,231.327,579.909Zm12.981-7.411c-3.149,0-5.06,1.385-5.942,5.543-0.924,4.346.546,5.648,3.758,5.648a15.34,15.34,0,0,0,3.591-.588l-0.042-1.26a11.784,11.784,0,0,1-3.171.567c-2.456,0-3.38-.735-2.666-4.178h7.579C248.36,573.715,247.31,572.5,244.308,572.5Zm-0.273,1.28c1.953,0,2.52.567,2.079,3.213h-6C240.823,574.492,241.809,573.778,244.035,573.778Zm12.459,4.452L255.4,583.4h1.365l2.246-10.6h-1.364l-0.9,4.241h-5.732l0.9-4.241h-1.365l-2.247,10.6h1.365l1.092-5.165h5.732Zm7.208,5.459c-3.3,0-4.536-1.3-3.612-5.648,0.9-4.326,2.709-5.543,5.984-5.543,3.3,0,4.556,1.217,3.653,5.543C268.8,582.387,267.019,583.689,263.7,583.689Zm2.1-9.89c-2.477,0-3.443.672-4.22,4.284-0.735,3.443-.084,4.3,2.394,4.3,2.5,0,3.485-.861,4.22-4.3C268.972,574.471,268.3,573.8,265.8,573.8Zm5.755,7.433a1.032,1.032,0,0,0-1.281,1.029c-0.21.966,0.042,1.134,0.84,1.134a1.106,1.106,0,0,0,1.344-1.134C272.648,581.358,272.417,581.232,271.556,581.232Zm1.806-8.44a1.056,1.056,0,0,0-1.3,1.028c-0.21.987,0.042,1.134,0.84,1.134a1.1,1.1,0,0,0,1.343-1.134C274.453,572.918,274.222,572.792,273.362,572.792Z" transform="translate(-100.062 -568.75)"/>
</svg>
