<svg xmlns="http://www.w3.org/2000/svg" width="127.372" height="26.281" viewBox="0 0 127.372 26.281">
  <metadata><?xpacket begin="﻿" id="W5M0MpCehiHzreSzNTczkc9d"?>
<x:xmpmeta xmlns:x="adobe:ns:meta/" x:xmptk="Adobe XMP Core 5.6-c142 79.160924, 2017/07/13-01:06:39        ">
   <rdf:RDF xmlns:rdf="http://www.w3.org/1999/02/22-rdf-syntax-ns#">
      <rdf:Description rdf:about=""/>
   </rdf:RDF>
</x:xmpmeta>
                                                                                                    
                                                                                                    
                                                                                                    
                                                                                                    
                                                                                                    
                                                                                                    
                                                                                                    
                                                                                                    
                                                                                                    
                                                                                                    
                                                                                                    
                                                                                                    
                                                                                                    
                                                                                                    
                                                                                                    
                                                                                                    
                                                                                                    
                                                                                                    
                                                                                                    
                                                                                                    
                           
<?xpacket end="w"?></metadata>
<defs>
    <style>
      .cls-1 {
        fill-rule: evenodd;
      }
    </style>
  </defs>
  <path id="_3_минуты" data-name="3 минуты" class="cls-1" d="M903.6,722.178h2.872c2.611,0,3.6.726,3.6,3.017,0,2.176-.841,2.93-4.728,2.93a22.516,22.516,0,0,1-5.163-.58l-0.726,3.306a34.19,34.19,0,0,0,6.643.726c5.743,0,8.122-1.48,8.122-5.86,0-3.045-.9-5.076-4.728-5.25,3.6-.319,4.322-2.176,4.322-4.844,0-3.655-1.857-5.163-7.658-5.163a32.9,32.9,0,0,0-6.556.754l0.755,3.307a20.88,20.88,0,0,1,5.076-.639c3.568,0,4.351.639,4.351,2.466,0,1.972-.928,2.582-3.394,2.582H903.6v3.248Zm30.19,3.017c-1.247-3.075-2.465-5.946-3.829-8.789h-5.25v14.765h3.568V720.409c1.3,2.843,2.872,6.991,3.945,9.891h2.7c1.074-2.9,2.7-6.961,4.061-9.891v10.762h3.568V716.406H937.53C936.2,719.22,934.977,722.062,933.788,725.2Zm21.614,5.976H959V716.406h-3.6a76.884,76.884,0,0,1-6,9.4v-9.4h-3.6v14.765h3.6a73.855,73.855,0,0,0,6-9.022v9.022Zm16.233-6.266v6.266h3.6V716.406h-3.6v5.424h-5.8v-5.424h-3.6v14.765h3.6v-6.266h5.8Zm10.613,6.991c-0.725,1.6-1.625,3.452-2.408,4.844h4c0.754-1.45,1.6-3.307,2.292-4.96a142.554,142.554,0,0,0,5.6-15.374h-3.655a106.856,106.856,0,0,1-3.655,11.2,103.317,103.317,0,0,0-3.655-11.2h-3.742A142.213,142.213,0,0,1,982.248,731.9Zm19.092-12.357h5.11v-3.133H992.669v3.133h5.076v11.632h3.6V719.539Zm14.91,8.963h-4.35v-3.974h4.29c1.13,0,1.71.522,1.71,1.943C1017.9,727.922,1017.35,728.5,1016.25,728.5Zm-4.35-6.759v-5.337h-3.6v14.765h8.79c3.02,0,4.58-1.277,4.58-4.758,0-3.074-1.56-4.67-4.58-4.67h-5.19Zm14.91-5.337h-3.6v14.765h3.6V716.406Z" transform="translate(-899.438 -710.469)"/>
</svg>
