<svg xmlns="http://www.w3.org/2000/svg" width="118.844" height="11.844" viewBox="0 0 118.844 11.844">
  <metadata><?xpacket begin="﻿" id="W5M0MpCehiHzreSzNTczkc9d"?>
<x:xmpmeta xmlns:x="adobe:ns:meta/" x:xmptk="Adobe XMP Core 5.6-c142 79.160924, 2017/07/13-01:06:39        ">
   <rdf:RDF xmlns:rdf="http://www.w3.org/1999/02/22-rdf-syntax-ns#">
      <rdf:Description rdf:about=""/>
   </rdf:RDF>
</x:xmpmeta>
                                                                                                    
                                                                                                    
                                                                                                    
                                                                                                    
                                                                                                    
                                                                                                    
                                                                                                    
                                                                                                    
                                                                                                    
                                                                                                    
                                                                                                    
                                                                                                    
                                                                                                    
                                                                                                    
                                                                                                    
                                                                                                    
                                                                                                    
                                                                                                    
                                                                                                    
                                                                                                    
                           
<?xpacket end="w"?></metadata>
<defs>
    <style>
      .cls-1 {
        fill-rule: evenodd;
      }
    </style>
  </defs>
  <path id="Узнать_подробности" data-name="Узнать подробности" class="cls-1" d="M815.132,342.619h-1.118c0.6-.624,1.352-1.469,1.924-2.21a34.858,34.858,0,0,0-1.729-6.852h1.066a34.551,34.551,0,0,1,1.456,5.864c1.378-1.937,2.938-4.186,3.874-5.864h0.975A80.072,80.072,0,0,1,815.132,342.619Zm8.358-3.523a1.873,1.873,0,0,0,1.937-1.612c0.234-1.066-.468-1.612-2.47-1.612a9.272,9.272,0,0,0-2.119.26l0.065,0.78a5.954,5.954,0,0,1,1.885-.26c1.5,0,1.885.286,1.742,1-0.169.806-.754,1.027-2.054,1.027H821.5l-0.156.741h0.975c1.43,0,1.924.351,1.729,1.274-0.208.988-.754,1.326-2.4,1.326a5.11,5.11,0,0,1-1.833-.26l-0.416.767a7.048,7.048,0,0,0,2.093.273c1.976,0,3.107-.481,3.432-1.963C825.1,339.941,824.881,339.161,823.49,339.1Zm7.732,0.325-0.676,3.2h0.845l1.391-6.565h-0.845l-0.559,2.626h-3.549l0.559-2.626h-0.845l-1.391,6.565H827l0.676-3.2h3.549Zm4.741,3.38a3.285,3.285,0,0,0,2.171-.715,1.552,1.552,0,0,0,.442.806l0.767-.546a1.338,1.338,0,0,1-.39-0.949,2.582,2.582,0,0,1,.065-0.52l0.962-4.485a6.509,6.509,0,0,0-2.548-.52c-2.028,0-3.133.754-3.692,3.445a7.616,7.616,0,0,0-.182,1.482C833.558,342.307,834.364,342.8,835.963,342.8Zm1.3-6.123a5.13,5.13,0,0,1,1.755.273l-0.871,4.121c-0.13.6-1.04,0.923-2.015,0.923-1.131,0-1.638-.3-1.638-1.313a6.946,6.946,0,0,1,.182-1.352C835.144,337.107,835.729,336.678,837.263,336.678Zm6.648,0.156h2.574l0.169-.78h-5.993l-0.169.78h2.574l-1.222,5.785h0.845Zm5.485,5h-2.535l0.52-2.418h2.535c0.741,0,1.014.286,0.832,1.17A1.252,1.252,0,0,1,849.4,341.839Zm-1.859-3.159,0.559-2.626h-0.845l-1.391,6.565h3.38a2.2,2.2,0,0,0,2.444-2.041c0.273-1.287-.182-1.9-1.612-1.9h-2.535Zm14.755-1.846-1.222,5.785h0.845l1.391-6.565h-5.24l-1.391,6.565h0.845l1.223-5.785h3.549Zm4.2,5.967c-2.041,0-2.808-.806-2.236-3.5s1.677-3.432,3.7-3.432,2.821,0.754,2.262,3.432S868.543,342.8,866.489,342.8Zm1.3-6.123c-1.534,0-2.132.416-2.613,2.652-0.455,2.132-.052,2.665,1.482,2.665s2.158-.533,2.613-2.665C869.752,337.094,869.336,336.678,867.789,336.678Zm3.552,5.161a27.522,27.522,0,0,0,2.288-5.785h3.991l-1.235,5.785h1.2l-0.741,2.444H876.2l0.364-1.664h-5.6l-0.364,1.664h-0.625l0.287-2.444h1.079Zm2.925-5a34.334,34.334,0,0,1-2.041,5h3.315l1.066-5h-2.34Zm6.848,5.967a2.336,2.336,0,0,1-1.7-.546l-0.6,2.86h-0.845l1.846-8.723a8.341,8.341,0,0,1,2.769-.52c2.028,0,2.808.754,2.249,3.432S883.155,342.8,881.114,342.8Zm1.3-6.123a6.206,6.206,0,0,0-1.872.273l-0.871,4.108c-0.13.611,0.637,0.936,1.612,0.936,1.534,0,2.145-.533,2.6-2.665C884.364,337.094,883.948,336.678,882.414,336.678Zm6,6.123c-2.041,0-2.808-.806-2.236-3.5s1.677-3.432,3.705-3.432,2.821,0.754,2.262,3.432S890.47,342.8,888.416,342.8Zm1.3-6.123c-1.534,0-2.132.416-2.613,2.652-0.455,2.132-.052,2.665,1.482,2.665s2.158-.533,2.613-2.665C891.679,337.094,891.263,336.678,889.716,336.678Zm10.432-3.394a7.838,7.838,0,0,1-2.431.533c-2.119.195-3.172,0.937-4.069,5.162-0.611,2.86.1,3.822,1.911,3.822,2.028,0,3.133-.754,3.679-3.3s-0.221-3.367-2.028-3.367a2.839,2.839,0,0,0-2.275.923c0.559-1.612.923-2.275,2.613-2.431a8.037,8.037,0,0,0,2.431-.521Zm-5.694,6.189c0.416-1.937.923-2.535,2.548-2.535,1.326,0,1.729.533,1.3,2.535-0.442,2.106-1.04,2.522-2.574,2.522C894.545,342,894.077,341.241,894.454,339.473Zm10.8-.052-0.676,3.2h0.845l1.391-6.565h-0.845l-0.559,2.626h-3.549l0.559-2.626h-0.845l-1.391,6.565h0.845l0.676-3.2h3.549ZM910,342.8c-2.042,0-2.809-.806-2.237-3.5s1.678-3.432,3.706-3.432,2.821,0.754,2.262,3.432S912.054,342.8,910,342.8Zm1.3-6.123c-1.534,0-2.132.416-2.613,2.652-0.455,2.132-.052,2.665,1.482,2.665s2.158-.533,2.613-2.665C913.263,337.094,912.847,336.678,911.3,336.678Zm8.049,4.979a4.527,4.527,0,0,1-1.664.338c-1.534,0-2.132-.533-1.677-2.665,0.481-2.236,1.274-2.652,2.808-2.652a3.446,3.446,0,0,1,1.534.312l0.442-.793a5.721,5.721,0,0,0-1.807-.325c-2.028,0-3.341.754-3.9,3.432s0.39,3.5,2.431,3.5a5.874,5.874,0,0,0,1.937-.364Zm4.919-4.823h2.574l0.169-.78h-5.993l-0.169.78h2.574l-1.222,5.785h0.845Zm6.343,5.785h0.845l1.391-6.565H932c-1.534,1.9-3.107,3.731-4.693,5.343l1.144-5.343h-0.845l-1.391,6.565h0.845a65.22,65.22,0,0,0,4.641-5.161Z" transform="translate(-814 -333.281)"/>
</svg>
