<svg xmlns="http://www.w3.org/2000/svg" width="167.969" height="11.656" viewBox="0 0 167.969 11.656">
  <metadata><?xpacket begin="﻿" id="W5M0MpCehiHzreSzNTczkc9d"?>
<x:xmpmeta xmlns:x="adobe:ns:meta/" x:xmptk="Adobe XMP Core 5.6-c142 79.160924, 2017/07/13-01:06:39        ">
   <rdf:RDF xmlns:rdf="http://www.w3.org/1999/02/22-rdf-syntax-ns#">
      <rdf:Description rdf:about=""/>
   </rdf:RDF>
</x:xmpmeta>
                                                                                                    
                                                                                                    
                                                                                                    
                                                                                                    
                                                                                                    
                                                                                                    
                                                                                                    
                                                                                                    
                                                                                                    
                                                                                                    
                                                                                                    
                                                                                                    
                                                                                                    
                                                                                                    
                                                                                                    
                                                                                                    
                                                                                                    
                                                                                                    
                                                                                                    
                                                                                                    
                           
<?xpacket end="w"?></metadata>
<defs>
    <style>
      .cls-1 {
        fill: #fff;
        fill-rule: evenodd;
      }
    </style>
  </defs>
  <path id="Отправить_заявку" data-name="Отправить заявку" class="cls-1" d="M824.868,581.356c-3.538,0-5.315,1.217-5.315,5.746,0,4.61,1.761,5.907,5.315,5.907,3.537,0,5.3-1.3,5.3-5.907C830.166,582.573,828.405,581.356,824.868,581.356Zm0,9.748c-2.449,0-3.058-.608-3.058-3.97,0-3.377.609-3.873,3.058-3.873s3.057,0.5,3.057,3.873C827.925,590.5,827.317,591.1,824.868,591.1Zm12.095,1.681v-9.332h3.762v-1.825h-9.652v1.825h3.761v9.332h2.129Zm7.327-9.332h4.77v9.332h2.081V581.628h-8.964v11.157h2.113v-9.332Zm11.776,3.89v-3.922h3.153c0.865,0,1.329.656,1.329,2.017,0,1.264-.5,1.9-1.377,1.9h-3.105Zm0,5.442V589.1h3.746c2.144,0,3.057-1.728,3.057-3.649,0-2.177-.752-3.826-3.105-3.826h-5.811v11.157h2.113Zm16.13,0h2.337c-1.248-2.977-2.881-7.571-4.018-11.157H867.2c-1.36,3.33-2.993,7.827-4.034,11.157h2.209c0.256-.849.545-1.793,0.865-2.785h4.882C871.492,591.024,871.876,591.984,872.2,592.785Zm-3.233-9.364c0.432,1.441.976,3.121,1.552,4.77H866.8c0.576-1.681,1.168-3.329,1.729-4.77h0.432Zm8.783,7.587v-3.217H881.2c0.768,0,1.137.592,1.137,1.648,0,1.009-.3,1.569-1.073,1.569h-3.521Zm0-7.587h3.425c0.72,0,.961.416,0.961,1.313,0,0.832-.257,1.344-0.961,1.344h-3.425v-2.657Zm4.306,3.457c2-.176,2.32-1.1,2.32-2.577,0-1.632-.512-2.673-2.737-2.673h-6v11.157h6.1c1.793,0,2.882-.865,2.882-3.057C884.613,588.063,884.18,586.974,882.052,586.878Zm14.529-5.25h-2.545c-1.5,2.785-3.2,5.635-4.93,8.42v-8.42h-2.081v11.157h2.769c1.633-2.545,3.249-5.346,4.722-8.068v8.068h2.065V581.628Zm7.357,11.157v-9.332H907.7v-1.825h-9.652v1.825h3.762v9.332h2.128Zm7.327-1.777v-3.649h3.346c0.816,0,1.248.624,1.248,1.84,0,1.185-.352,1.809-1.2,1.809h-3.394Zm-2.113-9.38v11.157h6.1c2,0,2.9-1.329,2.9-3.586,0-2.017-.8-3.6-2.993-3.6h-3.89v-3.97h-2.113Zm16.929,6.195h1.825c1.44,0,2.065.4,2.065,1.664,0,1.2-.625,1.617-2.77,1.617a13.864,13.864,0,0,1-3.009-.336l-0.4,1.841a20.624,20.624,0,0,0,3.826.4c3.169,0,4.641-.816,4.641-3.233,0-1.681-.5-2.8-2.609-2.9,1.985-.176,2.353-1.2,2.353-2.673,0-2.017-1.136-2.849-4.385-2.849a19.859,19.859,0,0,0-3.762.416l0.416,1.825a12.886,12.886,0,0,1,2.929-.352c2.081,0,2.561.352,2.561,1.36,0,1.089-.48,1.425-1.9,1.425h-1.777v1.793Zm16.066,4.962h2.337c-1.248-2.977-2.881-7.571-4.017-11.157h-3.314c-1.36,3.33-2.993,7.827-4.033,11.157h2.209c0.256-.849.544-1.793,0.864-2.785h4.882C941.443,591.024,941.827,591.984,942.147,592.785Zm-3.233-9.364c0.432,1.441.976,3.121,1.553,4.77h-3.714c0.576-1.681,1.169-3.329,1.729-4.77h0.432Zm13.041,3.361H948.8c-0.816,0-1.3-.544-1.3-1.632,0-1.169.464-1.729,1.248-1.729h3.2v3.361Zm-3.874,1.121c-1.312.208-2.033,0.816-3.473,4.882h2.433c1.12-3.7,1.856-4.258,3.137-4.258h1.777v4.258h2.113V581.628h-5.811c-2.353,0-3.1,1.457-3.1,3.25A2.714,2.714,0,0,0,948.081,587.9Zm10.912,3.105v-3.217h3.457c0.769,0,1.137.592,1.137,1.648,0,1.009-.3,1.569-1.073,1.569h-3.521Zm0-7.587h3.425c0.721,0,.961.416,0.961,1.313,0,0.832-.256,1.344-0.961,1.344h-3.425v-2.657Zm4.306,3.457c2-.176,2.321-1.1,2.321-2.577,0-1.632-.513-2.673-2.738-2.673h-6v11.157h6.1c1.793,0,2.882-.865,2.882-3.057C965.86,588.063,965.427,586.974,963.3,586.878Zm14.289,5.907c-1.9-4.978-3.026-5.7-4.354-6.147a33.484,33.484,0,0,0,4.082-5.01h-2.562a38.438,38.438,0,0,1-4.369,5.378v-5.378h-2.113v11.157h2.113v-5.3c1.969,0.176,3.089,1.04,4.69,5.3h2.513Zm4.941-5.122a47.241,47.241,0,0,0-2.769-6.035h-2.513a59.193,59.193,0,0,1,3.97,8.324,29.192,29.192,0,0,1-1.857,2.833h2.657a78.61,78.61,0,0,0,5.522-11.157h-2.385A58.7,58.7,0,0,1,982.529,587.663Z" transform="translate(-819.562 -581.344)"/>
</svg>
