<svg xmlns="http://www.w3.org/2000/svg" width="190.188" height="29.562" viewBox="0 0 190.188 29.562">
  <metadata><?xpacket begin="﻿" id="W5M0MpCehiHzreSzNTczkc9d"?>
<x:xmpmeta xmlns:x="adobe:ns:meta/" x:xmptk="Adobe XMP Core 5.6-c142 79.160924, 2017/07/13-01:06:39        ">
   <rdf:RDF xmlns:rdf="http://www.w3.org/1999/02/22-rdf-syntax-ns#">
      <rdf:Description rdf:about=""/>
   </rdf:RDF>
</x:xmpmeta>
                                                                                                    
                                                                                                    
                                                                                                    
                                                                                                    
                                                                                                    
                                                                                                    
                                                                                                    
                                                                                                    
                                                                                                    
                                                                                                    
                                                                                                    
                                                                                                    
                                                                                                    
                                                                                                    
                                                                                                    
                                                                                                    
                                                                                                    
                                                                                                    
                                                                                                    
                                                                                                    
                           
<?xpacket end="w"?></metadata>
<defs>
    <style>
      .cls-1 {
        fill-rule: evenodd;
      }
    </style>
  </defs>
  <path id="Крутите_колесико_мыши_для_перемещения_по_странице" data-name="Крутите колесико мыши для перемещения по странице" class="cls-1" d="M542.71,560.917c-1.547-4.043-2.457-4.628-3.536-4.992a27.182,27.182,0,0,0,3.315-4.069h-2.08a31.251,31.251,0,0,1-3.549,4.368v-4.368h-1.716v9.061h1.716v-4.3c1.6,0.143,2.509.845,3.809,4.3h2.041Zm2.445-5.226a3.937,3.937,0,0,1,1.287-.2c1.144,0,1.521.325,1.521,2.145,0,1.638-.377,2.093-1.508,2.093-0.715,0-1.3-.247-1.3-0.637v-3.406Zm-1.612,7.722h1.612v-2.691a3.287,3.287,0,0,0,1.586.377c1.768,0,2.873-.806,2.873-3.5s-0.988-3.5-3.172-3.5a8.616,8.616,0,0,0-2.9.494v8.814Zm8.815-2.171c-0.325.715-.728,1.547-1.079,2.171h1.795c0.338-.65.715-1.482,1.027-2.223a63.837,63.837,0,0,0,2.509-6.89h-1.638a47.98,47.98,0,0,1-1.638,5.018A46.606,46.606,0,0,0,551.7,554.3h-1.677A63.751,63.751,0,0,1,552.358,561.242Zm8.614-5.538h2.288v-1.4h-6.175v1.4h2.275v5.213h1.612V555.7Zm7.489,5.213h1.612V554.3h-1.612a34.484,34.484,0,0,1-2.691,4.212V554.3h-1.612v6.617h1.612a33.086,33.086,0,0,0,2.691-4.043v4.043Zm6.4-5.213h2.288v-1.4h-6.175v1.4h2.275v5.213h1.612V555.7Zm8.224,3.757a8.038,8.038,0,0,1-1.859.273c-1.157,0-1.7-.286-1.716-1.7h4.277c0.117-3.211-.793-3.926-2.886-3.926-1.924,0-3.081.819-3.081,3.471,0,2.717,1.3,3.523,3.211,3.523a8.342,8.342,0,0,0,2.314-.364Zm-2.093-4.082c0.923,0,1.261.247,1.313,1.417H579.52C579.624,555.7,579.975,555.379,580.989,555.379Zm13.416,5.538c-1.391-2.912-2-3.328-2.665-3.588a22.057,22.057,0,0,0,2.509-3.029h-1.911c-1.066,1.417-2.041,2.613-2.561,3.185V554.3h-1.612v6.617h1.612v-3.068c0.845,0.182,1.625.715,2.743,3.068h1.885Zm3.5,0.182c2.132,0,3.172-.806,3.172-3.523s-1.053-3.471-3.172-3.471c-2.093,0-3.146.767-3.146,3.471S595.8,561.1,597.9,561.1Zm0-5.681c1.157,0,1.508.286,1.508,2.184,0,1.833-.351,2.184-1.508,2.184-1.131,0-1.482-.351-1.482-2.184C596.42,555.7,596.771,555.418,597.9,555.418Zm8.356,0.286v5.213h1.612V554.3h-4.94a28.615,28.615,0,0,1-1.157,6.617h1.69a25.732,25.732,0,0,0,1-5.213h1.794Zm8.164,3.757a8.038,8.038,0,0,1-1.859.273c-1.157,0-1.7-.286-1.716-1.7h4.277c0.117-3.211-.793-3.926-2.886-3.926-1.924,0-3.081.819-3.081,3.471,0,2.717,1.3,3.523,3.211,3.523a8.342,8.342,0,0,0,2.314-.364Zm-2.093-4.082c0.923,0,1.261.247,1.313,1.417H610.86C610.964,555.7,611.315,555.379,612.329,555.379Zm8.75,4a4.234,4.234,0,0,1-1.534.312c-1.17,0-1.729-.338-1.729-2.093,0-1.833.559-2.093,1.729-2.093a4.668,4.668,0,0,1,1.534.286l0.364-1.378a6.9,6.9,0,0,0-2.015-.312c-2,0-3.276.767-3.276,3.471s1.261,3.523,3.276,3.523a6.3,6.3,0,0,0,2.015-.338Zm5.611,1.534H628.3V554.3H626.69A34.484,34.484,0,0,1,624,558.512V554.3h-1.612v6.617H624a33.086,33.086,0,0,0,2.691-4.043v4.043Zm9.375,0c-1.391-2.912-2-3.328-2.665-3.588a22.057,22.057,0,0,0,2.509-3.029H634c-1.066,1.417-2.041,2.613-2.561,3.185V554.3h-1.612v6.617h1.612v-3.068c0.845,0.182,1.625.715,2.743,3.068h1.885Zm3.5,0.182c2.132,0,3.172-.806,3.172-3.523s-1.053-3.471-3.172-3.471c-2.093,0-3.146.767-3.146,3.471S637.456,561.1,639.562,561.1Zm0-5.681c1.157,0,1.508.286,1.508,2.184,0,1.833-.351,2.184-1.508,2.184-1.131,0-1.482-.351-1.482-2.184C638.08,555.7,638.431,555.418,639.562,555.418Zm11.739,2.821c-0.559-1.378-1.105-2.665-1.716-3.939h-2.353v6.617h1.6v-4.823c0.585,1.274,1.287,3.133,1.768,4.433h1.209c0.481-1.3,1.209-3.12,1.82-4.433v4.823h1.6V554.3h-2.249C652.38,555.561,651.834,556.835,651.3,558.239Zm9.022,1.482h-1.95V557.94H660.3a0.708,0.708,0,0,1,.767.871C661.064,559.461,660.817,559.721,660.323,559.721Zm-1.95-3.029V554.3h-1.612v6.617H660.7c1.352,0,2.054-.572,2.054-2.132a1.847,1.847,0,0,0-2.054-2.093h-2.327Zm6.682-2.392h-1.612v6.617h1.612V554.3Zm10.881,0h-1.612v5.213h-2.249V554.3h-1.612v5.213H668.2V554.3h-1.613v6.617h9.348V554.3Zm5.849,6.617H683.4V554.3h-1.612a34.484,34.484,0,0,1-2.691,4.212V554.3h-1.612v6.617h1.612a33.086,33.086,0,0,0,2.691-4.043v4.043ZM536.158,572.3a24.439,24.439,0,0,1-.923,5.213h-1.183l0.364,3.237h1.3v-1.833h4.992v1.833H542l0.377-3.237H541.1V572.3h-4.94Zm3.328,1.4v3.809h-2.561a23.056,23.056,0,0,0,.7-3.809h1.859Zm7.977,0v5.213h1.612V572.3h-4.94a28.615,28.615,0,0,1-1.157,6.617h1.69a25.732,25.732,0,0,0,1-5.213h1.794Zm7.522,1.586h-1.847a0.736,0.736,0,0,1-.819-0.858,0.692,0.692,0,0,1,.78-0.832h1.886v1.69Zm-2.523.767c-0.923.13-1.417,0.572-2.353,2.86h1.846c0.741-2,1.17-2.353,2.028-2.353h1v2.353H556.6V572.3H552.67a1.8,1.8,0,0,0-2.093,1.937A1.7,1.7,0,0,0,552.462,576.057ZM562.94,573.7h2.6v5.213h1.612V572.3h-5.824v6.617h1.612V573.7Zm10.764,3.757a8.038,8.038,0,0,1-1.859.273c-1.157,0-1.7-.286-1.716-1.7h4.277c0.117-3.211-.793-3.926-2.886-3.926-1.924,0-3.081.819-3.081,3.471,0,2.717,1.3,3.523,3.211,3.523a8.342,8.342,0,0,0,2.314-.364Zm-2.093-4.082c0.923,0,1.261.247,1.313,1.417h-2.782C570.246,573.7,570.6,573.379,571.611,573.379Zm5.579,0.312a3.937,3.937,0,0,1,1.287-.2c1.145,0,1.522.325,1.522,2.145,0,1.638-.377,2.093-1.509,2.093-0.715,0-1.3-.247-1.3-0.637v-3.406Zm-1.612,7.722h1.612v-2.691a3.287,3.287,0,0,0,1.586.377c1.769,0,2.874-.806,2.874-3.5s-0.988-3.5-3.173-3.5a8.616,8.616,0,0,0-2.9.494v8.814ZM588,577.461a8.038,8.038,0,0,1-1.859.273c-1.157,0-1.7-.286-1.716-1.7H588.7c0.117-3.211-.793-3.926-2.886-3.926-1.924,0-3.081.819-3.081,3.471,0,2.717,1.3,3.523,3.211,3.523a8.342,8.342,0,0,0,2.314-.364Zm-2.093-4.082c0.923,0,1.261.247,1.313,1.417h-2.782C584.543,573.7,584.894,573.379,585.908,573.379Zm8.061,2.86c-0.559-1.378-1.105-2.665-1.716-3.939H589.9v6.617h1.6v-4.823c0.585,1.274,1.287,3.133,1.768,4.433h1.209c0.481-1.3,1.209-3.12,1.82-4.433v4.823h1.6V572.3h-2.25C595.048,573.561,594.5,574.835,593.969,576.239Zm10.478,1.222a8.038,8.038,0,0,1-1.859.273c-1.157,0-1.7-.286-1.716-1.7h4.277c0.117-3.211-.793-3.926-2.886-3.926-1.924,0-3.081.819-3.081,3.471,0,2.717,1.3,3.523,3.211,3.523a8.342,8.342,0,0,0,2.314-.364Zm-2.093-4.082c0.923,0,1.261.247,1.313,1.417h-2.782C600.989,573.7,601.34,573.379,602.354,573.379ZM615.5,580.75h1.3c0.13-1.079.247-2.158,0.377-3.237h-1.482V572.3h-1.612v5.213h-2.25V572.3H610.22v5.213h-2.262V572.3h-1.612v6.617H615.5v1.833Zm7.612-3.289a8.038,8.038,0,0,1-1.859.273c-1.157,0-1.7-.286-1.716-1.7h4.277c0.117-3.211-.793-3.926-2.886-3.926-1.924,0-3.081.819-3.081,3.471,0,2.717,1.3,3.523,3.211,3.523a8.342,8.342,0,0,0,2.314-.364Zm-2.093-4.082c0.923,0,1.261.247,1.313,1.417h-2.782C619.653,573.7,620,573.379,621.018,573.379Zm8.2,2.73v2.808h1.612V572.3h-1.612v2.431h-2.6V572.3H625.01v6.617h1.612v-2.808h2.6Zm7.445,2.808h1.612V572.3h-1.612a34.484,34.484,0,0,1-2.691,4.212V572.3h-1.612v6.617h1.612a33.086,33.086,0,0,0,2.691-4.043v4.043Zm7.515-3.627h-1.846a0.736,0.736,0,0,1-.819-0.858,0.692,0.692,0,0,1,.78-0.832h1.885v1.69Zm-2.522.767c-0.923.13-1.417,0.572-2.353,2.86h1.846c0.741-2,1.17-2.353,2.028-2.353h1v2.353h1.612V572.3h-3.926a1.8,1.8,0,0,0-2.093,1.937A1.7,1.7,0,0,0,641.66,576.057Zm10.478-2.353h2.6v5.213h1.612V572.3h-5.824v6.617h1.612V573.7Zm8.663,5.4c2.132,0,3.172-.806,3.172-3.523s-1.053-3.471-3.172-3.471c-2.093,0-3.146.767-3.146,3.471S658.7,579.1,660.8,579.1Zm0-5.681c1.157,0,1.508.286,1.508,2.184,0,1.833-.351,2.184-1.508,2.184-1.131,0-1.482-.351-1.482-2.184C659.319,573.7,659.67,573.418,660.8,573.418Zm12.363,3.965a4.234,4.234,0,0,1-1.534.312c-1.17,0-1.729-.338-1.729-2.093,0-1.833.559-2.093,1.729-2.093a4.668,4.668,0,0,1,1.534.286l0.364-1.378a6.9,6.9,0,0,0-2.015-.312c-2,0-3.276.767-3.276,3.471s1.261,3.523,3.276,3.523a6.3,6.3,0,0,0,2.015-.338Zm4.779-3.679h2.288v-1.4h-6.176v1.4h2.276v5.213h1.612V573.7Zm4.8-.013a3.937,3.937,0,0,1,1.287-.2c1.144,0,1.521.325,1.521,2.145,0,1.638-.377,2.093-1.508,2.093-0.715,0-1.3-.247-1.3-0.637v-3.406Zm-1.612,7.722h1.612v-2.691a3.287,3.287,0,0,0,1.586.377c1.768,0,2.873-.806,2.873-3.5s-0.988-3.5-3.172-3.5a8.616,8.616,0,0,0-2.9.494v8.814Zm12.917-6.734c0-1.976-.9-2.574-2.86-2.574a11,11,0,0,0-2.64.351l0.3,1.326a6.237,6.237,0,0,1,2-.3c1.379,0,1.652.26,1.652,1.417a7.81,7.81,0,0,0-1.639-.182c-1.547,0-2.6.3-2.6,2.171,0,1.729.7,2.21,2.795,2.21a9.207,9.207,0,0,0,2.991-.52v-3.9Zm-1.547,2.964a4.228,4.228,0,0,1-1.326.221c-0.976,0-1.223-.143-1.223-1.04,0-.845.325-0.949,1.236-0.949a6.567,6.567,0,0,1,1.313.117v1.651Zm7.247-1.534v2.808h1.612V572.3h-1.612v2.431h-2.6V572.3h-1.612v6.617h1.612v-2.808h2.6Zm7.445,2.808H708.8V572.3h-1.612a34.484,34.484,0,0,1-2.691,4.212V572.3h-1.612v6.617H704.5a33.086,33.086,0,0,0,2.691-4.043v4.043Zm8.959-1.4V572.3h-1.612v5.213h-2.6V572.3h-1.612v6.617h5.629v1.833h1.3l0.377-3.237H716.15Zm7.4-.052a8.038,8.038,0,0,1-1.859.273c-1.157,0-1.7-.286-1.716-1.7h4.277c0.117-3.211-.793-3.926-2.886-3.926-1.924,0-3.081.819-3.081,3.471,0,2.717,1.3,3.523,3.211,3.523a8.342,8.342,0,0,0,2.314-.364Zm-2.093-4.082c0.923,0,1.261.247,1.313,1.417h-2.782C720.1,573.7,720.448,573.379,721.462,573.379Z" transform="translate(-534.062 -551.844)"/>
</svg>
