<svg width="86" height="85" xmlns="http://www.w3.org/2000/svg" xmlns:xlink="http://www.w3.org/1999/xlink" xmlns:svgjs="http://svgjs.com/svgjs" viewBox="0.5 0 85 85" fill="#32325f"><svg xmlns="http://www.w3.org/2000/svg" width="86" height="85" viewBox="0.359 0 85 85"><path paint-order="stroke fill markers" fill-rule="evenodd" d="M85.36 33.546a1.66 1.66 0 0 0-.94-1.506L56.86 18.758a1.66 1.66 0 0 0-1.463.01l-5.898 2.95V1.66A1.66 1.66 0 0 0 47.84 0h-9.961a1.66 1.66 0 0 0-1.66 1.66v20.058l-5.898-2.95c-.46-.229-1-.233-1.463-.01L1.299 32.04a1.66 1.66 0 0 0 .02 3l11.041 5.136L1.32 45.31a1.66 1.66 0 0 0-.02 3l13.337 6.429v15.318c0 .629.355 1.204.917 1.485l26.563 13.281c.015.008.032.013.047.02a1.56 1.56 0 0 0 .202.078l.076.023c.046.012.092.02.14.028.022.004.045.01.069.013.062.007.125.012.188.013h.022c.07 0 .141-.005.212-.014.017-.002.035-.006.052-.01.052-.008.104-.018.155-.032.024-.005.047-.013.07-.02.045-.014.089-.03.133-.047.025-.01.05-.02.075-.032.015-.007.03-.012.044-.02l26.562-13.28a1.66 1.66 0 0 0 .918-1.486V54.74l13.338-6.428a1.66 1.66 0 0 0-.021-3l-11.04-5.136 11.04-5.136a1.66 1.66 0 0 0 .96-1.494zM39.54 3.32h6.64v23.574c0 .917.743 1.66 1.66 1.66h1.66l-6.64 8.855-5.917-7.888-.725-.966h1.66a1.66 1.66 0 0 0 1.661-1.66V3.32zm3.32 48.28L20.008 40.177l15.109-7.555 6.413 8.55a1.66 1.66 0 0 0 2.657 0l6.412-8.55 15.11 7.555L42.86 51.6zM29.563 22.104l6.263 3.131h-2.929a1.66 1.66 0 0 0-1.328 2.656l1.523 2.032-16.822 8.41-10.372-4.824 23.665-11.405zM16.271 42.02l22.876 11.438-9.583 4.791L5.9 46.843l10.372-4.824zm51.49 27.013L44.52 80.653V66.738a1.66 1.66 0 1 0-3.32 0v13.915L17.956 69.032V56.339l10.9 5.254c.463.223 1.003.22 1.464-.01l12.538-6.27 12.539 6.27c.46.23 1 .233 1.463.01l10.9-5.254v12.693zM56.155 58.248l-9.583-4.791 22.877-11.438 10.372 4.824-23.666 11.405zm13.294-19.915L52.625 29.92l1.523-2.031a1.66 1.66 0 0 0-1.328-2.656h-2.928l6.262-3.131 23.665 11.405-10.371 4.825z"/></svg></svg>