<svg width="86" height="85" xmlns="http://www.w3.org/2000/svg" xmlns:xlink="http://www.w3.org/1999/xlink" xmlns:svgjs="http://svgjs.com/svgjs" viewBox="684 1139 86 85"><svg width="11" height="24" xmlns="http://www.w3.org/2000/svg" xmlns:xlink="http://www.w3.org/1999/xlink" xmlns:svgjs="http://svgjs.com/svgjs" viewBox="0.302 0 10.396 24" x="728" y="1145"><svg xmlns="http://www.w3.org/2000/svg" xmlns:xlink="http://www.w3.org/1999/xlink" width="11" height="24" viewBox="0.081 0.639 10.065 23.236"><path paint-order="stroke fill markers" fill-rule="evenodd" d="M3.506 2.299v1.945a4.987 4.987 0 0 0-3.32 4.693 4.985 4.985 0 0 0 4.98 4.98c.915 0 1.66.744 1.66 1.66 0 .914-.745 1.659-1.66 1.659-.709 0-1.475-.446-2.155-1.256A1.66 1.66 0 0 0 .47 18.116c.887 1.055 1.93 1.79 3.036 2.162v1.937a1.66 1.66 0 1 0 3.32 0V20.27a4.988 4.988 0 0 0 3.32-4.694 4.985 4.985 0 0 0-4.98-4.979c-.915 0-1.66-.745-1.66-1.66 0-.915.745-1.66 1.66-1.66.588 0 1.209.3 1.795.868A1.66 1.66 0 0 0 9.27 5.76c-.843-.815-1.686-1.277-2.445-1.528V2.299a1.66 1.66 0 1 0-3.319 0z"/></svg></svg><svg width="37" height="37" xmlns="http://www.w3.org/2000/svg" xmlns:xlink="http://www.w3.org/1999/xlink" xmlns:svgjs="http://svgjs.com/svgjs" viewBox="0 0 36.999 37" fill="#32325f" x="715" y="1139"><svg xmlns="http://www.w3.org/2000/svg" xmlns:xlink="http://www.w3.org/1999/xlink" width="37" height="37" viewBox="0.241 0 36.513 36.514"><path paint-order="stroke fill markers" fill-rule="evenodd" d="M.241 18.256c0 10.067 8.19 18.258 18.257 18.258 10.067 0 18.256-8.19 18.256-18.258C36.754 8.19 28.564 0 18.498 0 8.43 0 .24 8.19.24 18.256zm33.194 0c0 8.237-6.7 14.938-14.937 14.938-8.237 0-14.938-6.701-14.938-14.938 0-8.235 6.701-14.936 14.938-14.936 8.237 0 14.937 6.7 14.937 14.936z"/></svg></svg><svg width="86" height="50" xmlns="http://www.w3.org/2000/svg" xmlns:xlink="http://www.w3.org/1999/xlink" xmlns:svgjs="http://svgjs.com/svgjs" viewBox="0.301 0 85.398 50" fill="#32325f" x="684" y="1174"><svg xmlns="http://www.w3.org/2000/svg" width="86" height="50" viewBox="0.039 0.248 84.973 49.752"><path paint-order="stroke fill markers" fill-rule="evenodd" d="M19.156 49.509a1.66 1.66 0 0 0 2.342.014l8.047-7.928c1.367-1.367 1.783-3.39 1.181-5.15l1.731-1.67a4.95 4.95 0 0 1 3.456-1.396h22.064a14.86 14.86 0 0 0 10.419-4.232c.115-.112-.876 1.056 15.052-17.982 2.363-2.795 2.01-6.992-.788-9.357-2.78-2.343-6.945-2.006-9.314.74l-9.794 10.067a6.67 6.67 0 0 0-5.16-2.471H39.885a21.412 21.412 0 0 0-8.312-1.66c-7.992 0-14.97 3.692-18.715 10.612a4.957 4.957 0 0 0-4.44 1.376L.524 28.39a1.66 1.66 0 0 0-.002 2.34L19.156 49.51zm12.417-37.706c2.542 0 5 .512 7.306 1.521.21.092.437.14.666.14h18.847c1.8 0 3.32 1.467 3.32 3.319 0 1.83-1.49 3.32-3.32 3.32H44.851a1.66 1.66 0 0 0 0 3.318h13.541a6.646 6.646 0 0 0 6.58-7.506C74.446 6.176 75.782 4.808 75.84 4.74a3.33 3.33 0 0 1 4.68-.396 3.326 3.326 0 0 1 .389 4.685L66.022 26.825a11.557 11.557 0 0 1-8.045 3.235H35.913a8.251 8.251 0 0 0-5.761 2.327l-1.41 1.361-13.003-13.001c3.039-5.701 8.741-8.944 15.834-8.944zM10.768 22.818a1.656 1.656 0 0 1 2.055-.234c.287.175-.538-.576 14.375 14.316.663.664.628 1.72.009 2.34l-6.86 6.757L4.04 29.565l6.729-6.747z"/></svg></svg></svg>