<svg width="74" height="85" xmlns="http://www.w3.org/2000/svg" xmlns:xlink="http://www.w3.org/1999/xlink" xmlns:svgjs="http://svgjs.com/svgjs" viewBox="393 1139 74 85"><svg width="74" height="85" xmlns="http://www.w3.org/2000/svg" xmlns:xlink="http://www.w3.org/1999/xlink" xmlns:svgjs="http://svgjs.com/svgjs" viewBox="0.386 0 73.228 85" fill="#32325f" x="393" y="1139"><svg xmlns="http://www.w3.org/2000/svg" xmlns:xlink="http://www.w3.org/1999/xlink" width="74" height="85" viewBox="0 0 73.228 85"><path paint-order="stroke fill markers" fill-rule="evenodd" d="M73.228 67.364c0-9.129-10.397-16.288-19.309-16.627l-4.546-4.085c5.537-4.04 8.898-10.533 8.898-17.433V18.262C58.271 8.192 50.053 0 39.951 0h-6.64C23.223 0 15.107 8.163 15.107 18.262v10.957A21.696 21.696 0 0 0 23.89 46.62l-4.58 4.116C10.415 51.075 0 58.217 0 67.364V83.34C0 84.257.743 85 1.66 85h69.908a1.66 1.66 0 0 0 1.66-1.66V67.364zm-40.291 6.679h7.345l1.74 7.637H31.146l1.792-7.637zm7.488-3.32H32.83l-1.273-3.969 5.057-2.528 5.165 2.584-1.355 3.913zm-3.81-11.485l-5.77-9.23c1.874.522 3.82.792 5.786.792 1.947 0 3.88-.265 5.743-.777l-5.76 9.215zm2.375 2.464l7.971-12.754 4.299 3.862-5.47 12.293-6.8-3.401zM33.31 3.32h6.641c8.271 0 15 6.703 15 14.942v1.372l-3.117-4.49a1.66 1.66 0 0 0-2.55-.213c-3.375 3.451-7.283 4.99-12.67 4.99-5.385 0-9.293-1.539-12.67-4.99a1.66 1.66 0 0 0-2.558.225l-2.958 4.335v-1.23c0-8.238 6.676-14.94 14.883-14.94zM18.429 29.22v-3.837l4.61-6.757c3.694 3.142 8.06 4.617 13.577 4.617 5.523 0 9.891-1.478 13.586-4.627l4.75 6.84v3.764c0 9.942-8.126 18.261-18.32 18.261-10.16 0-18.203-8.293-18.203-18.261zm7.839 19.73l7.972 12.753-6.801 3.4-5.47-12.292 4.299-3.861zM3.32 67.364c0-6.839 8.314-12.744 15.58-13.281l6.21 13.956a1.661 1.661 0 0 0 2.26.81l1.183-.592 1.347 4.195-2.165 9.228H3.32V67.364zM69.907 81.68H45.428l-2.097-9.203 1.444-4.17 1.083.542a1.66 1.66 0 0 0 2.26-.81l6.21-13.956c7.266.537 15.58 6.442 15.58 13.281V81.68z"/></svg></svg><svg width="4" height="4" xmlns="http://www.w3.org/2000/svg" xmlns:xlink="http://www.w3.org/1999/xlink" xmlns:svgjs="http://svgjs.com/svgjs" fill="#32325f" x="436" y="1165"><svg xmlns="http://www.w3.org/2000/svg" xmlns:xlink="http://www.w3.org/1999/xlink" width="4" height="4" viewBox="0.255 0.562 3.32 3.32"><path paint-order="stroke fill markers" fill-rule="evenodd" d="M1.916 3.883A1.66 1.66 0 1 0 1.914.56a1.66 1.66 0 0 0 .002 3.322z"/></svg></svg><svg width="4" height="4" xmlns="http://www.w3.org/2000/svg" xmlns:xlink="http://www.w3.org/1999/xlink" xmlns:svgjs="http://svgjs.com/svgjs" fill="#32325f" x="419" y="1165"><svg xmlns="http://www.w3.org/2000/svg" width="4" height="4" viewBox="0.654 0.562 3.32 3.32"><path paint-order="stroke fill markers" fill-rule="evenodd" d="M2.314 3.883A1.66 1.66 0 1 0 2.313.56a1.66 1.66 0 0 0 .001 3.322z"/></svg></svg></svg>