<svg width="32" height="32" xmlns="http://www.w3.org/2000/svg"><path d="M30-.002H8a2 2 0 0 0-2 2v4H2a1.998 1.998 0 0 0-2 2v14c0 1.105.894 2 2 2h4v6a2 2 0 0 0 3.414 1.414l7.414-7.414H24a1.998 1.998 0 0 0 2-2v-4h4a1.999 1.999 0 0 0 2-2v-14a2 2 0 0 0-2-2zm-7 22a1 1 0 0 0 1-1v-12a1 1 0 0 0-1-1H3a1 1 0 0 0-1 1v12a1 1 0 0 0 1 1h4c.553 0 1 .447 1 1v7l7.414-7.414s.395-.394.993-.535c.138-.033.28-.05.42-.05H23zm6-6a1 1 0 0 0 1-1v-12a1 1 0 0 0-1-1H9a1 1 0 0 0-1 1v3h16a1.998 1.998 0 0 1 2 2v8h3zm-10 0H7a1 1 0 0 0 0 2h12a1 1 0 1 0 0-2zm-12-2h5a1 1 0 1 0 0-2H7a1 1 0 1 0 0 2z" fill="#6fa40b" fill-rule="evenodd"/></svg>