<svg width="28" height="32.001" xmlns="http://www.w3.org/2000/svg"><path d="M26-.002H2A2 2 0 0 0 0 2v28c0 1.105.894 2 2 2h24a1.999 1.999 0 0 0 2-2v-28a2 2 0 0 0-2-2zm0 29a1 1 0 0 1-1 1H3a1 1 0 0 1-1-1v-26A1 1 0 0 1 3 2h22a1 1 0 0 1 1 1v26zm-5-18H7a1 1 0 1 0 0 2.001h14a1 1 0 1 0 0-2.001zm0 8H7a1 1 0 1 0 0 2h14a1 1 0 1 0 0-2zm0-4H7a1 1 0 1 0 0 2h14a.999.999 0 1 0 0-2zM21 23H7a.999.999 0 1 0 0 1.999h14a.998.998 0 1 0 0-1.999zM7 8.998h6a.999.999 0 1 0 0-1.999H7a.999.999 0 1 0 0 1.999z" fill="#6fa40b" fill-rule="evenodd"/></svg>