<svg width="31.997" height="32.001" xmlns="http://www.w3.org/2000/svg"><path d="M30.389 7.998H7.75c-.404 0-.537-.45-.554-.518a.307.307 0 0 1-.002-.008L6.154 1.749a3.118 3.118 0 0 0-.22-.711c-.25-.545-.653-.85-1.233-.975a3.36 3.36 0 0 0-.7-.065h-3a1 1 0 1 0 0 2h2.766c.045 0 .09.007.135.02.301.09.36.48.367.545v.009l3.578 19.665 1.11 4.578a2.988 2.988 0 0 0-.956 2.183 3.004 3.004 0 0 0 3 3c1.302 0 2.402-.839 2.816-2h6.369a2.996 2.996 0 0 0 2.815 2 3.004 3.004 0 0 0 3-3 3.004 3.004 0 0 0-3-3c-1.302 0-2.401.84-2.815 2h-6.37a2.996 2.996 0 0 0-2.815-2 .34.34 0 0 0-.05.004h-.005a.363.363 0 0 1-.035.005l-.518-2.009H27c1.406 0 1.875-.672 2.19-1.78l2.685-11.75c.041-.183.073-.368.096-.554.12-1.022-.155-1.805-1.32-1.905A3.086 3.086 0 0 0 30.39 8zm-.637 2.49l-2.446 11.005s-.055.505-.617.505H10.267c-.321 0-.44-.228-.49-.384l-.037-.146-1.983-10.901s-.224-.57.479-.57h21.047c.59 0 .484.438.47.486v.005zm-5.75 1.51a1 1 0 0 0-1 1v6a1 1 0 1 0 2 0v-6a1 1 0 0 0-1-1zm-5 0a1 1 0 0 0-1 1v6a1 1 0 1 0 2 0v-6a1 1 0 0 0-1-1zm-5 0a1 1 0 0 0-1 1v6a1 1 0 1 0 2 0v-6a1 1 0 0 0-1-1zm9 16a1 1 0 1 1 0 2 1 1 0 0 1 0-2zm-11 1A1 1 0 1 1 10 28.997a1 1 0 0 1 2.001 0z" fill="#6fa40b" fill-rule="evenodd"/></svg>