<svg xmlns="http://www.w3.org/2000/svg" width="133.594" height="12.593" viewBox="0 0 133.594 12.593">
  <metadata><?xpacket begin="﻿" id="W5M0MpCehiHzreSzNTczkc9d"?>
<x:xmpmeta xmlns:x="adobe:ns:meta/" x:xmptk="Adobe XMP Core 5.6-c142 79.160924, 2017/07/13-01:06:39        ">
   <rdf:RDF xmlns:rdf="http://www.w3.org/1999/02/22-rdf-syntax-ns#">
      <rdf:Description rdf:about=""/>
   </rdf:RDF>
</x:xmpmeta>
                                                                                                    
                                                                                                    
                                                                                                    
                                                                                                    
                                                                                                    
                                                                                                    
                                                                                                    
                                                                                                    
                                                                                                    
                                                                                                    
                                                                                                    
                                                                                                    
                                                                                                    
                                                                                                    
                                                                                                    
                                                                                                    
                                                                                                    
                                                                                                    
                                                                                                    
                                                                                                    
                           
<?xpacket end="w"?></metadata>
<defs>
    <style>
      .cls-1 {
        fill-rule: evenodd;
      }
    </style>
  </defs>
  <path id="Marketing_Web" data-name="Marketing &amp; Web" class="cls-1" d="M542.825,160.229V150.9h-1.919l-2.956,7.69L535,150.9h-1.961v9.329h1.26v-7.97l3.068,7.97H538.5l3.039-7.97v7.97h1.289Zm10.368-.953a0.8,0.8,0,0,1-.434.112c-0.407,0-.575-0.252-0.575-0.784v-3.446c0-1.681-1.162-2.381-2.815-2.381a4.916,4.916,0,0,0-2.914.924l0.561,0.925a3.823,3.823,0,0,1,2.269-.771c0.77,0,1.653.253,1.653,1.065,0,0.924-1.191.924-2.312,1.079-1.036.14-2.521,0.49-2.521,2.185a2.191,2.191,0,0,0,2.479,2.213,2.938,2.938,0,0,0,2.508-1.219,1.3,1.3,0,0,0,1.414,1.163,2.52,2.52,0,0,0,.841-0.14Zm-2.227-1.849a1.907,1.907,0,0,1-2.1,1.961,1.279,1.279,0,0,1-1.513-1.232c0-.9.686-1.093,1.513-1.233,0.9-.154,1.61-0.14,2.1-0.756v1.26Zm9.48-4.356a1.871,1.871,0,0,0-.994-0.266,2.572,2.572,0,0,0-2.115,1.373v-1.233h-1.219v7.284h1.219v-3.8c0-1.569.91-2.424,1.877-2.424a1.737,1.737,0,0,1,.84.225Zm3.942,3.642v-6.486H563.17v10h1.218v-2.073l1.4-1.415,2.633,3.488h1.541l-3.32-4.3,2.942-2.984h-1.541Zm14.416-.308a3.4,3.4,0,0,0-3.474-3.628,3.814,3.814,0,0,0,.154,7.62,3.9,3.9,0,0,0,3-1.275l-0.813-.8a2.842,2.842,0,0,1-2.157.952,2.307,2.307,0,0,1-2.451-2.4h5.715A3.413,3.413,0,0,0,578.8,156.405Zm-5.715-.462a2.23,2.23,0,0,1,4.454,0h-4.454Zm12.45,3.039a1.489,1.489,0,0,1-.938.308,1.058,1.058,0,0,1-1.121-1.26v-4.077h2.353v-1.008H583.48V150.9h-1.219v2.045H581v1.008h1.26v4.077a2.5,2.5,0,0,0,.309,1.442,2.082,2.082,0,0,0,1.9.925,2.507,2.507,0,0,0,1.582-.49Zm4.517,1.247v-7.284h-1.219v7.284h1.219Zm0-8.713v-1.289h-1.219v1.289h1.219Zm4.806,8.713V156.2a2.153,2.153,0,0,1,2.2-2.27,1.594,1.594,0,0,1,1.625,1.891v4.413H599.9v-4.693a2.452,2.452,0,0,0-2.549-2.759,2.9,2.9,0,0,0-2.493,1.373v-1.205h-1.219v7.284h1.219Zm15.3-7.284h-1.219v1.205a2.959,2.959,0,0,0-2.605-1.373,3.354,3.354,0,0,0-3.348,3.572,3.29,3.29,0,0,0,3.292,3.53,3.091,3.091,0,0,0,2.661-1.359V159.3c0,1.709-1.134,2.4-2.619,2.4a4.138,4.138,0,0,1-2.438-.757l-0.616.995a5.223,5.223,0,0,0,3.04.868,3.906,3.906,0,0,0,3.067-1.134,3.712,3.712,0,0,0,.785-2.62v-6.107Zm-1.2,3.376a2.3,2.3,0,0,1-2.381,2.465,2.235,2.235,0,0,1-2.3-2.465,2.208,2.208,0,0,1,2.3-2.424A2.259,2.259,0,0,1,608.956,156.321Zm16.73-.42a5.973,5.973,0,0,1-.868,1.806l-2.269-2.3c1.414-.658,2.157-1.443,2.157-2.549,0-1.289-1.023-2.129-2.522-2.129a2.249,2.249,0,0,0-2.549,2.227,3,3,0,0,0,1.079,2.171,2.882,2.882,0,0,0-2.129,2.634c0,1.666,1.442,2.633,3.249,2.633a4.443,4.443,0,0,0,2.928-1.079l0.924,0.911H627.3l-1.709-1.723a6.911,6.911,0,0,0,1.205-2.325Zm-3.7,3.417c-1.26,0-2.129-.672-2.129-1.7a2.048,2.048,0,0,1,1.513-1.779l2.633,2.69A2.915,2.915,0,0,1,621.988,159.318Zm1.6-6.387c0,0.882-.84,1.345-1.737,1.765a2.665,2.665,0,0,1-1.05-1.751A1.409,1.409,0,0,1,623.585,152.931Zm23.636-2.031h-1.359l-1.975,7.69-2.255-7.69h-1.261l-2.255,7.662-1.989-7.662H634.74l2.55,9.329h1.5l2.186-7.564,2.185,7.564h1.457Zm9.133,5.5a3.4,3.4,0,0,0-3.473-3.628,3.814,3.814,0,0,0,.154,7.62,3.9,3.9,0,0,0,3-1.275l-0.812-.8a2.844,2.844,0,0,1-2.157.952,2.308,2.308,0,0,1-2.452-2.4h5.715A3.413,3.413,0,0,0,656.354,156.405Zm-5.715-.462a2.23,2.23,0,0,1,4.455,0h-4.455Zm8.82-5.716v10h1.218v-1.191a3.006,3.006,0,0,0,2.592,1.359c2.059,0,3.348-1.653,3.348-3.81s-1.275-3.81-3.348-3.81a2.988,2.988,0,0,0-2.592,1.373v-3.923h-1.218Zm1.218,6.374a2.393,2.393,0,0,1,2.354-2.69c1.541,0,2.283,1.205,2.283,2.69s-0.742,2.675-2.283,2.675A2.381,2.381,0,0,1,660.677,156.6Z" transform="translate(-533.031 -150.219)"/>
</svg>
