<svg xmlns="http://www.w3.org/2000/svg" width="129.188" height="9.468" viewBox="0 0 129.188 9.468">
  <metadata><?xpacket begin="﻿" id="W5M0MpCehiHzreSzNTczkc9d"?>
<x:xmpmeta xmlns:x="adobe:ns:meta/" x:xmptk="Adobe XMP Core 5.6-c142 79.160924, 2017/07/13-01:06:39        ">
   <rdf:RDF xmlns:rdf="http://www.w3.org/1999/02/22-rdf-syntax-ns#">
      <rdf:Description rdf:about=""/>
   </rdf:RDF>
</x:xmpmeta>
                                                                                                    
                                                                                                    
                                                                                                    
                                                                                                    
                                                                                                    
                                                                                                    
                                                                                                    
                                                                                                    
                                                                                                    
                                                                                                    
                                                                                                    
                                                                                                    
                                                                                                    
                                                                                                    
                                                                                                    
                                                                                                    
                                                                                                    
                                                                                                    
                                                                                                    
                                                                                                    
                           
<?xpacket end="w"?></metadata>
<defs>
    <style>
      .cls-1 {
        fill: #fff;
        fill-rule: evenodd;
      }
    </style>
  </defs>
  <path id="перезвоните_мне" data-name="перезвоните мне" class="cls-1" d="M857.536,131.04h3.874v7.579h1.69v-9.062h-7.28v9.062h1.716V131.04Zm7.852-1.483v9.062h6.578v-1.482H867.1V134.6h3.471v-1.469H867.1V131.04h4.862v-1.483h-6.578Zm9.776,4.642v-3.185h2.561c0.7,0,1.079.533,1.079,1.638,0,1.027-.4,1.547-1.118,1.547h-2.522Zm0,4.42v-2.99h3.042c1.742,0,2.483-1.4,2.483-2.964,0-1.768-.611-3.108-2.522-3.108h-4.719v9.062h1.716Zm7.033-9.062v9.062h6.578v-1.482h-4.862V134.6h3.471v-1.469h-3.471V131.04h4.862v-1.483H882.2Zm9.425,5.032H893.1c1.17,0,1.677.325,1.677,1.352,0,0.975-.507,1.313-2.249,1.313a11.257,11.257,0,0,1-2.444-.273l-0.325,1.5a16.747,16.747,0,0,0,3.107.325c2.574,0,3.77-.663,3.77-2.626,0-1.365-.4-2.275-2.119-2.353,1.612-.143,1.911-0.975,1.911-2.171,0-1.639-.923-2.315-3.562-2.315a16.125,16.125,0,0,0-3.055.338l0.338,1.483a10.463,10.463,0,0,1,2.379-.286c1.69,0,2.08.286,2.08,1.1,0,0.884-.39,1.157-1.547,1.157h-1.443v1.456Zm8.7,2.587v-2.613h2.808c0.624,0,.923.481,0.923,1.339,0,0.819-.247,1.274-0.871,1.274h-2.86Zm0-6.162H903.1c0.585,0,.78.338,0.78,1.066,0,0.676-.208,1.092-0.78,1.092h-2.782v-2.158Zm3.5,2.808c1.625-.143,1.885-0.9,1.885-2.093,0-1.327-.416-2.172-2.223-2.172H898.6v9.062h4.953c1.456,0,2.34-.7,2.34-2.483C905.9,134.784,905.545,133.9,903.816,133.822Zm7.9-4.486c-2.873,0-4.316.988-4.316,4.668,0,3.744,1.43,4.8,4.316,4.8s4.3-1.053,4.3-4.8C916.023,130.324,914.593,129.336,911.72,129.336Zm0,7.918c-1.989,0-2.483-.494-2.483-3.224s0.494-3.146,2.483-3.146,2.483,0.4,2.483,3.146S913.709,137.254,911.72,137.254Zm7.864-2.652h3.875v4.017h1.69v-9.062h-1.69v3.459h-3.875v-3.459h-1.716v9.062h1.716V134.6Zm15.614-5.045h-2.067c-1.223,2.263-2.6,4.577-4,6.839v-6.839h-1.69v9.062h2.249c1.326-2.067,2.639-4.342,3.836-6.552v6.552H935.2v-9.062Zm5.979,9.062V131.04h3.055v-1.483h-7.839v1.483h3.055v7.579h1.729Zm4.238-9.062v9.062h6.578v-1.482h-4.862V134.6H950.6v-1.469h-3.471V131.04h4.862v-1.483h-6.578Zm16.406,5.8c-0.754-1.885-1.69-4.03-2.548-5.8h-2.34v9.062h1.651v-6.747c0.793,1.742,1.729,4.134,2.431,5.915h1.339c0.728-1.781,1.7-4.108,2.522-5.915v6.747h1.677v-9.062H964.33C963.485,131.3,962.536,133.458,961.821,135.356Zm8.736-.754h3.874v4.017h1.69v-9.062h-1.69v3.459h-3.874v-3.459h-1.716v9.062h1.716V134.6Zm7.852-5.045v9.062h6.578v-1.482h-4.862V134.6H983.6v-1.469h-3.471V131.04h4.862v-1.483h-6.578Z" transform="translate(-855.812 -129.344)"/>
</svg>
