<svg xmlns="http://www.w3.org/2000/svg" width="165.874" height="19.625" viewBox="0 0 165.874 19.625">
  <metadata><?xpacket begin="﻿" id="W5M0MpCehiHzreSzNTczkc9d"?>
<x:xmpmeta xmlns:x="adobe:ns:meta/" x:xmptk="Adobe XMP Core 5.6-c142 79.160924, 2017/07/13-01:06:39        ">
   <rdf:RDF xmlns:rdf="http://www.w3.org/1999/02/22-rdf-syntax-ns#">
      <rdf:Description rdf:about=""/>
   </rdf:RDF>
</x:xmpmeta>
                                                                                                    
                                                                                                    
                                                                                                    
                                                                                                    
                                                                                                    
                                                                                                    
                                                                                                    
                                                                                                    
                                                                                                    
                                                                                                    
                                                                                                    
                                                                                                    
                                                                                                    
                                                                                                    
                                                                                                    
                                                                                                    
                                                                                                    
                                                                                                    
                                                                                                    
                                                                                                    
                           
<?xpacket end="w"?></metadata>
<defs>
    <style>
      .cls-1 {
        fill-rule: evenodd;
      }
    </style>
  </defs>
  <path id="_7_900_541-11-97" data-name="+7 (900) 541-11-97" class="cls-1" d="M834.912,92.195h3.476v3.5h2.261v-3.5h3.5V89.953h-3.5v-3.5h-2.261v3.5h-3.476v2.242Zm20.14-7.485H844.888v2.166h6.839a58.278,58.278,0,0,0-5.243,11.075h2.831a74.337,74.337,0,0,1,5.737-12.481V84.71Zm6.8,8.511c0,6.022,1.843,8.777,4.179,9.822l1.083-1.767c-1.538-.741-2.773-2.716-2.773-8.055,0-5.357,1.235-7.314,2.773-8.055L866.034,83.4C863.7,84.444,861.855,87.2,861.855,93.22Zm8.079,4.73h3.115c2.489-2.413,4.635-5.205,4.635-8.986,0-3.571-1.063-4.578-5.053-4.578-3.647,0-4.977,1.121-4.977,4.483,0,2.964,1.178,3.989,4.9,3.989,0.342,0,1.2-.038,1.653-0.095A20.842,20.842,0,0,1,869.934,97.951Zm2.887-7.219c-2.128,0-2.546-.342-2.546-1.976,0-1.482.4-2.128,2.356-2.128,1.824,0,2.413.3,2.413,2.6a5.4,5.4,0,0,1-.171,1.368A14.325,14.325,0,0,1,872.821,90.732Zm11.7-6.345c-3.287,0-4.977,1.406-4.977,6.763,0,5.433,1.69,7.067,4.977,7.067,3.305,0,4.977-1.634,4.977-7.067C889.5,85.793,887.811,84.387,884.525,84.387Zm0,11.569c-1.938,0-2.47-.817-2.47-4.806,0-4.008.532-4.54,2.47-4.54,1.957,0,2.489.532,2.489,4.54C887.014,95.139,886.482,95.956,884.525,95.956Zm11.964-11.569c-3.286,0-4.977,1.406-4.977,6.763,0,5.433,1.691,7.067,4.977,7.067,3.306,0,4.977-1.634,4.977-7.067C901.466,85.793,899.776,84.387,896.489,84.387Zm0,11.569c-1.938,0-2.47-.817-2.47-4.806,0-4.008.532-4.54,2.47-4.54,1.957,0,2.489.532,2.489,4.54C898.978,95.139,898.446,95.956,896.489,95.956Zm10.555-2.736c0-6.022-1.843-8.777-4.18-9.821l-1.1,1.767c1.539,0.741,2.774,2.717,2.774,8.055,0,5.357-1.235,7.314-2.774,8.055l1.1,1.767C905.2,102,907.044,99.243,907.044,93.22Zm8.17-8.511v7.428a19.377,19.377,0,0,1,3.248-.266c2.432,0,2.85.475,2.85,2.128,0,1.539-.513,1.957-2.964,1.957a13.255,13.255,0,0,1-3.248-.38l-0.494,2.166a21.217,21.217,0,0,0,4.217.475c3.781,0,5.205-.988,5.205-4.35,0-2.963-1.139-4.122-4.863-4.122-0.532,0-1.083.038-1.577,0.076V86.875h5.833V84.71h-8.207Zm17.167,9.841v3.4h2.394v-3.4h1.767V92.48h-1.767V84.71h-3.344a102.952,102.952,0,0,0-5.661,9.062V94.55h6.611Zm0-2.071H928.81a54.18,54.18,0,0,1,3.571-5.6v5.6Zm11.531,5.471V84.159L937.8,86.609l0.7,2.052,2.963-1.273V97.951h2.451Zm3.645-4.217h4.674V91.492h-4.674v2.242Zm11.34,4.217V84.159l-6.117,2.451,0.7,2.052,2.963-1.273V97.951H958.9Zm9.924,0V84.159L962.7,86.609l0.7,2.052,2.964-1.273V97.951h2.451Zm3.645-4.217h4.673V91.492h-4.673v2.242Zm8.435,4.217h3.116c2.488-2.413,4.635-5.205,4.635-8.986,0-3.571-1.064-4.578-5.053-4.578-3.648,0-4.978,1.121-4.978,4.483,0,2.964,1.178,3.989,4.9,3.989,0.342,0,1.2-.038,1.652-0.095A20.82,20.82,0,0,1,980.9,97.951Zm2.888-7.219c-2.128,0-2.546-.342-2.546-1.976,0-1.482.4-2.128,2.356-2.128,1.823,0,2.412.3,2.412,2.6a5.4,5.4,0,0,1-.171,1.368A14.32,14.32,0,0,1,983.789,90.732Zm17-6.022H990.627v2.166h6.839a58.217,58.217,0,0,0-5.243,11.075h2.831a74.336,74.336,0,0,1,5.736-12.481V84.71Z" transform="translate(-834.906 -83.406)"/>
</svg>
