<svg width="83" height="61" xmlns="http://www.w3.org/2000/svg" xmlns:xlink="http://www.w3.org/1999/xlink" xmlns:svgjs="http://svgjs.com/svgjs" viewBox="0 0.133 83 60.735"><svg xmlns="http://www.w3.org/2000/svg" width="83" height="61" viewBox="1 1.997 82 60.003"><path paint-order="stroke fill markers" fill-rule="evenodd" d="M81.491 9.55h-3.61V6.128a1.51 1.51 0 0 0-1.333-1.5L55.63 2.168A24.708 24.708 0 0 0 42 4.44a24.706 24.706 0 0 0-13.63-2.273L7.45 4.628a1.51 1.51 0 0 0-1.332 1.5V9.55h-3.61A1.51 1.51 0 0 0 1 11.06v49.43C1 61.324 1.675 62 2.51 62H81.49A1.51 1.51 0 0 0 83 60.49V11.06a1.51 1.51 0 0 0-1.509-1.51zM55.278 5.168l19.586 2.303v44.924L55.63 50.134a24.701 24.701 0 0 0-12.122 1.61V7.07a21.707 21.707 0 0 1 11.77-1.901zm-26.557 0a21.705 21.705 0 0 1 11.77 1.9v44.675a24.664 24.664 0 0 0-12.122-1.61L9.136 52.395V7.472L28.72 5.17zm51.262 53.81H4.017V12.57H6.12v41.524a1.51 1.51 0 0 0 1.684 1.5l20.918-2.46a21.714 21.714 0 0 1 12.585 2.3c.435.227.953.227 1.388 0a21.711 21.711 0 0 1 12.584-2.3l20.918 2.46a1.507 1.507 0 0 0 1.684-1.5V12.57h2.102V58.98zm-33-45.3a21.709 21.709 0 0 1 8.268-.616l15.705 1.846a1.51 1.51 0 0 0 1.674-1.324 1.51 1.51 0 0 0-1.322-1.676l-15.706-1.847a24.698 24.698 0 0 0-9.41.701 1.51 1.51 0 0 0 .79 2.915zm-34.173 1.24c.058 0 .118-.003.178-.01l15.704-1.846a21.85 21.85 0 0 1 8.268.617 1.51 1.51 0 0 0 .793-2.915 24.858 24.858 0 0 0-9.412-.703L12.635 11.91a1.51 1.51 0 0 0 .175 3.01zm34.173 5.688a21.709 21.709 0 0 1 8.268-.616l15.705 1.846a1.51 1.51 0 0 0 1.674-1.324 1.51 1.51 0 0 0-1.322-1.676l-15.706-1.846a24.703 24.703 0 0 0-9.41.7 1.51 1.51 0 0 0 .79 2.916zm-34.173 1.24c.058 0 .118-.003.178-.01l15.704-1.846a21.857 21.857 0 0 1 8.268.617 1.51 1.51 0 0 0 .793-2.915 24.861 24.861 0 0 0-9.412-.702l-15.706 1.846a1.51 1.51 0 0 0 .175 3.01zm34.173 5.688a21.708 21.708 0 0 1 8.268-.616l15.705 1.847a1.51 1.51 0 0 0 1.674-1.324 1.51 1.51 0 0 0-1.322-1.677L55.602 23.92a24.707 24.707 0 0 0-9.41.7 1.51 1.51 0 0 0 .79 2.916zM12.81 28.776c.058 0 .118-.003.178-.01l15.704-1.847a21.856 21.856 0 0 1 8.268.618 1.51 1.51 0 0 0 .793-2.915 24.865 24.865 0 0 0-9.412-.703l-15.706 1.846a1.51 1.51 0 0 0 .175 3.011zm34.173 5.687a21.703 21.703 0 0 1 8.268-.616l15.705 1.847a1.51 1.51 0 0 0 1.674-1.324 1.51 1.51 0 0 0-1.322-1.677l-15.706-1.846a24.707 24.707 0 0 0-9.41.7 1.51 1.51 0 0 0 .79 2.916zM12.81 35.704c.058 0 .118-.003.178-.01l15.704-1.846a21.85 21.85 0 0 1 8.268.617 1.51 1.51 0 0 0 .793-2.915 24.862 24.862 0 0 0-9.412-.703l-15.706 1.846a1.51 1.51 0 0 0 .175 3.011zm58.498 3.918l-15.705-1.847a24.706 24.706 0 0 0-9.411.7 1.51 1.51 0 0 0 .79 2.916 21.717 21.717 0 0 1 8.269-.615l15.706 1.846a1.51 1.51 0 0 0 1.674-1.324 1.51 1.51 0 0 0-1.323-1.676zm-58.498 3.01c.058 0 .118-.003.178-.01l15.704-1.846a21.856 21.856 0 0 1 8.268.617 1.51 1.51 0 0 0 .793-2.915 24.861 24.861 0 0 0-9.412-.703l-15.706 1.847a1.51 1.51 0 0 0 .175 3.01z"/></svg></svg>