<svg width="73" height="78" xmlns="http://www.w3.org/2000/svg" xmlns:xlink="http://www.w3.org/1999/xlink" xmlns:svgjs="http://svgjs.com/svgjs" viewBox="0.033 0 72.935 78"><svg xmlns="http://www.w3.org/2000/svg" width="73" height="78" viewBox="1 2 72 77"><path paint-order="stroke fill markers" fill-rule="evenodd" d="M67.223 56.375H64.32v-2.86c0-.718-.59-1.3-1.316-1.3h-35.25c-.727 0-1.316.582-1.316 1.3V64.87c0 7.792 6.412 14.13 14.294 14.13h9.294c4.357 0 8.262-1.939 10.886-4.987l6.63-3.24C70.908 69.128 73 65.799 73 62.085c0-3.148-2.592-5.71-5.777-5.71zm-5.535 5.77h-32.62V60.93h32.62v1.214zm0-7.33v3.516h-32.62v-3.516h32.62zM50.025 76.4h-9.294c-6.431 0-11.663-5.172-11.663-11.529v-.124h32.62v.124c0 6.358-5.232 11.53-11.663 11.53zm16.35-7.957l-2.998 1.465c.606-1.566.942-3.263.942-5.037v-5.894h2.904c1.735 0 3.146 1.395 3.146 3.11 0 2.716-1.53 5.152-3.994 6.356zm-40.848 2.545H3.631V14.555h39.521v33.959c0 .718.59 1.3 1.316 1.3.726 0 1.315-.582 1.315-1.3v-35.26c0-.717-.589-1.3-1.315-1.3H2.316c-.727 0-1.316.583-1.316 1.3v59.033c0 .719.59 1.3 1.316 1.3h23.211c.727 0 1.316-.581 1.316-1.3 0-.718-.59-1.3-1.316-1.3zM21.78 19.332c0-.718-.59-1.3-1.316-1.3H8.463c-.727 0-1.316.582-1.316 1.3v9.886c0 .718.59 1.3 1.316 1.3h12.001c.727 0 1.316-.582 1.316-1.3v-9.886zm-2.631 8.586h-9.37v-7.286h9.37v7.286zm1.315 5.403H8.463c-.727 0-1.316.582-1.316 1.3 0 .718.59 1.3 1.316 1.3h12.001c.727 0 1.316-.582 1.316-1.3 0-.718-.59-1.3-1.316-1.3zm0 5.12H8.463c-.727 0-1.316.582-1.316 1.3 0 .719.59 1.3 1.316 1.3h12.001c.727 0 1.316-.581 1.316-1.3 0-.718-.59-1.3-1.316-1.3zm0 5.12H8.463c-.727 0-1.316.582-1.316 1.3 0 .719.59 1.3 1.316 1.3h12.001c.727 0 1.316-.581 1.316-1.3 0-.718-.59-1.3-1.316-1.3zm0 5.12H8.463c-.727 0-1.316.583-1.316 1.3 0 .719.59 1.301 1.316 1.301h12.001c.727 0 1.316-.582 1.316-1.3 0-.718-.59-1.3-1.316-1.3zm0 5.12H8.463c-.727 0-1.316.583-1.316 1.3 0 .719.59 1.301 1.316 1.301h12.001c.727 0 1.316-.582 1.316-1.3 0-.718-.59-1.3-1.316-1.3zm0 5.12H8.463c-.727 0-1.316.583-1.316 1.301s.59 1.3 1.316 1.3h12.001c.727 0 1.316-.582 1.316-1.3 0-.718-.59-1.3-1.316-1.3zm0 5.12H8.463c-.727 0-1.316.583-1.316 1.301s.59 1.3 1.316 1.3h12.001c.727 0 1.316-.582 1.316-1.3 0-.718-.59-1.3-1.316-1.3zm17.856-46.01H26.32c-.727 0-1.315.583-1.315 1.301s.588 1.3 1.315 1.3H38.32c.727 0 1.316-.582 1.316-1.3 0-.718-.59-1.3-1.316-1.3zm0 5.12H26.32c-.727 0-1.315.583-1.315 1.301s.588 1.3 1.315 1.3H38.32c.727 0 1.316-.582 1.316-1.3 0-.718-.59-1.3-1.316-1.3zm0 5.121H26.32c-.727 0-1.315.582-1.315 1.3 0 .718.588 1.3 1.315 1.3H38.32c.727 0 1.316-.582 1.316-1.3 0-.718-.59-1.3-1.316-1.3zm0 5.12H26.32c-.727 0-1.315.582-1.315 1.3 0 .719.588 1.3 1.315 1.3H38.32c.727 0 1.316-.581 1.316-1.3 0-.718-.59-1.3-1.316-1.3zm0 5.393H26.32c-.727 0-1.315.582-1.315 1.3v8.429c0 .718.588 1.3 1.315 1.3H38.32c.727 0 1.316-.582 1.316-1.3v-8.428c0-.719-.59-1.3-1.316-1.3zm-1.315 8.428h-9.37v-5.827h9.37v5.827zm5.135-37.57a1.325 1.325 0 0 0 1.83-.329 11.099 11.099 0 0 1 9.091-4.713c6.092 0 11.049 4.9 11.049 10.922S59.153 26.445 53.06 26.445c-1.492 0-2.939-.289-4.3-.858a1.32 1.32 0 0 0-1.724.691c-.283.662.03 1.424.699 1.704a13.732 13.732 0 0 0 5.325 1.063c7.543 0 13.68-6.066 13.68-13.522C66.74 8.066 60.603 2 53.06 2c-4.489 0-8.696 2.18-11.254 5.834-.413.59-.265 1.4.333 1.809zm6.496 7.18h4.425c.727 0 1.316-.582 1.316-1.3v-4.178c0-.718-.59-1.3-1.316-1.3-.726 0-1.315.582-1.315 1.3v2.877h-3.11c-.726 0-1.315.583-1.315 1.3 0 .719.589 1.301 1.315 1.301z"/></svg></svg>