<svg xmlns="http://www.w3.org/2000/svg" width="307.094" height="39.844" viewBox="0 0 307.094 39.844">
  <metadata><?xpacket begin="﻿" id="W5M0MpCehiHzreSzNTczkc9d"?>
<x:xmpmeta xmlns:x="adobe:ns:meta/" x:xmptk="Adobe XMP Core 5.6-c142 79.160924, 2017/07/13-01:06:39        ">
   <rdf:RDF xmlns:rdf="http://www.w3.org/1999/02/22-rdf-syntax-ns#">
      <rdf:Description rdf:about=""/>
   </rdf:RDF>
</x:xmpmeta>
                                                                                                    
                                                                                                    
                                                                                                    
                                                                                                    
                                                                                                    
                                                                                                    
                                                                                                    
                                                                                                    
                                                                                                    
                                                                                                    
                                                                                                    
                                                                                                    
                                                                                                    
                                                                                                    
                                                                                                    
                                                                                                    
                                                                                                    
                                                                                                    
                                                                                                    
                                                                                                    
                           
<?xpacket end="w"?></metadata>
<defs>
    <style>
      .cls-1 {
        fill-rule: evenodd;
      }
    </style>
  </defs>
  <path id="Экспресс_аудит" data-name="Экспресс аудит" class="cls-1" d="M198.439,344.358c-0.352,7.613-3.169,8.934-9.286,8.934a24.365,24.365,0,0,1-6.733-.968l-1.276,5.192a38.961,38.961,0,0,0,9.021,1.1c9.726,0,14.611-3.74,14.611-16.238,0-12.542-4.885-15.8-14.611-15.8a38.915,38.915,0,0,0-9.021,1.144l1.276,5.105a24.365,24.365,0,0,1,6.733-.968c5.853,0,8.67.924,9.242,7.569h-13.07v4.928h13.114ZM229.921,358c-4.708-9.857-6.777-11.265-9.021-12.145,1.188-.925,4.181-4.445,8.493-10.254h-6.469c-3.608,4.8-6.909,8.845-8.669,10.782V335.6H208.8V358h5.457V347.615c2.86,0.616,5.5,2.42,9.285,10.385h6.381Zm17.3-5.192a14.335,14.335,0,0,1-5.193,1.056c-3.961,0-5.853-1.144-5.853-7.085,0-6.2,1.892-7.085,5.853-7.085a15.806,15.806,0,0,1,5.193.968L248.449,336a23.346,23.346,0,0,0-6.821-1.056c-6.777,0-11.09,2.6-11.09,11.75,0,9.2,4.269,11.925,11.09,11.925a21.317,21.317,0,0,0,6.821-1.144Zm9.44-12.454h8.8V358h5.457V335.6H251.2V358h5.457V340.354Zm24.428-.044a13.337,13.337,0,0,1,4.357-.66c3.873,0,5.149,1.1,5.149,7.261,0,5.545-1.276,7.085-5.105,7.085-2.42,0-4.4-.836-4.4-2.157V340.31Zm-5.456,26.14h5.456v-9.11a11.134,11.134,0,0,0,5.369,1.276c5.985,0,9.726-2.728,9.726-11.837,0-9.154-3.345-11.838-10.738-11.838a29.168,29.168,0,0,0-9.813,1.672V366.45Zm41.582-13.378a27.212,27.212,0,0,1-6.293.924c-3.917,0-5.765-.968-5.809-5.765h14.478c0.4-10.87-2.684-13.29-9.769-13.29-6.513,0-10.43,2.772-10.43,11.75,0,9.2,4.4,11.925,10.87,11.925a28.242,28.242,0,0,0,7.833-1.232Zm-7.085-13.818c3.124,0,4.269.836,4.445,4.8h-9.418C305.505,340.354,306.693,339.254,310.126,339.254Zm29.163,13.554a14.33,14.33,0,0,1-5.192,1.056c-3.961,0-5.853-1.144-5.853-7.085,0-6.2,1.892-7.085,5.853-7.085a15.8,15.8,0,0,1,5.192.968L340.522,336a23.351,23.351,0,0,0-6.821-1.056c-6.777,0-11.09,2.6-11.09,11.75,0,9.2,4.269,11.925,11.09,11.925a21.321,21.321,0,0,0,6.821-1.144Zm19.294,0a14.335,14.335,0,0,1-5.193,1.056c-3.961,0-5.853-1.144-5.853-7.085,0-6.2,1.892-7.085,5.853-7.085a15.806,15.806,0,0,1,5.193.968L359.815,336a23.346,23.346,0,0,0-6.821-1.056c-6.777,0-11.09,2.6-11.09,11.75,0,9.2,4.269,11.925,11.09,11.925a21.317,21.317,0,0,0,6.821-1.144Zm33.439-9.154c0-6.689-3.036-8.713-9.681-8.713a37.239,37.239,0,0,0-8.934,1.188l1.013,4.489a21.113,21.113,0,0,1,6.777-1.012c4.664,0,5.588.88,5.588,4.8a26.425,26.425,0,0,0-5.544-.616c-5.237,0-8.8,1.012-8.8,7.349,0,5.853,2.377,7.481,9.462,7.481a31.163,31.163,0,0,0,10.121-1.76v-13.2Zm-5.237,10.034a14.309,14.309,0,0,1-4.488.748c-3.3,0-4.137-.484-4.137-3.521,0-2.86,1.1-3.212,4.181-3.212a22.228,22.228,0,0,1,4.444.4v5.589Zm14.669,5.412c-1.1,2.421-2.465,5.237-3.653,7.35h6.073c1.144-2.2,2.42-5.017,3.477-7.526a216.333,216.333,0,0,0,8.493-23.323H410.3a162.218,162.218,0,0,1-5.545,16.987,156.841,156.841,0,0,0-5.545-16.987h-5.676A216.043,216.043,0,0,1,401.454,359.1Zm19.6-23.5a82.744,82.744,0,0,1-3.124,17.647h-4l1.232,10.957h4.4V358h16.9v6.2h4.357l1.276-10.957h-4.313V335.6H421.055Zm11.266,4.753v12.894h-8.67a77.978,77.978,0,0,0,2.377-12.894h6.293ZM459.283,358h5.457V335.6h-5.457a116.67,116.67,0,0,1-9.109,14.258V335.6h-5.457V358h5.457a111.936,111.936,0,0,0,9.109-13.686V358Zm21.22-17.646h7.745V335.6h-20.9v4.753h7.7V358H480.5V340.354Z" transform="translate(-181.156 -326.594)"/>
</svg>
