<svg xmlns="http://www.w3.org/2000/svg" width="229.907" height="45" viewBox="0 0 229.907 45">
  <metadata><?xpacket begin="﻿" id="W5M0MpCehiHzreSzNTczkc9d"?>
<x:xmpmeta xmlns:x="adobe:ns:meta/" x:xmptk="Adobe XMP Core 5.6-c142 79.160924, 2017/07/13-01:06:39        ">
   <rdf:RDF xmlns:rdf="http://www.w3.org/1999/02/22-rdf-syntax-ns#">
      <rdf:Description rdf:about=""/>
   </rdf:RDF>
</x:xmpmeta>
                                                                                                    
                                                                                                    
                                                                                                    
                                                                                                    
                                                                                                    
                                                                                                    
                                                                                                    
                                                                                                    
                                                                                                    
                                                                                                    
                                                                                                    
                                                                                                    
                                                                                                    
                                                                                                    
                                                                                                    
                                                                                                    
                                                                                                    
                                                                                                    
                                                                                                    
                                                                                                    
                           
<?xpacket end="w"?></metadata>
<defs>
    <style>
      .cls-1 {
        fill-rule: evenodd;
      }
    </style>
  </defs>
  <path id="Вашего_сайта_бесплатно_Только_до_конца_месяца" data-name="Вашего сайта бесплатно!  Только до конца месяца" class="cls-1" d="M187.566,394.135h-5.732l1.281-5.963h5.648c1.512,0,1.848,1.3,1.491,3.065C189.876,392.938,189.12,394.135,187.566,394.135Zm1.323-7.2h-5.522l1.05-4.913h5.522c1.533,0,1.743.924,1.428,2.394C191.073,385.715,190.4,386.933,188.889,386.933Zm0.462,0.588c2.667-.231,3.233-1.554,3.611-3.3,0.378-1.827.168-3.465-2.75-3.465h-7.034L180.071,395.4h7.264c2.352,0,3.948-1.407,4.515-4.137C192.29,389.264,192.1,387.647,189.351,387.521Zm8.214,8.168a5.3,5.3,0,0,0,3.506-1.155,2.506,2.506,0,0,0,.714,1.3l1.239-.882a2.161,2.161,0,0,1-.63-1.533,4.171,4.171,0,0,1,.1-0.84l1.554-7.243a10.513,10.513,0,0,0-4.115-.84c-3.276,0-5.06,1.217-5.963,5.564a12.284,12.284,0,0,0-.294,2.393C193.681,394.891,194.983,395.689,197.565,395.689Zm2.1-9.89a8.285,8.285,0,0,1,2.834.441l-1.407,6.656c-0.21.966-1.679,1.491-3.254,1.491-1.827,0-2.645-.483-2.645-2.121a11.188,11.188,0,0,1,.293-2.183C196.242,386.492,197.187,385.8,199.665,385.8Zm19.121-1.007h1.364L217.9,395.4H204.571l2.247-10.6h1.365l-2,9.343h4.619l2-9.343h1.365l-2,9.343h4.619Zm8.405-.294c-3.149,0-5.06,1.385-5.942,5.543-0.924,4.346.546,5.648,3.758,5.648a15.34,15.34,0,0,0,3.591-.588l-0.042-1.26a11.784,11.784,0,0,1-3.171.567c-2.456,0-3.38-.735-2.666-4.178H230.3C231.243,385.715,230.193,384.5,227.191,384.5Zm-0.273,1.28c1.953,0,2.52.567,2.079,3.213h-6.005C223.706,386.492,224.692,385.778,226.918,385.778Zm6.517-.986-2.247,10.6h1.365l1.974-9.344H239.9l0.273-1.259h-6.74Zm9.2,10.9c-3.3,0-4.536-1.3-3.612-5.648,0.9-4.326,2.709-5.543,5.984-5.543,3.3,0,4.556,1.217,3.653,5.543C247.739,394.387,245.954,395.689,242.637,395.689Zm2.1-9.89c-2.477,0-3.443.672-4.22,4.284-0.735,3.443-.084,4.3,2.394,4.3,2.5,0,3.485-.861,4.22-4.3C247.907,386.471,247.235,385.8,244.736,385.8Zm18.627,8.042a7.313,7.313,0,0,1-2.688.546c-2.477,0-3.443-.861-2.708-4.3,0.777-3.612,2.057-4.284,4.535-4.284a5.563,5.563,0,0,1,2.477.5l0.714-1.28a9.235,9.235,0,0,0-2.918-.525c-3.276,0-5.4,1.217-6.3,5.543-0.924,4.346.63,5.648,3.926,5.648a9.489,9.489,0,0,0,3.129-.588Zm4.788,1.848a5.3,5.3,0,0,0,3.506-1.155,2.506,2.506,0,0,0,.714,1.3l1.239-.882a2.161,2.161,0,0,1-.63-1.533,4.171,4.171,0,0,1,.1-0.84l1.554-7.243a10.513,10.513,0,0,0-4.115-.84c-3.276,0-5.06,1.217-5.963,5.564a12.284,12.284,0,0,0-.294,2.393C264.267,394.891,265.569,395.689,268.151,395.689Zm2.1-9.89a8.285,8.285,0,0,1,2.834.441l-1.407,6.656c-0.21.966-1.679,1.491-3.254,1.491-1.827,0-2.646-.483-2.646-2.121a11.2,11.2,0,0,1,.294-2.183C266.828,386.492,267.773,385.8,270.251,385.8Zm11.938,9.6h1.365l2.246-10.6h-1.365c-2.477,3.065-5.018,6.026-7.579,8.629l1.847-8.629h-1.364l-2.247,10.6h1.365a105.527,105.527,0,0,0,7.5-8.336Zm-3.528-14.635c-0.4,1.827.378,2.646,2.2,2.646a3.038,3.038,0,0,0,3.359-2.646h-1.091a1.673,1.673,0,0,1-2,1.449c-1.113,0-1.6-.273-1.344-1.449h-1.134Zm12.9,5.291h4.157l0.273-1.259H286.31l-0.273,1.259h4.157l-1.973,9.344h1.364Zm6.953,9.638a5.307,5.307,0,0,0,3.507-1.155,2.5,2.5,0,0,0,.713,1.3l1.239-.882a2.161,2.161,0,0,1-.63-1.533,4.171,4.171,0,0,1,.105-0.84L305,385.338a10.51,10.51,0,0,0-4.115-.84c-3.276,0-5.06,1.217-5.963,5.564a12.284,12.284,0,0,0-.294,2.393C294.628,394.891,295.93,395.689,298.512,395.689Zm2.1-9.89a8.281,8.281,0,0,1,2.834.441L302.04,392.9c-0.21.966-1.68,1.491-3.255,1.491-1.826,0-2.645-.483-2.645-2.121a11.2,11.2,0,0,1,.294-2.183C297.189,386.492,298.134,385.8,300.612,385.8Zm22.091-5.48a12.661,12.661,0,0,1-3.927.861c-3.422.315-5.123,1.512-6.571,8.336-0.987,4.619.168,6.173,3.086,6.173,3.275,0,5.06-1.218,5.942-5.333,0.861-4.137-.357-5.438-3.276-5.438a4.585,4.585,0,0,0-3.674,1.49c0.9-2.6,1.491-3.674,4.22-3.926a12.936,12.936,0,0,0,3.927-.84Zm-9.2,10c0.672-3.129,1.491-4.1,4.116-4.1,2.141,0,2.792.861,2.1,4.1-0.714,3.4-1.68,4.073-4.157,4.073C313.653,394.387,312.9,393.169,313.506,390.314Zm15.386-5.816c-3.149,0-5.06,1.385-5.942,5.543-0.924,4.346.546,5.648,3.759,5.648a15.34,15.34,0,0,0,3.59-.588l-0.042-1.26a11.784,11.784,0,0,1-3.171.567c-2.456,0-3.38-.735-2.666-4.178H332C332.944,385.715,331.9,384.5,328.892,384.5Zm-0.273,1.28c1.953,0,2.52.567,2.079,3.213h-6C325.407,386.492,326.394,385.778,328.619,385.778Zm11.814,8.063a7.308,7.308,0,0,1-2.687.546c-2.478,0-3.444-.861-2.709-4.3,0.777-3.612,2.058-4.284,4.535-4.284a5.567,5.567,0,0,1,2.478.5l0.714-1.28a9.241,9.241,0,0,0-2.919-.525c-3.275,0-5.4,1.217-6.3,5.543-0.924,4.346.629,5.648,3.926,5.648a9.483,9.483,0,0,0,3.128-.588Zm9.748-7.79-1.974,9.344h1.365l2.247-10.6h-8.462l-2.246,10.6h1.364l1.974-9.344h5.732Zm10.181,0-1.974,9.344h1.365l2.247-10.6h-6.446a45,45,0,0,1-4.389,10.6h1.491a58.578,58.578,0,0,0,3.926-9.344h3.78Zm6.319,9.638a5.307,5.307,0,0,0,3.507-1.155,2.506,2.506,0,0,0,.714,1.3l1.238-.882a2.161,2.161,0,0,1-.63-1.533,4.171,4.171,0,0,1,.105-0.84l1.554-7.243a10.51,10.51,0,0,0-4.115-.84c-3.276,0-5.06,1.217-5.963,5.564a12.284,12.284,0,0,0-.294,2.393C362.8,394.891,364.1,395.689,366.681,395.689Zm2.1-9.89a8.277,8.277,0,0,1,2.834.441l-1.406,6.656c-0.21.966-1.68,1.491-3.255,1.491-1.826,0-2.645-.483-2.645-2.121a11.2,11.2,0,0,1,.294-2.183C365.359,386.492,366.3,385.8,368.781,385.8Zm10.275,0.252h4.157l0.273-1.259h-9.679l-0.273,1.259h4.157l-1.973,9.344h1.364Zm10.871,4.179-1.092,5.165H390.2l2.247-10.6h-1.365l-0.9,4.241h-5.732l0.9-4.241h-1.365l-2.246,10.6H383.1l1.092-5.165h5.732Zm7.208,5.459c-3.3,0-4.535-1.3-3.611-5.648,0.9-4.326,2.708-5.543,5.983-5.543,3.3,0,4.557,1.217,3.654,5.543C402.237,394.387,400.452,395.689,397.135,395.689Zm2.1-9.89c-2.478,0-3.444.672-4.221,4.284-0.735,3.443-.084,4.3,2.394,4.3,2.5,0,3.485-.861,4.22-4.3C402.405,386.471,401.733,385.8,399.235,385.8ZM408,380.76l-1.763,10.477h1.049l2.688-10.477H408Zm-1.679,12.472a1.048,1.048,0,0,0-1.3,1.029c-0.21.966,0.063,1.134,0.861,1.134a1.112,1.112,0,0,0,1.343-1.134C407.414,393.358,407.162,393.232,406.323,393.232ZM185.09,413.84h3.615l0.195-.9h-8.34l-0.195.9H184L181.97,423.4h1.095Zm4.234,9.765c-2.355,0-3.24-.93-2.58-4.035,0.645-3.09,1.935-3.96,4.275-3.96s3.255,0.87,2.61,3.96C192.969,422.675,191.694,423.605,189.324,423.605Zm1.5-7.065c-1.77,0-2.46.48-3.015,3.06-0.525,2.46-.06,3.075,1.71,3.075s2.49-.615,3.015-3.075C193.089,417.02,192.609,416.54,190.824,416.54Zm9.435,0.18-1.41,6.675h0.975l1.6-7.575h-4.6a32.143,32.143,0,0,1-3.135,7.575h1.065a41.918,41.918,0,0,0,2.805-6.675h2.7Zm5.5,5.775h-2.924l0.6-2.79h2.924c0.855,0,1.17.33,0.96,1.35C207.079,422.135,206.644,422.5,205.759,422.5Zm-2.144-3.645,0.645-3.03h-0.975l-1.6,7.575h3.9a2.543,2.543,0,0,0,2.82-2.355c0.315-1.485-.21-2.19-1.86-2.19h-2.924Zm11.413,4.545c-1.3-3.48-2-3.81-2.745-4.125a42.35,42.35,0,0,0,4.11-3.45h-1.26c-1.905,1.71-3.555,3.09-4.335,3.645l0.78-3.645H210.6L209,423.4h0.975l0.78-3.7c0.99,0.165,2.025.72,3.075,3.7h1.2Zm3.7,0.21c-2.355,0-3.24-.93-2.58-4.035,0.645-3.09,1.935-3.96,4.275-3.96s3.255,0.87,2.61,3.96C222.369,422.675,221.094,423.605,218.724,423.605Zm1.5-7.065c-1.77,0-2.46.48-3.015,3.06-0.525,2.46-.06,3.075,1.71,3.075s2.49-.615,3.015-3.075C222.489,417.02,222.009,416.54,220.224,416.54ZM228.4,422.5a31.756,31.756,0,0,0,2.64-6.675h4.6l-1.424,6.675H235.6l-0.855,2.82h-0.734l0.42-1.92h-6.465l-0.42,1.92h-0.72l0.33-2.82H228.4Zm3.375-5.775a39.616,39.616,0,0,1-2.355,5.775h3.825l1.229-5.775h-2.7Zm7.578,6.885c-2.355,0-3.24-.93-2.58-4.035,0.645-3.09,1.935-3.96,4.274-3.96,2.355,0,3.255.87,2.61,3.96C243,422.675,241.721,423.605,239.352,423.605Zm1.5-7.065c-1.769,0-2.459.48-3.014,3.06-0.525,2.46-.06,3.075,1.71,3.075s2.489-.615,3.014-3.075C243.116,417.02,242.636,416.54,240.851,416.54Zm13.8,6.855c-1.305-3.48-2-3.81-2.745-4.125a42.35,42.35,0,0,0,4.11-3.45h-1.26c-1.905,1.71-3.555,3.09-4.335,3.645l0.78-3.645h-0.975l-1.6,7.575H249.6l0.78-3.7c0.99,0.165,2.025.72,3.075,3.7h1.2Zm3.7,0.21c-2.355,0-3.24-.93-2.58-4.035,0.645-3.09,1.935-3.96,4.275-3.96,2.355,0,3.255.87,2.61,3.96C261.992,422.675,260.717,423.605,258.347,423.605Zm1.5-7.065c-1.77,0-2.46.48-3.015,3.06-0.525,2.46-.06,3.075,1.71,3.075,1.785,0,2.49-.615,3.015-3.075C262.112,417.02,261.632,416.54,259.847,416.54Zm9.435,3.165-0.78,3.69h0.975l1.605-7.575h-0.975l-0.645,3.03h-4.095l0.645-3.03h-0.975l-1.6,7.575h0.975l0.78-3.69h4.095Zm8.275,2.79h1.38l-0.855,2.82h-0.735l0.42-1.92h-6.434l1.6-7.575h0.975l-1.425,6.675h4.094l1.425-6.675h0.975Zm5.108,1.11a3.791,3.791,0,0,0,2.5-.825,1.79,1.79,0,0,0,.51.93l0.885-.63a1.544,1.544,0,0,1-.45-1.095,2.98,2.98,0,0,1,.075-0.6l1.11-5.175a7.51,7.51,0,0,0-2.94-.6c-2.34,0-3.615.87-4.26,3.975a8.787,8.787,0,0,0-.21,1.71C279.89,423.035,280.82,423.605,282.665,423.605Zm1.5-7.065a5.92,5.92,0,0,1,2.025.315l-1,4.755c-0.15.69-1.2,1.065-2.325,1.065-1.305,0-1.89-.345-1.89-1.515a8.014,8.014,0,0,1,.21-1.56C281.72,417.035,282.4,416.54,284.165,416.54Zm12.045,4.9c-0.345-1.89-.765-3.735-1.215-5.625H293.36l-1.605,7.575h0.975l1.425-6.7c0.465,1.95.885,4.2,1.23,6.165H296.3c1.11-1.92,2.535-4.17,3.9-6.165l-1.424,6.7h0.975l1.6-7.575H299.78C298.505,417.7,297.35,419.51,296.21,421.445ZM306.4,415.61c-2.25,0-3.615.99-4.245,3.96-0.66,3.105.39,4.035,2.685,4.035a10.957,10.957,0,0,0,2.565-.42l-0.03-.9a8.417,8.417,0,0,1-2.265.4c-1.755,0-2.415-.525-1.905-2.985h5.415C309.29,416.48,308.54,415.61,306.4,415.61Zm-0.195.915c1.4,0,1.8.405,1.485,2.3H303.4C303.9,417.035,304.61,416.525,306.2,416.525Zm8.459,5.76a5.218,5.218,0,0,1-1.919.39c-1.77,0-2.46-.615-1.935-3.075,0.555-2.58,1.47-3.06,3.239-3.06a3.976,3.976,0,0,1,1.77.36l0.51-.915a6.6,6.6,0,0,0-2.085-.375c-2.339,0-3.854.87-4.5,3.96-0.66,3.105.45,4.035,2.805,4.035a6.772,6.772,0,0,0,2.234-.42Zm8.369-6.465-1.605,7.575h-0.975l0.675-3.195h-1.41c-1.185,0-1.935.42-3.75,3.195h-1.11c1.95-2.835,2.61-3.3,3.39-3.42-1.635,0-2.01-.885-1.785-1.95a2.589,2.589,0,0,1,2.835-2.2h3.735Zm-1.725,3.54,0.555-2.64H319.1a1.386,1.386,0,0,0-1.59,1.29,0.959,0.959,0,0,0,1.1,1.35h2.7Zm8.2,3.135h1.38l-0.855,2.82h-0.735l0.42-1.92h-6.435l1.6-7.575h0.975l-1.425,6.675h4.1l1.425-6.675h0.975Zm5.108,1.11a3.786,3.786,0,0,0,2.5-.825,1.8,1.8,0,0,0,.51.93l0.885-.63a1.544,1.544,0,0,1-.45-1.095,2.98,2.98,0,0,1,.075-0.6l1.11-5.175a7.509,7.509,0,0,0-2.939-.6c-2.34,0-3.615.87-4.26,3.975a8.787,8.787,0,0,0-.21,1.71C331.836,423.035,332.766,423.605,334.611,423.605Zm1.5-7.065a5.918,5.918,0,0,1,2.024.315l-1,4.755c-0.149.69-1.2,1.065-2.324,1.065-1.305,0-1.89-.345-1.89-1.515a8.014,8.014,0,0,1,.21-1.56C333.666,417.035,334.341,416.54,336.111,416.54Z" transform="translate(-180.062 -380.312)"/>
</svg>
