<svg width="86" height="85" xmlns="http://www.w3.org/2000/svg" xmlns:xlink="http://www.w3.org/1999/xlink" xmlns:svgjs="http://svgjs.com/svgjs" viewBox="977 1139 86 85"><svg width="21" height="85" xmlns="http://www.w3.org/2000/svg" xmlns:xlink="http://www.w3.org/1999/xlink" xmlns:svgjs="http://svgjs.com/svgjs" viewBox="0.539 0 19.922 85" fill="#32325f" x="977" y="1139"><svg xmlns="http://www.w3.org/2000/svg" xmlns:xlink="http://www.w3.org/1999/xlink" width="21" height="85" viewBox="0.699 0 19.922 85"><path paint-order="stroke fill markers" fill-rule="evenodd" d="M5.68 80.573v2.767a1.66 1.66 0 1 0 3.32 0v-2.767l.664-.886a21.716 21.716 0 0 0 4.316-12.949V19.922h1.66c.916 0 1.66.744 1.66 1.66v15.273a1.66 1.66 0 1 0 3.321 0V21.582a4.986 4.986 0 0 0-4.98-4.98h-1.66v-3.32a6.587 6.587 0 0 0-1.66-4.39V4.98A4.986 4.986 0 0 0 7.34 0a4.986 4.986 0 0 0-4.98 4.98v3.913A6.638 6.638 0 0 0 .7 13.281v53.457c0 4.64 1.532 9.239 4.316 12.95l.664.885zm4.98-15.495H4.02V19.922h6.64v45.156zM4.02 16.601v-3.32a3.326 3.326 0 0 1 3.32-3.32 3.324 3.324 0 0 1 3.32 3.32v3.32H4.02zm3.32-13.28c.916 0 1.66.744 1.66 1.66v1.872a6.611 6.611 0 0 0-3.32 0V4.98c0-.915.744-1.66 1.66-1.66zm3.243 65.077a18.4 18.4 0 0 1-3.243 8.84 18.401 18.401 0 0 1-3.243-8.84h6.486z"/></svg></svg><svg width="26" height="5" xmlns="http://www.w3.org/2000/svg" xmlns:xlink="http://www.w3.org/1999/xlink" xmlns:svgjs="http://svgjs.com/svgjs" viewBox="0 0.789 26 3.421" fill="#32325f" x="1017" y="1200"><svg xmlns="http://www.w3.org/2000/svg" xmlns:xlink="http://www.w3.org/1999/xlink" width="26" height="5" viewBox="0.543 0.758 25.234 3.32"><path paint-order="stroke fill markers" fill-rule="evenodd" d="M24.117.758H2.203a1.66 1.66 0 0 0 0 3.32h21.914a1.66 1.66 0 1 0 0-3.32z"/></svg></svg><svg width="26" height="5" xmlns="http://www.w3.org/2000/svg" xmlns:xlink="http://www.w3.org/1999/xlink" xmlns:svgjs="http://svgjs.com/svgjs" viewBox="0 0.789 26 3.421" fill="#32325f" x="1017" y="1190"><svg xmlns="http://www.w3.org/2000/svg" xmlns:xlink="http://www.w3.org/1999/xlink" width="26" height="5" viewBox="0.543 0.797 25.234 3.32"><path paint-order="stroke fill markers" fill-rule="evenodd" d="M24.117.797H2.203a1.66 1.66 0 1 0 0 3.32h21.914a1.66 1.66 0 1 0 0-3.32z"/></svg></svg><svg width="5" height="5" xmlns="http://www.w3.org/2000/svg" xmlns:xlink="http://www.w3.org/1999/xlink" xmlns:svgjs="http://svgjs.com/svgjs" fill="#32325f" x="1010" y="1200"><svg xmlns="http://www.w3.org/2000/svg" xmlns:xlink="http://www.w3.org/1999/xlink" width="5" height="5" viewBox="0.902 0.758 3.32 3.32"><path paint-order="stroke fill markers" fill-rule="evenodd" d="M2.562.758a1.661 1.661 0 1 0 .002 3.322A1.661 1.661 0 0 0 2.562.758z"/></svg></svg><svg width="5" height="5" xmlns="http://www.w3.org/2000/svg" xmlns:xlink="http://www.w3.org/1999/xlink" xmlns:svgjs="http://svgjs.com/svgjs" fill="#32325f" x="1010" y="1190"><svg xmlns="http://www.w3.org/2000/svg" xmlns:xlink="http://www.w3.org/1999/xlink" width="5" height="5" viewBox="0.902 0.797 3.32 3.32"><path paint-order="stroke fill markers" fill-rule="evenodd" d="M2.562.797a1.66 1.66 0 1 0 .002 3.321A1.66 1.66 0 0 0 2.562.797z"/></svg></svg><svg width="27" height="25" xmlns="http://www.w3.org/2000/svg" xmlns:xlink="http://www.w3.org/1999/xlink" xmlns:svgjs="http://svgjs.com/svgjs" viewBox="0 0.573 27 23.854" fill="#32325f" x="1013" y="1160"><svg xmlns="http://www.w3.org/2000/svg" xmlns:xlink="http://www.w3.org/1999/xlink" width="27" height="25" viewBox="0.648 0.914 26.307 23.242"><path paint-order="stroke fill markers" fill-rule="evenodd" d="M9.75 21.226c.947.799 1.926 1.625 2.965 2.525.312.27.699.405 1.087.405.387 0 .775-.135 1.087-.405 1.038-.9 2.017-1.726 2.964-2.525 5.284-4.46 9.102-7.682 9.102-12.413 0-4.43-3.253-7.899-7.407-7.899-2.793 0-4.615 1.497-5.746 3.02C12.67 2.412 10.848.915 8.054.915 3.9.914.648 4.384.648 8.813c0 4.731 3.818 7.953 9.102 12.413zM8.054 4.234c3.031 0 4.106 3.617 4.15 3.771.2.712.85 1.202 1.59 1.206h.009c.74 0 1.392-.494 1.596-1.206.045-.154 1.12-3.77 4.148-3.77 2.33 0 4.088 1.967 4.088 4.578 0 3.188-2.983 5.705-7.924 9.876-.62.522-1.253 1.057-1.91 1.618-.656-.561-1.29-1.096-1.91-1.619-4.94-4.17-7.923-6.687-7.923-9.875 0-2.61 1.757-4.579 4.086-4.579z"/></svg></svg><svg width="69" height="74" xmlns="http://www.w3.org/2000/svg" xmlns:xlink="http://www.w3.org/1999/xlink" xmlns:svgjs="http://svgjs.com/svgjs" viewBox="0 0.155 69 73.689" fill="#32325f" x="994" y="1150"><svg xmlns="http://www.w3.org/2000/svg" width="69" height="74" viewBox="0.301 0.953 68.398 73.047"><path paint-order="stroke fill markers" fill-rule="evenodd" d="M68.7 15.894v-8.3c0-3.662-2.98-6.641-6.641-6.641H15.242c-4.577 0-8.3 3.724-8.3 8.3V60.72H1.96a1.66 1.66 0 0 0-1.66 1.66c0 6.408 5.213 11.62 11.62 11.62h38.516c4.86 0 8.301-4.137 8.301-8.655v-47.79h8.301a1.66 1.66 0 0 0 1.66-1.66zM11.921 70.68c-4.009 0-7.363-2.857-8.134-6.641h38.349v1.66a8.26 8.26 0 0 0 1.664 4.98H11.92zM55.418 7.594v57.75c0 2.75-1.993 5.336-4.98 5.336a4.986 4.986 0 0 1-4.981-4.98v-3.321a1.66 1.66 0 0 0-1.66-1.66H10.262V9.254c0-2.747 2.234-4.998 4.98-4.998h41.064a6.699 6.699 0 0 0-.888 3.338zm9.96 6.64h-6.64v-6.64a3.32 3.32 0 1 1 6.64 0v6.64z"/></svg></svg></svg>