<svg xmlns="http://www.w3.org/2000/svg" xmlns:xlink="http://www.w3.org/1999/xlink" width="216.121" height="79.437" viewBox="0 0 216.121 79.437">
  <metadata><?xpacket begin="﻿" id="W5M0MpCehiHzreSzNTczkc9d"?>
<x:xmpmeta xmlns:x="adobe:ns:meta/" x:xmptk="Adobe XMP Core 5.6-c142 79.160924, 2017/07/13-01:06:39        ">
   <rdf:RDF xmlns:rdf="http://www.w3.org/1999/02/22-rdf-syntax-ns#">
      <rdf:Description rdf:about=""/>
   </rdf:RDF>
</x:xmpmeta>
                                                                                                    
                                                                                                    
                                                                                                    
                                                                                                    
                                                                                                    
                                                                                                    
                                                                                                    
                                                                                                    
                                                                                                    
                                                                                                    
                                                                                                    
                                                                                                    
                                                                                                    
                                                                                                    
                                                                                                    
                                                                                                    
                                                                                                    
                                                                                                    
                                                                                                    
                                                                                                    
                           
<?xpacket end="w"?></metadata>
<defs>
    <style>
      .cls-1 {
        fill: #3674bf;
        fill-rule: evenodd;
        filter: url(#filter);
      }
    </style>
    <filter id="filter" x="820.219" y="808.344" width="216.121" height="79.437" filterUnits="userSpaceOnUse">
      <feFlood result="flood" flood-color="#0094d1"/>
      <feComposite result="composite" operator="in" in2="SourceGraphic"/>
      <feBlend result="blend" in2="SourceGraphic"/>
    </filter>
  </defs>
  <path id="_100_качество" data-name="100% качество" class="cls-1" d="M825.433,883.266a1.32,1.32,0,0,1-.352.8l1.047,3.726,7.018-1.972-1.047-3.726a1.181,1.181,0,0,1-.68-0.479,4.82,4.82,0,0,1-.5-1.277l-4.5-16-6.2,2.429,1,3.553a1.45,1.45,0,0,1,.7.5,3.811,3.811,0,0,1,.543,1.265l2.767,9.849A4.011,4.011,0,0,1,825.433,883.266Zm17.936-5.336a0.908,0.908,0,0,1-.714.731,0.951,0.951,0,0,1-1-.219,3.709,3.709,0,0,1-.714-1.544l-2.443-8.693a3.634,3.634,0,0,1-.184-1.709,0.95,0.95,0,0,1,.718-0.716,0.911,0.911,0,0,1,.986.237,4.008,4.008,0,0,1,.7,1.563l2.443,8.693A3.947,3.947,0,0,1,843.369,877.93Zm-6.947,3.059a5.433,5.433,0,0,0,1.8,2.019,4.457,4.457,0,0,0,2.429.657,12.313,12.313,0,0,0,3.264-.528,12.481,12.481,0,0,0,3.075-1.253,4.543,4.543,0,0,0,1.759-1.835,5.465,5.465,0,0,0,.513-2.668,16.179,16.179,0,0,0-.666-3.755l-1.842-6.556a16.287,16.287,0,0,0-1.392-3.566,5.547,5.547,0,0,0-1.817-2.029,4.451,4.451,0,0,0-2.442-.654,12.65,12.65,0,0,0-3.308.54,12.443,12.443,0,0,0-3.09,1.258,4.36,4.36,0,0,0-1.716,1.822,5.538,5.538,0,0,0-.465,2.67,16.988,16.988,0,0,0,.684,3.765l1.843,6.557A16.776,16.776,0,0,0,836.422,880.989Zm22.932-7.551a0.908,0.908,0,0,1-.714.731,0.948,0.948,0,0,1-1-.219,3.708,3.708,0,0,1-.715-1.544l-2.442-8.693A3.624,3.624,0,0,1,854.3,862a0.951,0.951,0,0,1,.718-0.716,0.91,0.91,0,0,1,.986.237,4.008,4.008,0,0,1,.7,1.563l2.443,8.693A3.914,3.914,0,0,1,859.354,873.438Zm-6.947,3.059a5.444,5.444,0,0,0,1.8,2.019,4.451,4.451,0,0,0,2.428.657,12.348,12.348,0,0,0,3.264-.527,12.528,12.528,0,0,0,3.076-1.254,4.543,4.543,0,0,0,1.759-1.835,5.463,5.463,0,0,0,.512-2.668,16.118,16.118,0,0,0-.665-3.755l-1.843-6.556a16.341,16.341,0,0,0-1.391-3.566,5.564,5.564,0,0,0-1.817-2.029,4.457,4.457,0,0,0-2.443-.654,12.644,12.644,0,0,0-3.307.54,12.465,12.465,0,0,0-3.09,1.258,4.365,4.365,0,0,0-1.716,1.822,5.529,5.529,0,0,0-.465,2.67,17,17,0,0,0,.684,3.766l1.842,6.556A16.776,16.776,0,0,0,852.407,876.5Zm30.969-13.2q0.636-.179.912,0.8l1.047,3.726a1.422,1.422,0,0,1,.066.791,0.583,0.583,0,0,1-.434.34,0.656,0.656,0,0,1-.605-0.048,1.422,1.422,0,0,1-.356-0.71l-1.047-3.726q-0.276-.981.417-1.176h0Zm-1.2,8.1a5.151,5.151,0,0,0,3.439-.125,5.094,5.094,0,0,0,2.973-1.677,3.816,3.816,0,0,0,.085-3.078l-0.852-3.032a3.766,3.766,0,0,0-1.672-2.569,7.312,7.312,0,0,0-6.408,1.817,3.767,3.767,0,0,0-.093,3.049l0.852,3.032A3.812,3.812,0,0,0,882.177,871.388Zm-15.15-15.266a0.569,0.569,0,0,1,.43-0.355,0.61,0.61,0,0,1,.567.075,1.482,1.482,0,0,1,.382.75l1.047,3.725q0.267,0.954-.4,1.14a0.578,0.578,0,0,1-.562-0.06,1.569,1.569,0,0,1-.341-0.714l-1.047-3.726A1.6,1.6,0,0,1,867.027,856.122Zm-0.711,7.726a5.038,5.038,0,0,0,3.381-.109,5.166,5.166,0,0,0,2.977-1.662,3.759,3.759,0,0,0,.089-3.064l-0.86-3.061a3.816,3.816,0,0,0-1.676-2.583,5.091,5.091,0,0,0-3.411.117,5.027,5.027,0,0,0-2.943,1.668,3.812,3.812,0,0,0-.086,3.078l0.861,3.062A3.763,3.763,0,0,0,866.316,863.848Zm5.273,11.17,3.9-1.1,5.307-24.364-3.87,1.087Zm36.152-14.179a0.6,0.6,0,0,1-.708-0.3,5.606,5.606,0,0,1-.558-1.432l-0.893-3.177,0.323-.091a1.613,1.613,0,0,1,1.594.222,5.183,5.183,0,0,1,1.073,2.3,30.628,30.628,0,0,0,1.228,3.6,7.589,7.589,0,0,0,1.093,2.014l6.3-1.77-1.047-3.726a0.774,0.774,0,0,1-.765-0.283,4.778,4.778,0,0,1-.8-1.862,10.712,10.712,0,0,0-1.968-4.231,3.353,3.353,0,0,0-2.781-1.135l1.439-4.86a1.3,1.3,0,0,1,.4-0.907,1.9,1.9,0,0,1,.521-0.255l-1.047-3.726-6.7,1.883,0.844,3a5.135,5.135,0,0,1,.187,1.054,7.745,7.745,0,0,1-.015,1.111l-0.9,4.022-0.828-2.946a5.25,5.25,0,0,1-.257-1.47,0.59,0.59,0,0,1,.452-0.61l-1.047-3.726-7.538,2.118,1.047,3.726q0.779-.219,1.307,1.658l2.743,9.762q0.543,1.935-.236,2.154l1.047,3.726,7.538-2.118Zm8.983-17.17a0.4,0.4,0,0,1,.347.073,0.951,0.951,0,0,1,.289.527,4.3,4.3,0,0,1,.092.441,3.159,3.159,0,0,1,.039.582l0.538,10.786a6.254,6.254,0,0,1,.018,1.507,0.558,0.558,0,0,1-.4.47l1.047,3.725,7.1-2-1.046-3.726a1.029,1.029,0,0,1-.87-0.877q-0.064-.231-0.185-1.1l3.177-.893q0.188,0.446.285,0.683c0.065,0.159.109,0.276,0.131,0.353a1.2,1.2,0,0,1,.017.727,1.126,1.126,0,0,1-.3.475l1.047,3.726,7.221-2.029-1.047-3.726a0.54,0.54,0,0,1-.556-0.2,7.09,7.09,0,0,1-.806-1.316l-5.159-9.488a4.055,4.055,0,0,1-.274-0.531,3.7,3.7,0,0,1-.146-0.411q-0.195-.693.267-0.823l-1.047-3.725-10.83,3.043Zm5.346-1.378,0.029-.008,3.236,7.411-2.138.6Zm18.1-3.186,1.242,4.419a4.176,4.176,0,0,1-1.322.62,0.888,0.888,0,0,1-.953-0.231,4.086,4.086,0,0,1-.716-1.606l-0.706-2.512q-0.528-1.878.194-2.081l-1.046-3.725-7.452,2.094,1.047,3.725q0.721-.2,1.25,1.675L932.418,844a15.844,15.844,0,0,0,1.12,2.989,4.448,4.448,0,0,0,1.5,1.743,3.909,3.909,0,0,0,2.156.578,11.475,11.475,0,0,0,3.054-.5,8.673,8.673,0,0,0,1.152-.449,11.362,11.362,0,0,0,1.2-.617l0.317,1.127a3.184,3.184,0,0,1,.195,1.69,0.951,0.951,0,0,1-.662.529l1.047,3.725,7.682-2.158-1.047-3.726a0.61,0.61,0,0,1-.678-0.308,4.7,4.7,0,0,1-.587-1.424l-2.744-9.762q-0.526-1.876.195-2.08l-1.047-3.726-7.422,2.086,1.046,3.725q0.751-.21,1.279,1.667h0Zm25.678,1.135-5.429,1.526,0.219,0.78a3.975,3.975,0,0,1,.195,2.173,1.584,1.584,0,0,1-1.177.907l-0.656.185-1.258-4.477,3.264-.917-1.145-4.072-3.263.917-1.088-3.87,0.656-.185a1.813,1.813,0,0,1,1.459.042,2.663,2.663,0,0,1,.83,1.528l0.2,0.722,5.429-1.526L962.1,826.9l-14.643,4.115,1.031,3.668q0.75-.212,1.294,1.724l2.744,9.762q0.543,1.935-.208,2.146l1.047,3.726,14.643-4.115Zm9.649-16.874a10.829,10.829,0,0,0-4.024.43q-3.754,1.054-5.025,3.3t-0.135,6.286l1.924,6.845q1.168,4.158,3.357,5.351t6.031,0.113a11.852,11.852,0,0,0,3.854-1.753,9.5,9.5,0,0,0,2.424-2.629l-1.842-6.556-5.516,1.55,0.673,2.4a2.945,2.945,0,0,1,.115,1.682,1.133,1.133,0,0,1-.809.726,1.234,1.234,0,0,1-1.141-.178,2.839,2.839,0,0,1-.793-1.491l-2.467-8.78a2.834,2.834,0,0,1-.1-1.7,1.246,1.246,0,0,1,.885-0.731,1.138,1.138,0,0,1,1.054.2,2.832,2.832,0,0,1,.793,1.491l0.56,1.993,5.517-1.55-1.68-5.979A11.7,11.7,0,0,0,975.5,823.366Zm7.233,6.49,4.1-1.152-0.681-2.426a1.3,1.3,0,0,1,1.054-1.792l3.108,11.061a2.858,2.858,0,0,1,.111,1.559,0.888,0.888,0,0,1-.578.661l1.047,3.725,8.145-2.288-1.047-3.726a0.924,0.924,0,0,1-.852-0.259,2.756,2.756,0,0,1-.732-1.384L993.3,822.773a1.26,1.26,0,0,1,1.747,1l0.682,2.426,4.188-1.176-2.281-8.116-17.184,4.829Zm25.466-11.268q1.785-.5,2.34,1.461a1.821,1.821,0,0,1-1.41,2.545l-0.6.17-1.11-3.957Zm1.75,7.891a2.092,2.092,0,0,1,2.94,1.6q0.675,2.4-1.38,2.973l-0.6.17-1.31-4.65Zm4.19,8.483a8,8,0,0,0,4.73-2.951,5.957,5.957,0,0,0,.46-5.083,6.115,6.115,0,0,0-1.68-2.91,4.52,4.52,0,0,0-2.87-1.173,6.385,6.385,0,0,0,1.49-2.147,4.652,4.652,0,0,0,.05-3.146q-1.53-5.459-8.15-3.6l-8.692,2.443,1.042,3.726c0.52-.146.97,0.426,1.33,1.716l2.72,9.7c0.37,1.29.29,2.008-.23,2.154l1.05,3.726Zm15.91-9.411a1,1,0,0,1-.78.732,1.072,1.072,0,0,1-1.08-.194,3.282,3.282,0,0,1-.73-1.507l-2.47-8.78a3.229,3.229,0,0,1-.16-1.684,1.069,1.069,0,0,1,.82-0.716,1.009,1.009,0,0,1,1.04.207,3.431,3.431,0,0,1,.72,1.511l2.47,8.78A3.457,3.457,0,0,1,1030.05,825.551Zm-7.54,3.32a5.176,5.176,0,0,0,1.92,1.953,5.1,5.1,0,0,0,2.62.586,14.391,14.391,0,0,0,3.5-.592,14.228,14.228,0,0,0,3.28-1.311,5,5,0,0,0,1.9-1.86,5.208,5.208,0,0,0,.61-2.664,14.859,14.859,0,0,0-.62-3.72l-1.93-6.845a14.447,14.447,0,0,0-1.4-3.5,5.372,5.372,0,0,0-1.91-1.972,4.942,4.942,0,0,0-2.6-.609,13.967,13.967,0,0,0-3.48.589,14.417,14.417,0,0,0-3.3,1.314,5.083,5.083,0,0,0-1.93,1.883,5.314,5.314,0,0,0-.62,2.682,14.48,14.48,0,0,0,.63,3.72l1.92,6.845A14.85,14.85,0,0,0,1022.51,828.871Z" transform="translate(-820.219 -808.344)"/>
</svg>
