<svg xmlns="http://www.w3.org/2000/svg" width="122.594" height="10.719" viewBox="0 0 122.594 10.719">
  <metadata><?xpacket begin="﻿" id="W5M0MpCehiHzreSzNTczkc9d"?>
<x:xmpmeta xmlns:x="adobe:ns:meta/" x:xmptk="Adobe XMP Core 5.6-c142 79.160924, 2017/07/13-01:06:39        ">
   <rdf:RDF xmlns:rdf="http://www.w3.org/1999/02/22-rdf-syntax-ns#">
      <rdf:Description rdf:about=""/>
   </rdf:RDF>
</x:xmpmeta>
                                                                                                    
                                                                                                    
                                                                                                    
                                                                                                    
                                                                                                    
                                                                                                    
                                                                                                    
                                                                                                    
                                                                                                    
                                                                                                    
                                                                                                    
                                                                                                    
                                                                                                    
                                                                                                    
                                                                                                    
                                                                                                    
                                                                                                    
                                                                                                    
                                                                                                    
                                                                                                    
                           
<?xpacket end="w"?></metadata>
<defs>
    <style>
      .cls-1 {
        fill-rule: evenodd;
      }
    </style>
  </defs>
  <path id="Мы_не_делаем_сайты" data-name="Мы не делаем сайты" class="cls-1" d="M204.5,85.357c-0.4-2.262-.91-4.537-1.508-6.8h-1.4l-1.924,9.061h0.91l1.7-8.021c0.559,2.34,1.079,4.693,1.56,7.033h0.689c1.443-2.288,2.977-4.641,4.589-7.033l-1.7,8.021h0.936l1.924-9.061h-1.313C207.372,80.807,205.864,83.082,204.5,85.357Zm9.424,1.482h-2.535l0.52-2.418h2.535c0.741,0,1.014.286,0.832,1.17A1.252,1.252,0,0,1,213.923,86.839Zm-1.859-3.159,0.559-2.626h-0.845l-1.391,6.565h3.38a2.2,2.2,0,0,0,2.444-2.041c0.273-1.287-.182-1.9-1.612-1.9h-2.535Zm6.851-2.626H218.07l-1.391,6.565h0.845Zm9.373,3.367-0.676,3.2h0.845l1.391-6.565H229l-0.559,2.626h-3.55l0.559-2.626h-0.845l-1.391,6.565h0.845l0.676-3.2h3.55Zm6.186-3.549c-1.95,0-3.133.858-3.679,3.432-0.572,2.691.338,3.5,2.327,3.5a9.5,9.5,0,0,0,2.223-.364l-0.026-.78a7.3,7.3,0,0,1-1.963.351c-1.521,0-2.093-.455-1.651-2.587H236.4C236.983,81.626,236.333,80.872,234.474,80.872Zm-0.169.793c1.209,0,1.56.351,1.287,1.989h-3.718C232.316,82.107,232.927,81.665,234.305,81.665Zm7.124,5.174a27.526,27.526,0,0,0,2.288-5.785h3.991l-1.235,5.785h1.2l-0.741,2.444h-0.637l0.364-1.664h-5.6l-0.364,1.664h-0.624l0.286-2.444h1.079Zm2.925-5.005a34.34,34.34,0,0,1-2.041,5.005h3.315l1.066-5.005h-2.34Zm8.235-.962c-1.95,0-3.133.858-3.679,3.432-0.572,2.691.338,3.5,2.327,3.5a9.5,9.5,0,0,0,2.223-.364l-0.026-.78a7.3,7.3,0,0,1-1.963.351c-1.521,0-2.093-.455-1.651-2.587h4.693C255.1,81.626,254.448,80.872,252.589,80.872Zm-0.169.793c1.209,0,1.56.351,1.287,1.989h-3.718C250.431,82.107,251.042,81.665,252.42,81.665Zm7.986,0.169-1.222,5.785h0.845l1.391-6.565h-3.991a27.859,27.859,0,0,1-2.717,6.565h0.923a36.331,36.331,0,0,0,2.431-5.785h2.34ZM264.6,87.8a3.285,3.285,0,0,0,2.171-.715,1.552,1.552,0,0,0,.442.806l0.767-.546a1.338,1.338,0,0,1-.39-0.949,2.583,2.583,0,0,1,.065-0.52l0.962-4.485a6.509,6.509,0,0,0-2.548-.52c-2.028,0-3.133.754-3.692,3.445A7.616,7.616,0,0,0,262.2,85.8C262.2,87.307,263,87.8,264.6,87.8Zm1.3-6.123a5.13,5.13,0,0,1,1.755.273l-0.871,4.121c-0.13.6-1.04,0.923-2.015,0.923-1.131,0-1.638-.3-1.638-1.313a6.946,6.946,0,0,1,.182-1.352C263.782,82.107,264.367,81.678,265.9,81.678Zm7.383-.806c-1.95,0-3.133.858-3.679,3.432-0.572,2.691.338,3.5,2.327,3.5a9.5,9.5,0,0,0,2.223-.364l-0.026-.78a7.3,7.3,0,0,1-1.963.351c-1.521,0-2.093-.455-1.651-2.587h4.693C275.793,81.626,275.143,80.872,273.284,80.872Zm-0.169.793c1.209,0,1.56.351,1.287,1.989h-3.718C271.126,82.107,271.737,81.665,273.115,81.665Zm6.786,4.264c-0.3-1.638-.663-3.237-1.053-4.875H277.43l-1.391,6.565h0.845l1.236-5.811c0.4,1.69.767,3.64,1.066,5.343h0.793c0.962-1.664,2.2-3.614,3.38-5.343l-1.235,5.811h0.845l1.391-6.565H283C281.89,82.679,280.889,84.252,279.9,85.929Zm13.559,0.728a4.536,4.536,0,0,1-1.665.338c-1.534,0-2.132-.533-1.677-2.665,0.481-2.236,1.274-2.652,2.808-2.652a3.448,3.448,0,0,1,1.535.312L294.9,81.2a5.721,5.721,0,0,0-1.807-.325c-2.029,0-3.342.754-3.9,3.432s0.39,3.5,2.431,3.5a5.88,5.88,0,0,0,1.938-.364Zm3.253,1.144a3.285,3.285,0,0,0,2.171-.715,1.552,1.552,0,0,0,.442.806l0.767-.546a1.338,1.338,0,0,1-.39-0.949,2.583,2.583,0,0,1,.065-0.52l0.962-4.485a6.509,6.509,0,0,0-2.548-.52c-2.028,0-3.133.754-3.692,3.445a7.616,7.616,0,0,0-.182,1.482C294.308,87.307,295.114,87.8,296.713,87.8Zm1.3-6.123a5.13,5.13,0,0,1,1.755.273L298.9,86.072c-0.13.6-1.04,0.923-2.015,0.923-1.131,0-1.638-.3-1.638-1.313a6.946,6.946,0,0,1,.182-1.352C295.894,82.107,296.479,81.678,298.013,81.678Zm7.673,5.941h0.845l1.391-6.565h-0.845c-1.534,1.9-3.107,3.731-4.693,5.343l1.144-5.343h-0.845l-1.391,6.565h0.845a65.223,65.223,0,0,0,4.641-5.161ZM303.5,78.558c-0.247,1.131.234,1.638,1.365,1.638a1.882,1.882,0,0,0,2.08-1.638h-0.676a1.036,1.036,0,0,1-1.235.9c-0.689,0-.988-0.169-0.832-0.9h-0.7Zm8.273,3.276h2.574l0.169-.78h-5.993l-0.169.78h2.574l-1.222,5.785h0.845Zm5.484,5.005h-2.535l0.52-2.418h2.535c0.741,0,1.014.286,0.832,1.17A1.252,1.252,0,0,1,317.259,86.839ZM315.4,83.68l0.559-2.626h-0.845l-1.391,6.565h3.38a2.2,2.2,0,0,0,2.444-2.041c0.273-1.287-.182-1.9-1.612-1.9H315.4Zm6.852-2.626h-0.845l-1.392,6.565h0.845Z" transform="translate(-199.656 -78.563)"/>
</svg>
